<?xml version="1.0" encoding="UTF-8" standalone="no"?>
<svg
   xmlns:dc="http://purl.org/dc/elements/1.1/"
   xmlns:cc="http://creativecommons.org/ns#"
   xmlns:rdf="http://www.w3.org/1999/02/22-rdf-syntax-ns#"
   xmlns:svg="http://www.w3.org/2000/svg"
   xmlns="http://www.w3.org/2000/svg"
   viewBox="0 0 533.33752 326.72501"
   height="326.72501"
   width="533.33752"
   xml:space="preserve"
   version="1.1"
   id="svg2"><metadata
     id="metadata8"><rdf:RDF><cc:Work
         rdf:about=""><dc:format>image/svg+xml</dc:format><dc:type
           rdf:resource="http://purl.org/dc/dcmitype/StillImage" /></cc:Work></rdf:RDF></metadata><defs
     id="defs6"><clipPath
       id="clipPath18"
       clipPathUnits="userSpaceOnUse"><path
         id="path20"
         d="M 0,2613.76 0,0 l 4266.68,0 0,2613.76 -4266.68,0 z" /></clipPath></defs><g
     transform="matrix(1.25,0,0,-1.25,0,326.725)"
     id="g10"><g
       transform="scale(0.1,0.1)"
       id="g12"><g
         id="g14"><g
           clip-path="url(#clipPath18)"
           id="g16"><path
             id="path22"
             style="fill:#51ade5;fill-opacity:1;fill-rule:nonzero;stroke:none"
             d="m 2749.34,2387.91 c -369.07,331.57 -944.07,293.71 -1284.3,-84.92 -236.1,-262.75 -293.6,-618.84 -185.15,-923.78 25.19,1.01 51.61,-9.42 63.38,-35.85 25.87,-58.72 60.61,-111.67 98.69,-162.28 65.82,65.27 122.99,126.21 221.11,143.09 1.67,10.1 5.55,19.97 12.77,27.86 -160.52,213.45 -154.74,519.04 34.96,730.17 215.12,239.44 578.78,263.41 812.21,53.62 186.27,-167.28 231,-431.69 133.65,-653.81 14.2,-26.87 4.11,-62.27 -27.52,-75.15 18.75,-7.55 33.62,-23.31 33.62,-48.39 0.13,-55.29 -1,-82.03 48.73,-112.57 28.88,-17.64 55.29,-38.62 82.94,-58.05 17.85,59.72 54.93,110.55 109.67,153.84 18.41,14.66 39.95,15.44 58.93,9.34 155.08,351.43 81.38,771.91 -213.69,1036.88" /><path
             id="path24"
             style="fill:#51ade5;fill-opacity:1;fill-rule:nonzero;stroke:none"
             d="M 1711.03,1314.73 C 1487.47,1771.95 944.547,1965.76 498.422,1747.52 52.75,1529.63 -127.637,982.051 96.0391,524.828 301.609,104.582 880.492,-84.1289 1201.41,35.2891 c -11.11,40.4101 -23.87,94.0429 -30.52,135.6599 0,0.11 -0.12,0.211 -0.12,0.332 -24.08,69.149 -36.74,113.438 -39.52,186.598 -400.715,-0.668 -601.965,33.07 -738.391,312.141 -141.527,289.16 -27.527,635.49 254.414,773.47 282.18,137.87 625.507,15.32 766.817,-273.96 11.99,-24.42 20.87,-49.28 28.86,-74.36 0.11,0.1 0.23,0.22 0.23,0.22 0,0.21 0.1,0.33 0.21,0.33 37.74,38.4 79.49,73.7 124.88,105.34 3.56,2.55 7.11,4.99 10.67,7.32 0.22,0.22 0.65,0.45 0.88,0.56 44.29,29.75 91.57,56.5 142.97,78.59 -3.99,9.22 -7.33,18.31 -11.76,27.2" /><path
             id="path26"
             style="fill:#51ade5;fill-opacity:1;fill-rule:nonzero;stroke:none"
             d="m 3768.26,1745.31 c -446.13,218.24 -989.04,24.31 -1212.6,-432.92 -7.77,-15.98 -14.21,-32.18 -20.77,-48.18 103.69,-41.84 194.14,-99.34 270.52,-169.61 0.23,-0.22 0.33,-0.22 0.56,-0.43 4.54,-3.45 9.87,-6.01 14.42,-9.89 8.66,27.98 18.77,55.73 32.2,83.03 141.29,289.16 484.62,411.72 766.81,273.85 281.93,-137.87 395.83,-484.199 254.41,-773.469 -136.41,-279.062 -452.32,-315.589 -737.85,-308.14 -1.64,-41.742 -6.77,-59.621 -15.08,-100.461 0,-0.121 0,-0.231 0,-0.231 -2,-35.859 -5.44,-71.597 -10.54,-106.91 -0.12,-0.328 -0.12,-0.539 -0.12,-1 -0.33,-1.078 -0.33,-2.199 -0.55,-3.418 -5.44,-36.543 -12.2,-72.7029 -21.1,-108.3513 265.31,-123.6406 879.71,69.7113 1082.08,483.4223 223.66,457.226 43.29,1004.698 -402.39,1222.708" /><path
             id="path28"
             style="fill:#51ade5;fill-opacity:1;fill-rule:nonzero;stroke:none"
             d="m 2534.89,360.539 c -56.84,-122.207 -238.98,-244.75 -424.48,-244.75 -185.37,0 -356.21,122.543 -412.92,244.75 l -665.62,0 L 1008.02,0 l 2240.31,2.21875 0,358.32025 -713.44,0" /><path
             id="path30"
             style="fill:#51ade5;fill-opacity:1;fill-rule:nonzero;stroke:none"
             d="m 2473.01,604.121 c 0,-191.922 -155.62,-347.539 -347.54,-347.539 -191.93,0 -347.55,155.617 -347.55,347.539 0,191.93 155.62,347.559 347.55,347.559 191.92,0 347.54,-155.629 347.54,-347.559 z m 585.5,224.449 c -18.86,70.711 -14.21,148.75 20.87,220.46 75.94,155.16 260.09,221 411.27,147.19 151.19,-74.15 212.25,-259.861 136.42,-414.939 -75.82,-155.16 -259.86,-220.89 -411.15,-146.851 -52.5,25.64 -93.25,65.39 -122.1,112 -10.44,27.851 -21.87,55.5 -35.31,82.14 z m -1875.98,-78.5 c -28.86,-46.601 -69.6,-86.32 -122.1,-111.871 -151.305,-74.039 -335.34,-8.328 -411.16,146.75 -75.817,155.16 -14.762,340.871 136.421,414.911 151.188,73.94 335.349,8 411.269,-147.08 35.08,-71.792 39.74,-149.729 20.86,-220.542 -13.42,-26.668 -24.86,-54.168 -35.29,-82.168 z m 750.44,703.02 c -125.21,112.55 -133.2,307.7 -17.87,436.13 115.45,128.43 310.48,141.53 435.79,28.97 125.23,-112.45 133.1,-307.93 17.67,-436.47 -44.96,-49.94 -113.05,-91.05 -178.6,-92.12 -9.21,0.33 -1.8,-2.78 -11.11,-2.78 -32.64,0 -63.94,-2.12 -94.35,-5.44 -54.85,8.99 -107.57,32.19 -151.53,71.71 z M 1809.72,748.469 c -15.62,-34.008 -26.2,-70.789 -30.1,-109.637 L 1196.9,786.02 c 6.47,15.492 13.3,30.832 20.86,45.839 5.51,20.68 8.75,42 10.08,63.571 l 581.88,-146.961 z m 1238.5,146.929 -604.38,-152.66 c 14.96,-34.226 24.47,-71.328 27.65,-110.238 l 606.5,153.18 c -6.08,14.359 -12.53,28.582 -19.55,42.519 -5.81,21.821 -9.1,44.371 -10.22,67.199 z m -858.26,495.252 -2.52,-445.189 c -20.15,3.641 -40.82,5.84 -62.03,5.84 -17.6,0 -34.75,-1.731 -51.65,-4.25 l 1.86,435.909 c 1.36,-0.24 109.29,8.04 114.34,7.69" /></g></g></g></g></svg>