<?xml version="1.0" encoding="UTF-8" standalone="no"?>
<svg
   xmlns:dc="http://purl.org/dc/elements/1.1/"
   xmlns:cc="http://creativecommons.org/ns#"
   xmlns:rdf="http://www.w3.org/1999/02/22-rdf-syntax-ns#"
   xmlns:svg="http://www.w3.org/2000/svg"
   xmlns="http://www.w3.org/2000/svg"
   xmlns:sodipodi="http://sodipodi.sourceforge.net/DTD/sodipodi-0.dtd"
   xmlns:inkscape="http://www.inkscape.org/namespaces/inkscape"
   id="lockup-gsuite"
   width="151"
   height="151"
   viewBox="0 0 151 151"
   version="1.1"
   inkscape:version="0.91 r13725"
   sodipodi:docname="lockup_gsuite.svg">
  <metadata
     id="metadata3352">
    <rdf:RDF>
      <cc:Work
         rdf:about="">
        <dc:format>image/svg+xml</dc:format>
        <dc:type
           rdf:resource="http://purl.org/dc/dcmitype/StillImage" />
        <dc:title></dc:title>
      </cc:Work>
    </rdf:RDF>
  </metadata>
  <defs
     id="defs3350" />
  <sodipodi:namedview
     pagecolor="#ffffff"
     bordercolor="#666666"
     borderopacity="1"
     objecttolerance="10"
     gridtolerance="10"
     guidetolerance="10"
     inkscape:pageopacity="0"
     inkscape:pageshadow="2"
     inkscape:window-width="1624"
     inkscape:window-height="937"
     id="namedview3348"
     showgrid="false"
     inkscape:zoom="1.8964358"
     inkscape:cx="297.39999"
     inkscape:cy="75.5"
     inkscape:window-x="75"
     inkscape:window-y="-8"
     inkscape:window-maximized="1"
     inkscape:current-layer="XMLID_54_" />
  <style
     id="style3337">.st0{opacity:.54}</style>
  <g
     id="XMLID_54_"
     class="st0"
     style="opacity:0.54000005">
    <path
       inkscape:connector-curvature="0"
       d="m 110.4,43.1 c -4.6,-4.7 -9.6,-8.3 -14.9,-10.8 -5.3,-2.5 -12,-3.7 -19.7,-3.7 -6.2,0 -12.1,1.1 -17.6,3.3 -5.5,2.2 -10.3,5.3 -14.4,9.3 -4.2,4 -7.5,8.9 -9.9,14.6 -2.4,5.7 -3.6,12 -3.6,19 0,7 1.2,13.3 3.6,19 2.4,5.7 5.7,10.5 9.9,14.5 4.2,4 9.1,7.2 14.6,9.4 5.5,2.2 11.5,3.3 17.8,3.3 6.7,0 12.6,-0.9 17.6,-2.8 5,-1.9 9.3,-4.5 12.9,-7.7 2.4,-2.2 4.6,-4.9 6.5,-8.1 1.9,-3.3 3.4,-6.9 4.5,-10.9 l -42.3,0 0,-24 69,0 c 0.4,1.6 0.7,3.5 1,5.9 0.3,2.4 0.4,4.6 0.4,6.9 0,9.5 -1.4,18.1 -4.2,26 -2.8,7.9 -7.1,14.8 -12.7,20.9 -6.3,6.7 -13.8,11.8 -22.6,15.5 -8.8,3.7 -18.9,5.5 -30.2,5.5 -10.2,0 -19.8,-1.8 -28.8,-5.5 -9,-3.7 -16.9,-8.8 -23.7,-15.3 -6.7,-6.5 -12,-14.2 -16,-23.1 -4,-8.9 -5.9,-18.8 -5.9,-29.4 0,-10.6 2,-20.4 5.9,-29.4 3.9,-9 9.2,-16.7 16,-23.2 C 30.3,15.8 38.2,10.8 47.3,7.1 56.4,3.4 66,1.6 76.1,1.6 c 11.6,0 21.9,2 30.8,6 8.9,4 16.6,9.5 23.1,16.5 l -19.6,19 z"
       id="XMLID_69_" />
  </g>
</svg>
