<?xml version="1.0" encoding="UTF-8" standalone="no"?>
<svg
   xmlns:dc="http://purl.org/dc/elements/1.1/"
   xmlns:cc="http://creativecommons.org/ns#"
   xmlns:rdf="http://www.w3.org/1999/02/22-rdf-syntax-ns#"
   xmlns:svg="http://www.w3.org/2000/svg"
   xmlns="http://www.w3.org/2000/svg"
   xmlns:sodipodi="http://sodipodi.sourceforge.net/DTD/sodipodi-0.dtd"
   xmlns:inkscape="http://www.inkscape.org/namespaces/inkscape"
   viewBox="0 0 1050.25 200.71249"
   height="200.71249"
   width="1050.25"
   xml:space="preserve"
   version="1.1"
   id="svg2"
   inkscape:version="0.92.3 (2405546, 2018-03-11)"
   sodipodi:docname="images%2Ffd%2FFederatedDirectory_horizontal.svg"><sodipodi:namedview
     pagecolor="#ffffff"
     bordercolor="#666666"
     borderopacity="1"
     objecttolerance="10"
     gridtolerance="10"
     guidetolerance="10"
     inkscape:pageopacity="0"
     inkscape:pageshadow="2"
     inkscape:window-width="3760"
     inkscape:window-height="2131"
     id="namedview3396"
     showgrid="false"
     inkscape:zoom="1.0994793"
     inkscape:cx="247.20599"
     inkscape:cy="222.51191"
     inkscape:window-x="77"
     inkscape:window-y="-9"
     inkscape:window-maximized="1"
     inkscape:current-layer="svg2" /><metadata
     id="metadata8"><rdf:RDF><cc:Work
         rdf:about=""><dc:format>image/svg+xml</dc:format><dc:type
           rdf:resource="http://purl.org/dc/dcmitype/StillImage" /><dc:title /></cc:Work></rdf:RDF></metadata><defs
     id="defs6"><clipPath
       id="clipPath18"
       clipPathUnits="userSpaceOnUse"><path
         id="path20"
         d="M 0,2437.73 0,0 l 5841.97,0 0,2437.73 -5841.97,0 z"
         inkscape:connector-curvature="0" /></clipPath></defs><path
     id="path22"
     style="fill:#51ade5;fill-opacity:1;fill-rule:nonzero;stroke:none"
     d="m 328.2551,85.81526 h -18.751 c -5.331,0 -7.26162,1.83888 -7.26162,7.90538 v 9.92726 h 24.90912 c 1.01125,0 1.83838,0.82762 1.83838,1.83737 v 6.61763 c 0,1.01275 -0.82713,1.83887 -1.83838,1.83887 h -24.90912 v 28.126 c 0,1.01025 -0.82718,1.83888 -1.83744,1.83888 h -9.0083 c -1.01074,0 -1.83789,-0.82863 -1.83789,-1.83888 V 93.72064 c 0,-15.6265 9.28369,-18.84288 21.23238,-18.84288 10.9375,0 14.522,0.82763 17.46387,1.28613 1.3785,0.18512 1.83788,0.64412 1.83788,1.93025 v 5.88225 c 0,1.01275 -0.82713,1.83887 -1.83788,1.83887"
     inkscape:connector-curvature="0" /><path
     id="path24"
     style="fill:#51ade5;fill-opacity:1;fill-rule:nonzero;stroke:none"
     d="m 365.3381,113.2064 c 0,-7.16838 -3.95212,-11.30613 -9.65087,-11.30613 -5.69863,0 -9.83488,4.044 -9.83488,11.30613 v 0.36775 h 19.48575 z m 10.38625,9.00787 h -29.96387 v 0.27638 c 0,5.3295 2.20612,11.67325 11.02987,11.67325 6.70938,0 13.05175,-0.55225 16.912,-0.91988 0.0924,0 0.18463,0 0.27588,0 0.9195,0 1.65487,0.459 1.65487,1.37888 v 6.0665 c 0,1.46962 -0.27587,2.11375 -1.93075,2.38862 -5.97412,1.1035 -9.5585,1.5625 -17.8315,1.5625 -9.19087,0 -22.24312,-4.96237 -22.24312,-23.07037 v -6.80125 c 0,-14.33838 7.9965,-23.34714 22.0595,-23.34714 14.15487,0 21.8755,9.65239 21.8755,23.34714 v 5.148 c 0,1.46975 -0.55075,2.29737 -1.83838,2.29737"
     inkscape:connector-curvature="0" /><path
     id="path26"
     style="fill:#51ade5;fill-opacity:1;fill-rule:nonzero;stroke:none"
     d="m 411.60472,101.99302 c -2.57375,-0.36912 -6.61812,-0.6425 -8.82375,-0.6425 -7.90475,0 -9.83537,5.60588 -9.83537,13.1425 v 7.07713 c 0,7.53762 1.93062,13.14412 9.83537,13.14412 3.30863,0 7.07725,-0.27637 8.82375,-0.64412 z m 9.65038,40.25888 c -5.69875,1.46962 -12.59175,2.38862 -18.47413,2.38862 -14.79875,0 -21.96774,-8.7315 -21.96774,-23.07037 v -7.07713 c 0,-14.33787 7.16899,-23.07126 21.96774,-23.07126 2.20563,0 5.42288,0.185 8.82375,0.645 v -16.27 c 0,-1.01025 0.82713,-1.837374 1.83838,-1.837374 h 8.45575 c 1.01125,0 1.83875,0.827124 1.83875,1.837374 v 63.97364 c 0,1.3775 -0.3675,1.93012 -2.4825,2.4815"
     inkscape:connector-curvature="0" /><path
     id="path28"
     style="fill:#51ade5;fill-opacity:1;fill-rule:nonzero;stroke:none"
     d="m 460.30635,113.2064 c 0,-7.16838 -3.95125,-11.30613 -9.65125,-11.30613 -5.69875,0 -9.835,4.044 -9.835,11.30613 v 0.36775 h 19.48625 z m 10.38625,9.00787 h -29.96375 v 0.27638 c 0,5.3295 2.20625,11.67325 11.03,11.67325 6.70875,0 13.05125,-0.55225 16.9125,-0.91988 0.0913,0 0.18375,0 0.275,0 0.92,0 1.655,0.459 1.655,1.37888 v 6.0665 c 0,1.46962 -0.27625,2.11375 -1.93,2.38862 -5.975,1.1035 -9.55875,1.5625 -17.8325,1.5625 -9.19125,0 -22.24375,-4.96237 -22.24375,-23.07037 v -6.80125 c 0,-14.33838 7.9975,-23.34714 22.06,-23.34714 14.155,0 21.87625,9.65239 21.87625,23.34714 v 5.148 c 0,1.46975 -0.55125,2.29737 -1.83875,2.29737"
     inkscape:connector-curvature="0" /><path
     id="path30"
     style="fill:#51ade5;fill-opacity:1;fill-rule:nonzero;stroke:none"
     d="m 502.06885,101.71765 c -4.9625,0 -8.82375,1.28662 -12.68375,3.30762 v 36.95113 c 0,1.01025 -0.8275,1.93025 -1.83875,1.93025 h -8.45625 c -1.01125,0 -1.8375,-0.92 -1.8375,-1.93025 V 93.90414 c 0,-1.01125 0.82625,-1.83738 1.8375,-1.83738 h 7.99625 c 1.0125,0 1.83875,0.82613 1.83875,1.83738 v 1.93126 c 4.50375,-3.49376 9.4675,-4.41364 13.14375,-4.41364 1.01125,0 1.83875,0.82713 1.83875,1.83888 v 6.61863 c 0,1.00975 -0.8275,1.83838 -1.83875,1.83838"
     inkscape:connector-curvature="0" /><path
     id="path32"
     style="fill:#51ade5;fill-opacity:1;fill-rule:nonzero;stroke:none"
     d="m 532.4626,121.11027 h -5.79 c -8.36375,0 -10.2025,2.6665 -10.2025,7.81388 v 0.36775 c 0,4.50337 2.02125,5.69875 6.6175,5.69875 3.30875,0 6.71,-1.10263 9.375,-2.57375 z m 10.295,22.79638 h -7.8125 c -1.01125,0 -1.83875,-0.82863 -1.83875,-1.83888 v -1.47125 c -4.2275,2.57525 -8.5475,4.044 -12.96,4.044 -7.62875,0 -15.90125,-2.94 -15.90125,-15.34862 v -0.36775 c 0,-10.479 6.43375,-15.90125 22.4275,-15.90125 h 5.79 v -4.045 c 0,-5.97363 -2.665,-7.44475 -8.0875,-7.44475 -5.88375,0 -11.95,0.36712 -14.9825,0.73575 -0.18375,0 -0.3675,0 -0.46,0 -0.91875,0 -1.65375,-0.27588 -1.65375,-1.5635 v -5.88225 c 0,-1.01176 0.55125,-1.65389 1.74625,-1.93026 3.67625,-0.73475 9.0075,-1.47113 15.35,-1.47113 13.05125,0 20.22125,5.79101 20.22125,17.55614 v 33.08987 c 0,1.01025 -0.8275,1.83888 -1.83875,1.83888"
     inkscape:connector-curvature="0" /><path
     id="path34"
     style="fill:#51ade5;fill-opacity:1;fill-rule:nonzero;stroke:none"
     d="m 577.84635,143.9979 c -2.205,0.36775 -4.2275,0.64262 -6.25,0.64262 -10.38625,0 -14.61375,-2.29637 -14.61375,-14.61375 V 101.1654 l -8.64,-1.28613 c -1.01125,-0.185 -1.83875,-0.82762 -1.83875,-1.83887 v -4.13626 c 0,-1.01125 0.8275,-1.83738 1.83875,-1.83738 h 8.64 v -7.53762 c 0,-1.01125 0.8275,-1.65525 1.8375,-1.83888 l 8.54875,-1.46962 c 0.0913,0 0.275,0 0.3675,0 0.8275,0 1.47125,0.4585 1.47125,1.37837 v 9.46775 h 8.27125 c 1.0125,0 1.83875,0.82613 1.83875,1.83738 v 5.42238 c 0,1.01125 -0.82625,1.83888 -1.83875,1.83888 h -8.27125 v 28.86137 c 0,4.59613 0.275,5.14738 3.58375,5.14738 h 4.87125 c 1.195,0 1.93125,0.4585 1.93125,1.379 v 5.791 c 0,0.91887 -0.5525,1.47025 -1.7475,1.65375"
     inkscape:connector-curvature="0" /><path
     id="path36"
     style="fill:#51ade5;fill-opacity:1;fill-rule:nonzero;stroke:none"
     d="m 612.0651,113.2064 c 0,-7.16838 -3.9525,-11.30613 -9.65125,-11.30613 -5.69875,0 -9.835,4.044 -9.835,11.30613 v 0.36775 h 19.48625 z m 10.38625,9.00787 H 592.4876 v 0.27638 c 0,5.3295 2.205,11.67325 11.03,11.67325 6.70875,0 13.05125,-0.55225 16.91125,-0.91988 0.0925,0 0.185,0 0.27625,0 0.91875,0 1.655,0.459 1.655,1.37888 v 6.0665 c 0,1.46962 -0.27625,2.11375 -1.93125,2.38862 -5.97375,1.1035 -9.55875,1.5625 -17.83125,1.5625 -9.19125,0 -22.2425,-4.96237 -22.2425,-23.07037 v -6.80125 c 0,-14.33838 7.99625,-23.34714 22.05875,-23.34714 14.155,0 21.87625,9.65239 21.87625,23.34714 v 5.148 c 0,1.46975 -0.55125,2.29737 -1.83875,2.29737"
     inkscape:connector-curvature="0" /><path
     id="path38"
     style="fill:#51ade5;fill-opacity:1;fill-rule:nonzero;stroke:none"
     d="m 658.33135,101.99302 c -2.57375,-0.36912 -6.6175,-0.6425 -8.82375,-0.6425 -7.905,0 -9.835,5.60588 -9.835,13.1425 v 7.07713 c 0,7.53762 1.93,13.14412 9.835,13.14412 3.3075,0 7.0775,-0.27637 8.82375,-0.64412 z m 9.65,40.25888 c -5.6975,1.46962 -12.59125,2.38862 -18.47375,2.38862 -14.79875,0 -21.9675,-8.7315 -21.9675,-23.07037 v -7.07713 c 0,-14.33787 7.16875,-23.07126 21.9675,-23.07126 2.20625,0 5.4225,0.185 8.82375,0.645 v -16.27 c 0,-1.01025 0.8275,-1.837374 1.8375,-1.837374 h 8.4575 c 1.01125,0 1.83875,0.827124 1.83875,1.837374 v 63.97364 c 0,1.3775 -0.36875,1.93012 -2.48375,2.4815"
     inkscape:connector-curvature="0" /><path
     id="path40"
     style="fill:#656263;fill-opacity:1;fill-rule:nonzero;stroke:none"
     d="m 714.1476,103.00427 c 0,-13.78763 -6.98625,-17.37251 -16.1775,-17.37251 -3.40125,0 -5.79,0.1835 -7.72,0.27638 v 47.70351 c 1.93,0.0914 4.31875,0.27637 7.72,0.27637 9.19125,0 16.1775,-3.58487 16.1775,-17.3725 z m -16.1775,41.63625 c -6.52625,0 -15.35,-0.64262 -18.1075,-1.10162 -1.5625,-0.27588 -2.39,-1.01113 -2.39,-2.8495 V 78.83039 c 0,-1.83875 0.8275,-2.57363 2.39,-2.84863 2.7575,-0.45987 11.58125,-1.104 18.1075,-1.104 18.38375,0 28.86125,9.92638 28.86125,28.12651 v 13.51125 c 0,18.19876 -10.4775,28.125 -28.86125,28.125"
     inkscape:connector-curvature="0" /><path
     id="path42"
     style="fill:#656263;fill-opacity:1;fill-rule:nonzero;stroke:none"
     d="m 742.77385,143.90665 h -8.455 c -1.01125,0 -1.83875,-0.92 -1.83875,-1.93025 V 93.90414 c 0,-1.01125 0.8275,-1.83738 1.83875,-1.83738 h 8.455 c 1.0125,0 1.83875,0.82613 1.83875,1.83738 v 48.07226 c 0,1.01025 -0.82625,1.93025 -1.83875,1.93025 z m 0.27625,-58.73489 h -8.915 c -1.01125,0 -1.93125,-0.82612 -1.93125,-1.83737 v -8.08888 c 0,-1.01125 0.92,-1.838874 1.93125,-1.838874 h 8.915 c 1.0125,0 1.83875,0.827624 1.83875,1.838874 v 8.08888 c 0,1.01125 -0.82625,1.83737 -1.83875,1.83737"
     inkscape:connector-curvature="0" /><path
     id="path44"
     style="fill:#656263;fill-opacity:1;fill-rule:nonzero;stroke:none"
     d="m 775.8976,101.71765 c -4.9625,0 -8.8225,1.28662 -12.68375,3.30762 v 36.95113 c 0,1.01025 -0.82625,1.93025 -1.8375,1.93025 h -8.4575 c -1.01,0 -1.8375,-0.92 -1.8375,-1.93025 V 93.90414 c 0,-1.01125 0.8275,-1.83738 1.8375,-1.83738 h 7.9975 c 1.01125,0 1.83875,0.82613 1.83875,1.83738 v 1.93126 c 4.50375,-3.49376 9.4675,-4.41364 13.1425,-4.41364 1.0125,0 1.83875,0.82713 1.83875,1.83888 v 6.61863 c 0,1.00975 -0.82625,1.83838 -1.83875,1.83838"
     inkscape:connector-curvature="0" /><path
     id="path46"
     style="fill:#656263;fill-opacity:1;fill-rule:nonzero;stroke:none"
     d="m 810.09885,113.2064 c 0,-7.16838 -3.9525,-11.30613 -9.65125,-11.30613 -5.7,0 -9.835,4.044 -9.835,11.30613 v 0.36775 h 19.48625 z m 10.385,9.00787 H 790.5201 v 0.27638 c 0,5.3295 2.20625,11.67325 11.03,11.67325 6.71,0 13.05125,-0.55225 16.9125,-0.91988 0.0913,0 0.18375,0 0.27625,0 0.91875,0 1.65375,0.459 1.65375,1.37888 v 6.0665 c 0,1.46962 -0.27625,2.11375 -1.93,2.38862 -5.975,1.1035 -9.55875,1.5625 -17.8325,1.5625 -9.19125,0 -22.2425,-4.96237 -22.2425,-23.07037 v -6.80125 c 0,-14.33838 7.99625,-23.34714 22.06,-23.34714 14.15375,0 21.875,9.65239 21.875,23.34714 v 5.148 c 0,1.46975 -0.55125,2.29737 -1.83875,2.29737"
     inkscape:connector-curvature="0" /><path
     id="path48"
     style="fill:#656263;fill-opacity:1;fill-rule:nonzero;stroke:none"
     d="m 858.38634,143.44665 c -2.1137,0.55125 -6.24999,1.19387 -11.85749,1.19387 -11.94875,0 -20.95625,-7.35162 -20.95625,-22.335 v -8.54787 c 0,-14.98238 9.0075,-22.33589 20.95625,-22.33589 5.6075,0 9.74379,0.645 11.85749,1.19488 1.5625,0.36862 1.93,0.91987 1.93,2.39013 v 5.975 c 0,0.9185 -0.735,1.3785 -1.655,1.3785 -0.091,0 -0.1825,0 -0.275,0 -3.6775,-0.46 -5.88374,-0.64262 -11.85749,-0.64262 -4.32,0 -8.8225,2.4815 -8.8225,12.04 v 8.54787 c 0,9.56013 4.5025,12.041 8.8225,12.041 5.97375,0 8.17999,-0.18262 11.85749,-0.6435 0.092,0 0.1838,0 0.275,0 0.92,0 1.655,0.46088 1.655,1.37988 v 5.97362 c 0,1.47125 -0.3675,2.0215 -1.93,2.39013"
     inkscape:connector-curvature="0" /><path
     id="path50"
     style="fill:#656263;fill-opacity:1;fill-rule:nonzero;stroke:none"
     d="m 893.70514,143.9979 c -2.205,0.36775 -4.2263,0.64262 -6.25,0.64262 -10.3863,0 -14.6138,-2.29637 -14.6138,-14.61375 V 101.1654 l -8.64,-1.28613 c -1.0112,-0.185 -1.8387,-0.82762 -1.8387,-1.83887 v -4.13626 c 0,-1.01125 0.8275,-1.83738 1.8387,-1.83738 h 8.64 v -7.53762 c 0,-1.01125 0.8263,-1.65525 1.8388,-1.83888 l 8.5475,-1.46962 c 0.092,0 0.275,0 0.3675,0 0.8275,0 1.47,0.4585 1.47,1.37837 v 9.46775 h 8.2725 c 1.0112,0 1.8387,0.82613 1.8387,1.83738 v 5.42238 c 0,1.01125 -0.8275,1.83888 -1.8387,1.83888 h -8.2725 v 28.86137 c 0,4.59613 0.2762,5.14738 3.585,5.14738 h 4.8725 c 1.1937,0 1.93,0.4585 1.93,1.379 v 5.791 c 0,0.91887 -0.5525,1.47025 -1.7475,1.65375"
     inkscape:connector-curvature="0" /><path
     id="path52"
     style="fill:#656263;fill-opacity:1;fill-rule:nonzero;stroke:none"
     d="m 928.01634,114.30902 c 0,-7.53612 -3.4012,-12.40875 -9.8362,-12.40875 -6.4338,0 -9.835,4.87263 -9.835,12.40875 v 7.44525 c 0,7.53763 3.4012,12.40963 9.835,12.40963 6.435,0 9.8362,-4.872 9.8362,-12.40963 z m -9.8362,30.3315 c -14.4288,0 -21.9675,-9.74262 -21.9675,-22.88625 v -7.44525 c 0,-13.14362 7.5387,-22.88726 21.9675,-22.88726 14.4312,0 21.9687,9.74364 21.9687,22.88726 v 7.44525 c 0,13.14363 -7.5375,22.88625 -21.9687,22.88625"
     inkscape:connector-curvature="0" /><path
     id="path54"
     style="fill:#656263;fill-opacity:1;fill-rule:nonzero;stroke:none"
     d="m 969.82384,101.71765 c -4.9637,0 -8.8237,1.28662 -12.685,3.30762 v 36.95113 c 0,1.01025 -0.8262,1.93025 -1.8362,1.93025 h -8.4575 c -1.01,0 -1.8388,-0.92 -1.8388,-1.93025 V 93.90414 c 0,-1.01125 0.8288,-1.83738 1.8388,-1.83738 h 7.9975 c 1.01,0 1.8375,0.82613 1.8375,1.83738 v 1.93126 c 4.505,-3.49376 9.4675,-4.41364 13.1437,-4.41364 1.0113,0 1.8388,0.82713 1.8388,1.83888 v 6.61863 c 0,1.00975 -0.8275,1.83838 -1.8388,1.83838"
     inkscape:connector-curvature="0" /><path
     id="path56"
     style="fill:#656263;fill-opacity:1;fill-rule:nonzero;stroke:none"
     d="m 1019.7138,94.17914 -15.35,53.68013 c -2.85,10.01763 -6.24996,14.42963 -18.75116,14.42963 -3.0325,0 -7.6288,-0.55125 -9.7425,-1.19325 -1.0113,-0.27638 -1.93,-0.64513 -1.93,-1.564 v -5.88375 c 0,-1.00988 0.8262,-1.65388 1.8387,-1.65388 0.091,0 0.091,0 0.1825,0 2.575,0.0914 7.8125,0.55275 10.3875,0.55275 3.9525,0 5.9738,-1.104 7.26,-5.88287 l 0.7363,-2.75725 h -1.3788 c -2.665,0 -5.975,-0.64363 -7.9975,-7.62988 l -12.0412,-42.09763 c -0.091,-0.275 -0.091,-0.4585 -0.091,-0.64263 0,-0.91987 0.5512,-1.46975 1.7475,-1.46975 h 9.2825 c 0.8262,0 1.5625,0.82613 1.7462,1.65388 l 9.2838,37.40963 c 0.3675,1.5625 0.735,2.0215 1.2875,2.0215 h 0.091 c 0.1837,0 0.3675,0 0.4587,0 0.2763,0 0.2763,0 0.2763,0 l 9.92616,-39.52251 c 0.185,-0.82762 0.92,-1.5625 1.8388,-1.5625 h 9.375 c 0.9187,0 1.655,0.73488 1.655,1.5625 0,0.18213 0,0.36725 -0.091,0.54988"
     inkscape:connector-curvature="0" /><path
     id="path82"
     style="fill:#51ade5;fill-opacity:1;fill-rule:nonzero;stroke:none"
     d="m 175.96062,32.753426 c -21.62625,-19.42875 -55.3175,-17.21 -75.2525,4.97625 -13.835,15.395 -17.20375,36.26 -10.84875,54.12625 1.47625,-0.0575 3.02375,0.55375 3.71375,2.10125 1.515,3.44125 3.55125,6.543754 5.7825,9.508754 3.85625,-3.823754 7.20625,-7.395004 12.955,-8.383754 0.0987,-0.59125 0.32625,-1.17 0.74875,-1.6325 -9.405,-12.5075 -9.06625,-30.4125 2.04875,-42.78375 12.605,-14.03 33.9125,-15.435 47.59,-3.14125 10.915,9.80125 13.53625,25.29375 7.83125,38.30875 0.8325,1.575 0.24125,3.64875 -1.6125,4.40375 1.09875,0.4425 1.97,1.365 1.97,2.835 0.008,3.24 -0.0587,4.80625 2.855,6.59625 1.6925,1.033754 3.24,2.262504 4.86,3.401254 1.04625,-3.498754 3.21875,-6.477504 6.42625,-9.015004 1.07875,-0.85875 2.34125,-0.90375 3.4525,-0.54625 9.0875,-20.5925 4.76875,-45.23 -12.52,-60.755"
     inkscape:connector-curvature="0" /><path
     id="path84"
     style="fill:#51ade5;fill-opacity:1;fill-rule:nonzero;stroke:none"
     d="m 115.12062,95.635926 c -13.09875,-26.79125 -44.91125,-38.1475 -71.05125,-25.36 -26.11375,12.7675 -36.6837503,44.852504 -23.5775,71.642504 12.04625,24.625 45.965,35.68125 64.76875,28.685 -0.65125,-2.36875 -1.39875,-5.51125 -1.78875,-7.95 0,-0.006 -0.006,-0.0112 -0.006,-0.0187 -1.41125,-4.0525 -2.1525,-6.6475 -2.31625,-10.93375 -23.47875,0.0387 -35.27125,-1.9375 -43.265,-18.29 -8.2925,-16.9425 -1.61375,-37.235004 14.9075,-45.320004 16.53375,-8.07875 36.65125,-0.8975 44.93125,16.052504 0.7025,1.43 1.2225,2.8875 1.69,4.3575 0.006,-0.006 0.0138,-0.0137 0.0138,-0.0137 0,-0.0125 0.006,-0.0188 0.0125,-0.0188 2.21125,-2.25 4.6575,-4.32 7.3175,-6.1725 0.20875,-0.15 0.41625,-0.2925 0.625,-0.43 0.0125,-0.0125 0.0375,-0.0263 0.0513,-0.0312 2.595,-1.74375 5.36625,-3.311254 8.3775,-4.605004 -0.23375,-0.54125 -0.43,-1.07375 -0.69,-1.59375"
     inkscape:connector-curvature="0" /><path
     id="path86"
     style="fill:#51ade5;fill-opacity:1;fill-rule:nonzero;stroke:none"
     d="m 235.66312,70.405926 c -26.14125,-12.7875 -57.9525,-1.425 -71.05125,25.36625 -0.455,0.93625 -0.8325,1.88625 -1.2175,2.8225 6.075,2.452504 11.37625,5.821254 15.85125,9.938754 0.0137,0.0125 0.0187,0.0125 0.0325,0.025 0.26625,0.2025 0.57875,0.3525 0.845,0.58 0.5075,-1.64 1.1,-3.26625 1.8875,-4.865 8.27875,-16.943754 28.39625,-24.125004 44.93,-16.046254 16.52,8.07875 23.19375,28.371254 14.9075,45.321254 -7.99375,16.35125 -26.50375,18.49125 -43.23375,18.055 -0.0962,2.44625 -0.39625,3.4925 -0.88375,5.88625 0,0.006 0,0.0137 0,0.0137 -0.1175,2.1 -0.31875,4.195 -0.6175,6.26375 -0.008,0.02 -0.008,0.0312 -0.008,0.0588 -0.02,0.0637 -0.02,0.12875 -0.0325,0.2 -0.3175,2.14125 -0.715,4.26 -1.23625,6.34875 15.54625,7.245 51.54625,-4.08375 63.40375,-28.32625 13.105,-26.79 2.53625,-58.868754 -23.5775,-71.642504"
     inkscape:connector-curvature="0" /><path
     id="path88"
     style="fill:#51ade5;fill-opacity:1;fill-rule:nonzero;stroke:none"
     d="m 163.39437,151.54468 c -3.33,7.16125 -14.0025,14.34125 -24.87125,14.34125 -10.8625,0 -20.8725,-7.18 -24.195,-14.34125 l -39.00125,0 -1.3975,21.12625 131.26875,-0.13 0,-20.99625 -41.80375,0"
     inkscape:connector-curvature="0" /><path
     id="path90"
     style="fill:#51ade5;fill-opacity:1;fill-rule:nonzero;stroke:none"
     d="m 159.76937,137.27343 c 0,11.245 -9.11875,20.36375 -20.36375,20.36375 -11.24625,0 -20.365,-9.11875 -20.365,-20.36375 0,-11.2475 9.11875,-20.365 20.365,-20.365 11.245,0 20.36375,9.1175 20.36375,20.365 z m 34.30625,-13.1525 c -1.105,-4.1425 -0.8325,-8.715 1.22375,-12.9175 4.44875,-9.09125 15.23875,-12.948754 24.0975,-8.62375 8.85875,4.34375 12.43625,15.225 7.9925,24.3125 -4.44125,9.09125 -15.225,12.9425 -24.09,8.605 -3.07625,-1.5025 -5.46375,-3.8325 -7.155,-6.5625 -0.61125,-1.6325 -1.28125,-3.2525 -2.06875,-4.81375 z m -109.92125,4.6 c -1.69125,2.73 -4.07875,5.05875 -7.155,6.555 -8.865,4.33875 -19.64875,0.48875 -24.09125,-8.59875 -4.4425,-9.09125 -0.865,-19.9725 7.99375,-24.31125 8.85875,-4.332504 19.64875,-0.46875 24.0975,8.6175 2.05625,4.2075 2.32875,8.77375 1.2225,12.9225 -0.78625,1.5625 -1.45625,3.17375 -2.0675,4.815 z m 43.97125,-41.192504 c -7.33625,-6.595 -7.805,-18.02875 -1.0475,-25.555 6.765,-7.525 18.1925,-8.29375 25.535,-1.6975 7.3375,6.58875 7.79875,18.0425 1.035,25.57375 -2.63375,2.9275 -6.62375,5.335 -10.465,5.39875 -0.53875,-0.02 -0.105,0.1625 -0.65,0.1625 -1.91375,0 -3.74625,0.12375 -5.52875,0.31875 -3.21375,-0.52625 -6.3025,-1.88625 -8.87875,-4.20125 z m -7.2225,41.286254 c -0.91375,1.9925 -1.535,4.1475 -1.7625,6.42375 l -34.145,-8.62375 c 0.38,-0.9075 0.78,-1.80625 1.2225,-2.68625 0.32375,-1.21125 0.51375,-2.46125 0.59125,-3.725 l 34.09375,8.61125 z m 72.57,-8.60875 -35.4125,8.945 c 0.87625,2.005 1.4325,4.17875 1.61875,6.46 l 35.5375,-8.97625 c -0.35625,-0.84125 -0.73375,-1.675 -1.145,-2.49125 -0.34,-1.27875 -0.53375,-2.6 -0.59875,-3.9375 z m -50.29,-29.018754 -0.1475,26.085004 c -1.18,-0.21375 -2.39125,-0.3425 -3.63375,-0.3425 -1.03125,0 -2.03625,0.10125 -3.02625,0.24875 l 0.10875,-25.541254 c 0.08,0.0137 6.40375,-0.47 6.69875,-0.45"
     inkscape:connector-curvature="0" /></svg>