<svg version="1.1" viewBox="0.0 0.0 960.0 540.0" fill="none" stroke="none" stroke-linecap="square" stroke-miterlimit="10" xmlns:xlink="http://www.w3.org/1999/xlink" xmlns="http://www.w3.org/2000/svg"><clipPath id="ga0e5cba791_0_65.0"><path d="m0 0l960.0 0l0 540.0l-960.0 0l0 -540.0z" clip-rule="nonzero"/></clipPath><g clip-path="url(#ga0e5cba791_0_65.0)"><path fill="#ffffff" d="m0 0l960.0 0l0 540.0l-960.0 0z" fill-rule="evenodd"/><path fill="#efefef" d="m297.29135 6.782152l370.0787 0l0 246.01575l-370.0787 0z" fill-rule="evenodd"/><path stroke="#eeeeee" stroke-width="1.0" stroke-linejoin="round" stroke-linecap="butt" d="m297.29135 6.782152l370.0787 0l0 246.01575l-370.0787 0z" fill-rule="evenodd"/><path fill="#000000" fill-opacity="0.0" d="m363.51193 6.782152l237.63779 0l0 66.48819l-237.63779 0z" fill-rule="evenodd"/><path fill="#434343" d="m388.59073 23.061525l0 3.453125l6.03125 0l0 2.4375l-6.03125 0l0 4.750002l-3.03125 0l0 -13.062502l9.875 0l0 2.421875l-6.84375 0zm18.253754 5.65625q0 0.0625 -0.046875 0.78125l-7.59375 0q0.203125 0.9375 0.96875 1.484375q0.765625 0.53125 1.90625 0.53125q0.78125 0 1.375 -0.234375q0.609375 -0.234375 1.140625 -0.734375l1.546875 1.6875019q-1.421875 1.625 -4.140625 1.625q-1.703125 0 -3.015625 -0.65625q-1.296875 -0.671875 -2.015625 -1.8437519q-0.703125 -1.1875 -0.703125 -2.671875q0 -1.484375 0.703125 -2.65625q0.703125 -1.1875 1.921875 -1.84375q1.21875 -0.671875 2.734375 -0.671875q1.46875 0 2.65625 0.640625q1.203125 0.625 1.875 1.8125q0.6875 1.1875 0.6875 2.75zm-5.203125 -3.0q-0.984375 0 -1.65625 0.5625q-0.671875 0.5625 -0.828125 1.53125l4.953125 0q-0.15625 -0.953125 -0.828125 -1.515625q-0.671875 -0.578125 -1.640625 -0.578125zm17.365845 -5.859375l0 13.843752l-2.78125 0l0 -1.15625q-1.078125 1.3125 -3.125 1.3125q-1.421875 0 -2.578125 -0.640625q-1.140625 -0.640625 -1.796875 -1.8125019q-0.640625 -1.171875 -0.640625 -2.71875q0 -1.546875 0.640625 -2.71875q0.65625 -1.1875 1.796875 -1.8125q1.15625 -0.640625 2.578125 -0.640625q1.921875 0 3.0 1.21875l0 -4.875l2.90625 0zm-5.40625 11.609375q1.09375 0 1.828125 -0.75q0.734375 -0.765625 0.734375 -2.03125q0 -1.265625 -0.734375 -2.015625q-0.734375 -0.765625 -1.828125 -0.765625q-1.125 0 -1.859375 0.765625q-0.71875 0.75 -0.71875 2.015625q0 1.265625 0.71875 2.03125q0.734375 0.75 1.859375 0.75zm17.92575 -2.75q0 0.0625 -0.046875 0.78125l-7.59375 0q0.203125 0.9375 0.96875 1.484375q0.765625 0.53125 1.90625 0.53125q0.78125 0 1.375 -0.234375q0.609375 -0.234375 1.140625 -0.734375l1.546875 1.6875019q-1.421875 1.625 -4.140625 1.625q-1.703125 0 -3.015625 -0.65625q-1.296875 -0.671875 -2.015625 -1.8437519q-0.703125 -1.1875 -0.703125 -2.671875q0 -1.484375 0.703125 -2.65625q0.703125 -1.1875 1.921875 -1.84375q1.21875 -0.671875 2.734375 -0.671875q1.46875 0 2.65625 0.640625q1.203125 0.625 1.875 1.8125q0.6875 1.1875 0.6875 2.75zm-5.203125 -3.0q-0.984375 0 -1.65625 0.5625q-0.671875 0.5625 -0.828125 1.53125l4.953125 0q-0.15625 -0.953125 -0.828125 -1.515625q-0.671875 -0.578125 -1.640625 -0.578125zm9.928345 -0.734375q0.515625 -0.71875 1.40625 -1.09375q0.890625 -0.375 2.046875 -0.375l0 2.6875q-0.484375 -0.03125 -0.65625 -0.03125q-1.25 0 -1.96875 0.703125q-0.703125 0.6875 -0.703125 2.09375l0 4.734377l-2.90625 0l0 -10.031252l2.78125 0l0 1.3125zm9.175812 -1.46875q2.328125 0 3.578125 1.109375q1.25 1.109375 1.25 3.34375l0 5.734377l-2.71875 0l0 -1.25q-0.828125 1.40625 -3.0625 1.40625q-1.15625 0 -2.015625 -0.390625q-0.84375 -0.40625 -1.296875 -1.09375q-0.4375 -0.6875019 -0.4375 -1.5625019q0 -1.40625 1.046875 -2.203125q1.0625 -0.796875 3.265625 -0.796875l2.3125 0q0 -0.953125 -0.578125 -1.46875q-0.578125 -0.515625 -1.734375 -0.515625q-0.796875 0 -1.578125 0.25q-0.765625 0.25 -1.3125 0.6875l-1.046875 -2.03125q0.828125 -0.578125 1.96875 -0.890625q1.140625 -0.328125 2.359375 -0.328125zm-0.21875 8.375q0.734375 0 1.3125 -0.34375q0.59375 -0.34375 0.828125 -1.015625l0 -1.03125l-2.0 0q-1.78125 0 -1.78125 1.1875q0 0.546875 0.4375 0.875q0.4375 0.328125 1.203125 0.328125zm14.15155 1.3281269q-0.421875 0.3125 -1.046875 0.484375q-0.625 0.15625 -1.3125 0.15625q-1.796875 0 -2.78125 -0.90625q-0.96875 -0.921875 -0.96875 -2.703127l0 -4.125l-1.546875 0l0 -2.234375l1.546875 0l0 -2.4375l2.90625 0l0 2.4375l2.5 0l0 2.234375l-2.5 0l0 4.09375q0 0.625 0.328125 0.96875q0.328125 0.34375 0.921875 0.34375q0.6875 0 1.171875 -0.359375l0.78125 2.046877zm11.157501 -4.500002q0 0.0625 -0.046875 0.78125l-7.59375 0q0.203125 0.9375 0.96875 1.484375q0.765625 0.53125 1.90625 0.53125q0.78125 0 1.375 -0.234375q0.609375 -0.234375 1.140625 -0.734375l1.546875 1.6875019q-1.421875 1.625 -4.140625 1.625q-1.703125 0 -3.015625 -0.65625q-1.296875 -0.671875 -2.015625 -1.8437519q-0.703125 -1.1875 -0.703125 -2.671875q0 -1.484375 0.703125 -2.65625q0.703125 -1.1875 1.921875 -1.84375q1.21875 -0.671875 2.734375 -0.671875q1.46875 0 2.65625 0.640625q1.203125 0.625 1.875 1.8125q0.6875 1.1875 0.6875 2.75zm-5.203125 -3.0q-0.984375 0 -1.65625 0.5625q-0.671875 0.5625 -0.828125 1.53125l4.953125 0q-0.15625 -0.953125 -0.828125 -1.515625q-0.671875 -0.578125 -1.640625 -0.578125zm17.365845 -5.859375l0 13.843752l-2.78125 0l0 -1.15625q-1.078125 1.3125 -3.125 1.3125q-1.421875 0 -2.578125 -0.640625q-1.140625 -0.640625 -1.796875 -1.8125019q-0.640625 -1.171875 -0.640625 -2.71875q0 -1.546875 0.640625 -2.71875q0.65625 -1.1875 1.796875 -1.8125q1.15625 -0.640625 2.578125 -0.640625q1.921875 0 3.0 1.21875l0 -4.875l2.90625 0zm-5.40625 11.609375q1.09375 0 1.828125 -0.75q0.734375 -0.765625 0.734375 -2.03125q0 -1.265625 -0.734375 -2.015625q-0.734375 -0.765625 -1.828125 -0.765625q-1.125 0 -1.859375 0.765625q-0.71875 0.75 -0.71875 2.015625q0 1.265625 0.71875 2.03125q0.734375 0.75 1.859375 0.75zm13.580475 -10.828125l5.9374695 0q2.125 0 3.75 0.8125q1.640625 0.8125 2.546875 2.296875q0.90625 1.46875 0.90625 3.421875q0 1.953125 -0.90625 3.4375q-0.90625 1.4687519 -2.546875 2.281252q-1.625 0.8125 -3.75 0.8125l-5.9374695 0l0 -13.062502zm5.7812195 10.578125q1.96875 0 3.125 -1.09375q1.171875 -1.09375 1.171875 -2.953125q0 -1.859375 -1.171875 -2.953125q-1.15625 -1.09375 -3.125 -1.09375l-2.75 0l0 8.09375l2.75 0zm9.42569 -7.546875l2.90625 0l0 10.031252l-2.90625 0l0 -10.031252zm1.453125 -1.40625q-0.8125 0 -1.3125 -0.46875q-0.5 -0.46875 -0.5 -1.15625q0 -0.6875 0.5 -1.15625q0.5 -0.46875 1.3125 -0.46875q0.796875 0 1.296875 0.453125q0.515625 0.453125 0.515625 1.125q0 0.71875 -0.515625 1.203125q-0.5 0.46875 -1.296875 0.46875zm6.9436646 2.71875q0.515625 -0.71875 1.40625 -1.09375q0.890625 -0.375 2.046875 -0.375l0 2.6875q-0.484375 -0.03125 -0.65625 -0.03125q-1.25 0 -1.96875 0.703125q-0.703125 0.6875 -0.703125 2.09375l0 4.734377l-2.90625 0l0 -10.031252l2.78125 0l0 1.3125zm14.919739 3.734375q0 0.0625 -0.046875 0.78125l-7.59375 0q0.203125 0.9375 0.96875 1.484375q0.765625 0.53125 1.90625 0.53125q0.78125 0 1.375 -0.234375q0.609375 -0.234375 1.140625 -0.734375l1.546875 1.6875019q-1.421875 1.625 -4.140625 1.625q-1.703125 0 -3.015625 -0.65625q-1.296875 -0.671875 -2.015625 -1.8437519q-0.703125 -1.1875 -0.703125 -2.671875q0 -1.484375 0.703125 -2.65625q0.703125 -1.1875 1.921875 -1.84375q1.21875 -0.671875 2.734375 -0.671875q1.46875 0 2.65625 0.640625q1.203125 0.625 1.875 1.8125q0.6875 1.1875 0.6875 2.75zm-5.203125 -3.0q-0.984375 0 -1.65625 0.5625q-0.671875 0.5625 -0.828125 1.53125l4.953125 0q-0.15625 -0.953125 -0.828125 -1.515625q-0.671875 -0.578125 -1.640625 -0.578125zm11.990845 8.140627q-1.59375 0 -2.875 -0.65625q-1.28125 -0.671875 -2.0 -1.8437519q-0.71875 -1.1875 -0.71875 -2.671875q0 -1.5 0.71875 -2.671875q0.71875 -1.171875 2.0 -1.828125q1.28125 -0.671875 2.875 -0.671875q1.59375 0 2.78125 0.671875q1.1875 0.65625 1.71875 1.890625l-2.25 1.203125q-0.78125 -1.375 -2.265625 -1.375q-1.140625 0 -1.890625 0.75q-0.734375 0.734375 -0.734375 2.03125q0 1.28125 0.734375 2.03125q0.75 0.75 1.890625 0.75q1.5 0 2.265625 -1.390625l2.25 1.234375q-0.53125 1.2031269 -1.71875 1.8750019q-1.1875 0.671875 -2.78125 0.671875zm12.800171 -0.640625q-0.421875 0.3125 -1.046875 0.484375q-0.625 0.15625 -1.3125 0.15625q-1.796875 0 -2.78125 -0.90625q-0.96875 -0.921875 -0.96875 -2.703127l0 -4.125l-1.546875 0l0 -2.234375l1.546875 0l0 -2.4375l2.90625 0l0 2.4375l2.5 0l0 2.234375l-2.5 0l0 4.09375q0 0.625 0.328125 0.96875q0.328125 0.34375 0.921875 0.34375q0.6875 0 1.171875 -0.359375l0.78125 2.046877zm6.1106567 0.640625q-1.59375 0 -2.859375 -0.65625q-1.25 -0.671875 -1.96875 -1.8437519q-0.703125 -1.1875 -0.703125 -2.671875q0 -1.5 0.703125 -2.671875q0.71875 -1.171875 1.96875 -1.828125q1.265625 -0.671875 2.859375 -0.671875q1.578125 0 2.828125 0.671875q1.25 0.65625 1.953125 1.828125q0.71875 1.171875 0.71875 2.671875q0 1.484375 -0.71875 2.671875q-0.703125 1.1718769 -1.953125 1.8437519q-1.25 0.65625 -2.828125 0.65625zm0 -2.390627q1.109375 0 1.828125 -0.75q0.71875 -0.765625 0.71875 -2.03125q0 -1.265625 -0.71875 -2.015625q-0.71875 -0.765625 -1.828125 -0.765625q-1.125 0 -1.859375 0.765625q-0.71875 0.75 -0.71875 2.015625q0 1.265625 0.71875 2.03125q0.734375 0.75 1.859375 0.75zm10.219849 -6.484375q0.515625 -0.71875 1.40625 -1.09375q0.890625 -0.375 2.046875 -0.375l0 2.6875q-0.484375 -0.03125 -0.65625 -0.03125q-1.25 0 -1.96875 0.703125q-0.703125 0.6875 -0.703125 2.09375l0 4.734377l-2.90625 0l0 -10.031252l2.78125 0l0 1.3125zm15.508362 -1.3125l-4.546875 10.640627q-0.6875 1.734375 -1.703125 2.4375q-1.015625 0.71875 -2.453125 0.71875q-0.78125 0 -1.546875 -0.25q-0.765625 -0.234375 -1.25 -0.65625l1.0625 -2.078125q0.34375 0.296875 0.78125 0.46875q0.4375 0.171875 0.859375 0.171875q0.59375 0 0.96875 -0.296875q0.375 -0.28125 0.671875 -0.953125l0.046875 -0.09375l-4.359375 -10.109377l3.015625 0l2.8125 6.796875l2.828125 -6.796875l2.8125 0z" fill-rule="nonzero"/><path fill="#fff2cc" d="m308.7638 57.27034l348.8189 0l0 173.03937l-348.8189 0z" fill-rule="evenodd"/><path stroke="#ffe599" stroke-width="1.0" stroke-linejoin="round" stroke-linecap="butt" d="m308.7638 57.27034l348.8189 0l0 173.03937l-348.8189 0z" fill-rule="evenodd"/><path fill="#000000" fill-opacity="0.0" d="m383.40945 57.27034l193.5433 0l0 42.04725l-193.5433 0z" fill-rule="evenodd"/><path fill="#783f04" d="m422.1463 78.613464l0 4.296875l-2.8125 0l0 -4.328125l-4.703125 -7.796875l2.984375 0l3.25 5.390625l3.234375 -5.390625l2.75 0l-4.703125 7.828125zm9.095642 4.4375q-1.484375 0 -2.65625 -0.609375q-1.15625 -0.625 -1.828125 -1.71875q-0.65625 -1.09375 -0.65625 -2.46875q0 -1.390625 0.65625 -2.484375q0.671875 -1.09375 1.828125 -1.703125q1.171875 -0.625 2.65625 -0.625q1.46875 0 2.625 0.625q1.171875 0.609375 1.828125 1.703125q0.65625 1.09375 0.65625 2.484375q0 1.375 -0.65625 2.46875q-0.65625 1.09375 -1.828125 1.71875q-1.15625 0.609375 -2.625 0.609375zm0 -2.21875q1.03125 0 1.703125 -0.703125q0.671875 -0.703125 0.671875 -1.875q0 -1.1875 -0.671875 -1.890625q-0.671875 -0.703125 -1.703125 -0.703125q-1.046875 0 -1.71875 0.703125q-0.671875 0.703125 -0.671875 1.890625q0 1.171875 0.671875 1.875q0.671875 0.703125 1.71875 0.703125zm16.302979 -7.25l0 9.328125l-2.5625 0l0 -1.109375q-0.546875 0.609375 -1.296875 0.9375q-0.734375 0.3125 -1.59375 0.3125q-1.84375 0 -2.921875 -1.046875q-1.0625 -1.0625 -1.0625 -3.15625l0 -5.265625l2.703125 0l0 4.875q0 2.25 1.875 2.25q0.984375 0 1.5625 -0.625q0.59375 -0.640625 0.59375 -1.890625l0 -4.609375l2.703125 0zm5.091858 1.234375q0.484375 -0.671875 1.296875 -1.015625q0.828125 -0.359375 1.90625 -0.359375l0 2.5q-0.453125 -0.03125 -0.609375 -0.03125q-1.15625 0 -1.8125 0.65625q-0.65625 0.640625 -0.65625 1.9375l0 4.40625l-2.703125 0l0 -9.328125l2.578125 0l0 1.234375zm14.294067 8.234375q-1.484375 0 -2.671875 -0.609375q-1.1875 -0.625 -1.859375 -1.71875q-0.671875 -1.09375 -0.671875 -2.46875q0 -1.390625 0.671875 -2.484375q0.671875 -1.09375 1.859375 -1.703125q1.1875 -0.625 2.671875 -0.625q1.46875 0 2.5625 0.625q1.109375 0.609375 1.609375 1.75l-2.09375 1.140625q-0.71875 -1.296875 -2.09375 -1.296875q-1.0625 0 -1.75 0.703125q-0.6875 0.6875 -0.6875 1.890625q0 1.1875 0.6875 1.890625q0.6875 0.6875 1.75 0.6875q1.390625 0 2.09375 -1.28125l2.09375 1.140625q-0.5 1.109375 -1.609375 1.734375q-1.09375 0.625 -2.5625 0.625zm10.057037 0q-1.484375 0 -2.65625 -0.609375q-1.15625 -0.625 -1.828125 -1.71875q-0.65625 -1.09375 -0.65625 -2.46875q0 -1.390625 0.65625 -2.484375q0.671875 -1.09375 1.828125 -1.703125q1.171875 -0.625 2.65625 -0.625q1.46875 0 2.625 0.625q1.171875 0.609375 1.828125 1.703125q0.65625 1.09375 0.65625 2.484375q0 1.375 -0.65625 2.46875q-0.65625 1.09375 -1.828125 1.71875q-1.15625 0.609375 -2.625 0.609375zm0 -2.21875q1.03125 0 1.703125 -0.703125q0.671875 -0.703125 0.671875 -1.875q0 -1.1875 -0.671875 -1.890625q-0.671875 -0.703125 -1.703125 -0.703125q-1.046875 0 -1.71875 0.703125q-0.671875 0.703125 -0.671875 1.890625q0 1.171875 0.671875 1.875q0.671875 0.703125 1.71875 0.703125zm18.849854 -7.390625q1.75 0 2.78125 1.03125q1.03125 1.03125 1.03125 3.09375l0 5.34375l-2.703125 0l0 -4.921875q0 -1.109375 -0.46875 -1.65625q-0.453125 -0.546875 -1.296875 -0.546875q-0.953125 0 -1.515625 0.625q-0.546875 0.609375 -0.546875 1.828125l0 4.671875l-2.703125 0l0 -4.921875q0 -2.203125 -1.765625 -2.203125q-0.9375 0 -1.5 0.625q-0.546875 0.609375 -0.546875 1.828125l0 4.671875l-2.703125 0l0 -9.328125l2.578125 0l0 1.078125q0.515625 -0.59375 1.265625 -0.90625q0.765625 -0.3125 1.671875 -0.3125q0.984375 0 1.78125 0.390625q0.796875 0.390625 1.28125 1.140625q0.5625 -0.71875 1.4375 -1.125q0.875 -0.40625 1.921875 -0.40625zm11.7552185 0q1.296875 0 2.359375 0.609375q1.0625 0.59375 1.671875 1.6875q0.609375 1.078125 0.609375 2.515625q0 1.4375 -0.609375 2.515625q-0.609375 1.078125 -1.671875 1.6875q-1.0625 0.59375 -2.359375 0.59375q-1.796875 0 -2.8125 -1.125l0 4.34375l-2.703125 0l0 -12.6875l2.578125 0l0 1.078125q1.0 -1.21875 2.9375 -1.21875zm-0.46875 7.390625q1.03125 0 1.6875 -0.703125q0.671875 -0.703125 0.671875 -1.875q0 -1.1875 -0.671875 -1.890625q-0.65625 -0.703125 -1.6875 -0.703125q-1.046875 0 -1.71875 0.703125q-0.65625 0.703125 -0.65625 1.890625q0 1.171875 0.65625 1.875q0.671875 0.703125 1.71875 0.703125zm10.503418 -7.390625q2.171875 0 3.328125 1.03125q1.171875 1.03125 1.171875 3.125l0 5.3125l-2.53125 0l0 -1.15625q-0.765625 1.296875 -2.84375 1.296875q-1.078125 0 -1.875 -0.359375q-0.78125 -0.375 -1.203125 -1.015625q-0.40625 -0.640625 -0.40625 -1.453125q0 -1.296875 0.96875 -2.03125q0.984375 -0.75 3.03125 -0.75l2.15625 0q0 -0.890625 -0.546875 -1.359375q-0.53125 -0.484375 -1.609375 -0.484375q-0.734375 0 -1.46875 0.234375q-0.71875 0.234375 -1.21875 0.625l-0.96875 -1.875q0.765625 -0.546875 1.828125 -0.84375q1.0625 -0.296875 2.1875 -0.296875zm-0.203125 7.78125q0.703125 0 1.234375 -0.3125q0.53125 -0.328125 0.765625 -0.953125l0 -0.953125l-1.859375 0q-1.65625 0 -1.65625 1.09375q0 0.53125 0.40625 0.828125q0.40625 0.296875 1.109375 0.296875zm12.800781 -7.78125q1.734375 0 2.796875 1.046875q1.078125 1.046875 1.078125 3.078125l0 5.34375l-2.703125 0l0 -4.921875q0 -1.109375 -0.484375 -1.65625q-0.484375 -0.546875 -1.40625 -0.546875q-1.03125 0 -1.640625 0.640625q-0.59375 0.625 -0.59375 1.875l0 4.609375l-2.703125 0l0 -9.328125l2.578125 0l0 1.09375q0.53125 -0.578125 1.328125 -0.90625q0.796875 -0.328125 1.75 -0.328125zm15.394104 0.140625l-4.203125 9.90625q-0.640625 1.609375 -1.59375 2.265625q-0.9375 0.65625 -2.28125 0.65625q-0.71875 0 -1.4375 -0.234375q-0.703125 -0.21875 -1.15625 -0.609375l0.984375 -1.921875q0.3125 0.265625 0.71875 0.421875q0.40625 0.15625 0.8125 0.15625q0.546875 0 0.890625 -0.265625q0.359375 -0.265625 0.625 -0.890625l0.046875 -0.09375l-4.046875 -9.390625l2.796875 0l2.609375 6.328125l2.640625 -6.328125l2.59375 0z" fill-rule="nonzero"/><path fill="#ffe599" d="m330.59055 117.25722l145.19623 0l0 67.36485c-72.598114 0 -72.598114 25.667236 -145.19623 11.083572z" fill-rule="evenodd"/><path stroke="#ffd966" stroke-width="1.0" stroke-linejoin="round" stroke-linecap="butt" d="m330.59055 117.25722l145.19623 0l0 67.36485c-72.598114 0 -72.598114 25.667236 -145.19623 11.083572z" fill-rule="evenodd"/><path fill="#000000" fill-opacity="0.0" d="m330.59055 122.7664l145.19687 0l0 42.04724l-145.19687 0z" fill-rule="evenodd"/><path fill="#783f04" d="m343.70886 135.23828l4.234375 0q1.515625 0 2.6875 0.578125q1.171875 0.578125 1.8125 1.640625q0.640625 1.046875 0.640625 2.4375q0 1.40625 -0.640625 2.46875q-0.640625 1.046875 -1.8125 1.625q-1.171875 0.578125 -2.6875 0.578125l-4.234375 0l0 -9.328125zm4.125 7.5625q1.40625 0 2.234375 -0.78125q0.828125 -0.78125 0.828125 -2.125q0 -1.328125 -0.828125 -2.109375q-0.828125 -0.78125 -2.234375 -0.78125l-1.96875 0l0 5.796875l1.96875 0zm13.758972 -1.796875q0 0.046875 -0.046875 0.5625l-5.421875 0q0.15625 0.671875 0.703125 1.0625q0.546875 0.375 1.359375 0.375q0.546875 0 0.984375 -0.15625q0.4375 -0.171875 0.8125 -0.53125l1.109375 1.203125q-1.015625 1.15625 -2.96875 1.15625q-1.203125 0 -2.140625 -0.46875q-0.9375 -0.484375 -1.453125 -1.3125q-0.5 -0.84375 -0.5 -1.90625q0 -1.0625 0.5 -1.90625q0.5 -0.84375 1.375 -1.3125q0.875 -0.484375 1.953125 -0.484375q1.046875 0 1.90625 0.453125q0.859375 0.453125 1.34375 1.3125q0.484375 0.84375 0.484375 1.953125zm-3.71875 -2.140625q-0.703125 0 -1.1875 0.40625q-0.484375 0.390625 -0.578125 1.078125l3.53125 0q-0.109375 -0.671875 -0.59375 -1.078125q-0.484375 -0.40625 -1.171875 -0.40625zm7.378784 -1.3125l1.84375 0l0 1.609375l-1.78125 0l0 5.40625l-2.078125 0l0 -5.40625l-1.109375 0l0 -1.609375l1.109375 0l0 -0.3125q0 -1.234375 0.71875 -1.953125q0.734375 -0.71875 2.046875 -0.71875q0.46875 0 0.890625 0.109375q0.421875 0.09375 0.703125 0.28125l-0.546875 1.5q-0.359375 -0.25 -0.84375 -0.25q-0.953125 0 -0.953125 1.046875l0 0.296875zm5.6496277 -0.265625q1.65625 0 2.546875 0.796875q0.890625 0.796875 0.890625 2.390625l0 4.09375l-1.9375 0l0 -0.890625q-0.59375 1.0 -2.1875 1.0q-0.828125 0 -1.4375 -0.28125q-0.59375 -0.28125 -0.921875 -0.765625q-0.3125 -0.5 -0.3125 -1.125q0 -1.0 0.75 -1.578125q0.75 -0.578125 2.328125 -0.578125l1.640625 0q0 -0.671875 -0.421875 -1.03125q-0.40625 -0.375 -1.21875 -0.375q-0.578125 0 -1.140625 0.1875q-0.546875 0.171875 -0.9375 0.484375l-0.734375 -1.453125q0.578125 -0.421875 1.390625 -0.640625q0.828125 -0.234375 1.703125 -0.234375zm-0.171875 5.984375q0.53125 0 0.9375 -0.234375q0.421875 -0.25 0.59375 -0.734375l0 -0.734375l-1.421875 0q-1.28125 0 -1.28125 0.84375q0 0.390625 0.3125 0.625q0.3125 0.234375 0.859375 0.234375zm12.723419 -5.875l0 7.171875l-1.984375 0l0 -0.859375q-0.40625 0.46875 -0.984375 0.71875q-0.5625 0.25 -1.234375 0.25q-1.40625 0 -2.234375 -0.8125q-0.828125 -0.8125 -0.828125 -2.421875l0 -4.046875l2.078125 0l0 3.75q0 1.734375 1.453125 1.734375q0.75 0 1.203125 -0.484375q0.453125 -0.5 0.453125 -1.453125l0 -3.546875l2.078125 0zm1.9219971 -2.71875l2.078125 0l0 9.890625l-2.078125 0l0 -9.890625zm9.156769 9.546875q-0.296875 0.21875 -0.75 0.34375q-0.4375 0.109375 -0.9375 0.109375q-1.28125 0 -1.984375 -0.65625q-0.6875 -0.65625 -0.6875 -1.921875l0 -2.9375l-1.109375 0l0 -1.609375l1.109375 0l0 -1.734375l2.078125 0l0 1.734375l1.78125 0l0 1.609375l-1.78125 0l0 2.90625q0 0.453125 0.234375 0.703125q0.234375 0.25 0.65625 0.25q0.484375 0 0.84375 -0.265625l0.546875 1.46875zm5.1007996 -8.984375l4.234375 0q1.515625 0 2.6875 0.578125q1.171875 0.578125 1.8125 1.640625q0.640625 1.046875 0.640625 2.4375q0 1.40625 -0.640625 2.46875q-0.640625 1.046875 -1.8125 1.625q-1.171875 0.578125 -2.6875 0.578125l-4.234375 0l0 -9.328125zm4.125 7.5625q1.40625 0 2.234375 -0.78125q0.828125 -0.78125 0.828125 -2.125q0 -1.328125 -0.828125 -2.109375q-0.828125 -0.78125 -2.234375 -0.78125l-1.96875 0l0 5.796875l1.96875 0zm6.7277527 -5.40625l2.078125 0l0 7.171875l-2.078125 0l0 -7.171875zm1.046875 -1.0q-0.578125 0 -0.9375 -0.328125q-0.359375 -0.34375 -0.359375 -0.828125q0 -0.5 0.359375 -0.828125q0.359375 -0.328125 0.9375 -0.328125q0.578125 0 0.9375 0.328125q0.359375 0.3125 0.359375 0.78125q0 0.53125 -0.359375 0.875q-0.359375 0.328125 -0.9375 0.328125zm4.9648743 1.953125q0.359375 -0.53125 0.984375 -0.796875q0.640625 -0.265625 1.46875 -0.265625l0 1.921875q-0.34375 -0.03125 -0.46875 -0.03125q-0.890625 0 -1.40625 0.5q-0.5 0.5 -0.5 1.5l0 3.390625l-2.078125 0l0 -7.171875l2.0 0l0 0.953125zm10.65564 2.65625q0 0.046875 -0.046875 0.5625l-5.421875 0q0.15625 0.671875 0.703125 1.0625q0.546875 0.375 1.359375 0.375q0.546875 0 0.984375 -0.15625q0.4375 -0.171875 0.8125 -0.53125l1.109375 1.203125q-1.015625 1.15625 -2.96875 1.15625q-1.203125 0 -2.140625 -0.46875q-0.9375 -0.484375 -1.453125 -1.3125q-0.5 -0.84375 -0.5 -1.90625q0 -1.0625 0.5 -1.90625q0.5 -0.84375 1.375 -1.3125q0.875 -0.484375 1.953125 -0.484375q1.046875 0 1.90625 0.453125q0.859375 0.453125 1.34375 1.3125q0.484375 0.84375 0.484375 1.953125zm-3.71875 -2.140625q-0.703125 0 -1.1875 0.40625q-0.484375 0.390625 -0.578125 1.078125l3.53125 0q-0.109375 -0.671875 -0.59375 -1.078125q-0.484375 -0.40625 -1.171875 -0.40625zm8.566284 5.8125q-1.140625 0 -2.0625 -0.46875q-0.90625 -0.484375 -1.421875 -1.3125q-0.515625 -0.84375 -0.515625 -1.90625q0 -1.078125 0.515625 -1.90625q0.515625 -0.84375 1.421875 -1.3125q0.921875 -0.484375 2.0625 -0.484375q1.140625 0 1.984375 0.484375q0.84375 0.46875 1.234375 1.34375l-1.609375 0.875q-0.5625 -1.0 -1.625 -1.0q-0.8125 0 -1.34375 0.546875q-0.53125 0.53125 -0.53125 1.453125q0 0.90625 0.53125 1.453125q0.53125 0.53125 1.34375 0.53125q1.078125 0 1.625 -0.984375l1.609375 0.875q-0.390625 0.84375 -1.234375 1.328125q-0.84375 0.484375 -1.984375 0.484375zm9.139801 -0.453125q-0.296875 0.21875 -0.75 0.34375q-0.4375 0.109375 -0.9375 0.109375q-1.28125 0 -1.984375 -0.65625q-0.6875 -0.65625 -0.6875 -1.921875l0 -2.9375l-1.109375 0l0 -1.609375l1.109375 0l0 -1.734375l2.078125 0l0 1.734375l1.78125 0l0 1.609375l-1.78125 0l0 2.90625q0 0.453125 0.234375 0.703125q0.234375 0.25 0.65625 0.25q0.484375 0 0.84375 -0.265625l0.546875 1.46875zm4.36792 0.453125q-1.140625 0 -2.046875 -0.46875q-0.890625 -0.484375 -1.40625 -1.3125q-0.5 -0.84375 -0.5 -1.90625q0 -1.078125 0.5 -1.90625q0.515625 -0.84375 1.40625 -1.3125q0.90625 -0.484375 2.046875 -0.484375q1.125 0 2.015625 0.484375q0.90625 0.46875 1.40625 1.3125q0.5 0.828125 0.5 1.90625q0 1.0625 -0.5 1.90625q-0.5 0.828125 -1.40625 1.3125q-0.890625 0.46875 -2.015625 0.46875zm0 -1.703125q0.796875 0 1.3125 -0.53125q0.515625 -0.546875 0.515625 -1.453125q0 -0.90625 -0.515625 -1.453125q-0.515625 -0.546875 -1.3125 -0.546875q-0.796875 0 -1.328125 0.546875q-0.515625 0.546875 -0.515625 1.453125q0 0.90625 0.515625 1.453125q0.53125 0.53125 1.328125 0.53125zm7.308014 -4.625q0.359375 -0.53125 0.984375 -0.796875q0.640625 -0.265625 1.46875 -0.265625l0 1.921875q-0.34375 -0.03125 -0.46875 -0.03125q-0.890625 0 -1.40625 0.5q-0.5 0.5 -0.5 1.5l0 3.390625l-2.078125 0l0 -7.171875l2.0 0l0 0.953125zm11.069397 -0.953125l-3.234375 7.609375q-0.5 1.234375 -1.234375 1.734375q-0.71875 0.515625 -1.75 0.515625q-0.546875 0 -1.09375 -0.171875q-0.546875 -0.171875 -0.90625 -0.46875l0.765625 -1.484375q0.234375 0.203125 0.546875 0.328125q0.328125 0.125 0.625 0.125q0.421875 0 0.6875 -0.21875q0.28125 -0.203125 0.484375 -0.671875l0.03125 -0.078125l-3.109375 -7.21875l2.15625 0l2.0 4.859375l2.03125 -4.859375l2.0 0z" fill-rule="nonzero"/><path fill="#ffe599" d="m492.59055 117.25722l145.1962 0l0 67.36485c-72.59808 0 -72.59808 25.667236 -145.1962 11.083572z" fill-rule="evenodd"/><path stroke="#ffd966" stroke-width="1.0" stroke-linejoin="round" stroke-linecap="butt" d="m492.59055 117.25722l145.1962 0l0 67.36485c-72.59808 0 -72.59808 25.667236 -145.1962 11.083572z" fill-rule="evenodd"/><path fill="#000000" fill-opacity="0.0" d="m492.59055 122.7664l145.19687 0l0 42.04724l-145.19687 0z" fill-rule="evenodd"/><path fill="#783f04" d="m508.87805 144.72266q-1.109375 0 -2.140625 -0.296875q-1.03125 -0.296875 -1.65625 -0.78125l0.734375 -1.625q0.59375 0.4375 1.421875 0.703125q0.828125 0.265625 1.65625 0.265625q0.921875 0 1.359375 -0.265625q0.4375 -0.28125 0.4375 -0.734375q0 -0.328125 -0.265625 -0.546875q-0.25 -0.21875 -0.65625 -0.34375q-0.40625 -0.140625 -1.109375 -0.296875q-1.0625 -0.265625 -1.75 -0.515625q-0.671875 -0.25 -1.15625 -0.8125q-0.484375 -0.5625 -0.484375 -1.484375q0 -0.8125 0.4375 -1.46875q0.4375 -0.671875 1.328125 -1.046875q0.890625 -0.390625 2.15625 -0.390625q0.90625 0 1.75 0.21875q0.859375 0.203125 1.5 0.609375l-0.671875 1.625q-1.296875 -0.71875 -2.578125 -0.71875q-0.90625 0 -1.34375 0.296875q-0.4375 0.28125 -0.4375 0.765625q0 0.484375 0.5 0.71875q0.5 0.21875 1.53125 0.453125q1.0625 0.25 1.734375 0.5q0.6875 0.25 1.171875 0.796875q0.484375 0.546875 0.484375 1.484375q0 0.796875 -0.453125 1.46875q-0.4375 0.65625 -1.328125 1.046875q-0.890625 0.375 -2.171875 0.375zm12.315796 -3.71875q0 0.046875 -0.046875 0.5625l-5.421875 0q0.15625 0.671875 0.703125 1.0625q0.546875 0.375 1.359375 0.375q0.546875 0 0.984375 -0.15625q0.4375 -0.171875 0.8125 -0.53125l1.109375 1.203125q-1.015625 1.15625 -2.96875 1.15625q-1.203125 0 -2.140625 -0.46875q-0.9375 -0.484375 -1.453125 -1.3125q-0.5 -0.84375 -0.5 -1.90625q0 -1.0625 0.5 -1.90625q0.5 -0.84375 1.375 -1.3125q0.875 -0.484375 1.953125 -0.484375q1.046875 0 1.90625 0.453125q0.859375 0.453125 1.34375 1.3125q0.484375 0.84375 0.484375 1.953125zm-3.71875 -2.140625q-0.703125 0 -1.1875 0.40625q-0.484375 0.390625 -0.578125 1.078125l3.53125 0q-0.109375 -0.671875 -0.59375 -1.078125q-0.484375 -0.40625 -1.171875 -0.40625zm8.566284 5.8125q-1.140625 0 -2.0625 -0.46875q-0.90625 -0.484375 -1.421875 -1.3125q-0.515625 -0.84375 -0.515625 -1.90625q0 -1.078125 0.515625 -1.90625q0.515625 -0.84375 1.421875 -1.3125q0.921875 -0.484375 2.0625 -0.484375q1.140625 0 1.984375 0.484375q0.84375 0.46875 1.234375 1.34375l-1.609375 0.875q-0.5625 -1.0 -1.625 -1.0q-0.8125 0 -1.34375 0.546875q-0.53125 0.53125 -0.53125 1.453125q0 0.90625 0.53125 1.453125q0.53125 0.53125 1.34375 0.53125q1.078125 0 1.625 -0.984375l1.609375 0.875q-0.390625 0.84375 -1.234375 1.328125q-0.84375 0.484375 -1.984375 0.484375zm7.7366943 0q-1.140625 0 -2.046875 -0.46875q-0.890625 -0.484375 -1.40625 -1.3125q-0.5 -0.84375 -0.5 -1.90625q0 -1.078125 0.5 -1.90625q0.515625 -0.84375 1.40625 -1.3125q0.90625 -0.484375 2.046875 -0.484375q1.125 0 2.015625 0.484375q0.90625 0.46875 1.40625 1.3125q0.5 0.828125 0.5 1.90625q0 1.0625 -0.5 1.90625q-0.5 0.828125 -1.40625 1.3125q-0.890625 0.46875 -2.015625 0.46875zm0 -1.703125q0.796875 0 1.3125 -0.53125q0.515625 -0.546875 0.515625 -1.453125q0 -0.90625 -0.515625 -1.453125q-0.515625 -0.546875 -1.3125 -0.546875q-0.796875 0 -1.328125 0.546875q-0.515625 0.546875 -0.515625 1.453125q0 0.90625 0.515625 1.453125q0.53125 0.53125 1.328125 0.53125zm9.667358 -5.6875q1.34375 0 2.15625 0.8125q0.828125 0.796875 0.828125 2.359375l0 4.109375l-2.09375 0l0 -3.78125q0 -0.859375 -0.375 -1.28125q-0.359375 -0.421875 -1.0625 -0.421875q-0.796875 0 -1.265625 0.5q-0.46875 0.484375 -0.46875 1.4375l0 3.546875l-2.078125 0l0 -7.171875l2.0 0l0 0.84375q0.40625 -0.453125 1.015625 -0.703125q0.609375 -0.25 1.34375 -0.25zm12.242859 -2.609375l0 9.890625l-1.984375 0l0 -0.828125q-0.78125 0.9375 -2.25 0.9375q-1.0 0 -1.828125 -0.453125q-0.8125 -0.453125 -1.28125 -1.296875q-0.46875 -0.84375 -0.46875 -1.9375q0 -1.109375 0.46875 -1.953125q0.46875 -0.84375 1.28125 -1.296875q0.828125 -0.453125 1.828125 -0.453125q1.375 0 2.15625 0.875l0 -3.484375l2.078125 0zm-3.875 8.296875q0.796875 0 1.3125 -0.53125q0.515625 -0.546875 0.515625 -1.453125q0 -0.90625 -0.515625 -1.453125q-0.515625 -0.546875 -1.3125 -0.546875q-0.796875 0 -1.3125 0.546875q-0.515625 0.546875 -0.515625 1.453125q0 0.90625 0.515625 1.453125q0.515625 0.53125 1.3125 0.53125zm9.713623 -7.734375l4.234375 0q1.515625 0 2.6875 0.578125q1.171875 0.578125 1.8125 1.640625q0.640625 1.046875 0.640625 2.4375q0 1.40625 -0.640625 2.46875q-0.640625 1.046875 -1.8125 1.625q-1.171875 0.578125 -2.6875 0.578125l-4.234375 0l0 -9.328125zm4.125 7.5625q1.40625 0 2.234375 -0.78125q0.828125 -0.78125 0.828125 -2.125q0 -1.328125 -0.828125 -2.109375q-0.828125 -0.78125 -2.234375 -0.78125l-1.96875 0l0 5.796875l1.96875 0zm6.727722 -5.40625l2.078125 0l0 7.171875l-2.078125 0l0 -7.171875zm1.046875 -1.0q-0.578125 0 -0.9375 -0.328125q-0.359375 -0.34375 -0.359375 -0.828125q0 -0.5 0.359375 -0.828125q0.359375 -0.328125 0.9375 -0.328125q0.578125 0 0.9375 0.328125q0.359375 0.3125 0.359375 0.78125q0 0.53125 -0.359375 0.875q-0.359375 0.328125 -0.9375 0.328125zm4.964905 1.953125q0.359375 -0.53125 0.984375 -0.796875q0.640625 -0.265625 1.46875 -0.265625l0 1.921875q-0.34375 -0.03125 -0.46875 -0.03125q-0.890625 0 -1.40625 0.5q-0.5 0.5 -0.5 1.5l0 3.390625l-2.078125 0l0 -7.171875l2.0 0l0 0.953125zm10.65564 2.65625q0 0.046875 -0.046875 0.5625l-5.421875 0q0.15625 0.671875 0.703125 1.0625q0.546875 0.375 1.359375 0.375q0.546875 0 0.984375 -0.15625q0.4375 -0.171875 0.8125 -0.53125l1.109375 1.203125q-1.015625 1.15625 -2.96875 1.15625q-1.203125 0 -2.140625 -0.46875q-0.9375 -0.484375 -1.453125 -1.3125q-0.5 -0.84375 -0.5 -1.90625q0 -1.0625 0.5 -1.90625q0.5 -0.84375 1.375 -1.3125q0.875 -0.484375 1.953125 -0.484375q1.046875 0 1.90625 0.453125q0.859375 0.453125 1.34375 1.3125q0.484375 0.84375 0.484375 1.953125zm-3.71875 -2.140625q-0.703125 0 -1.1875 0.40625q-0.484375 0.390625 -0.578125 1.078125l3.53125 0q-0.109375 -0.671875 -0.59375 -1.078125q-0.484375 -0.40625 -1.171875 -0.40625zm8.566284 5.8125q-1.140625 0 -2.0625 -0.46875q-0.90625 -0.484375 -1.421875 -1.3125q-0.515625 -0.84375 -0.515625 -1.90625q0 -1.078125 0.515625 -1.90625q0.515625 -0.84375 1.421875 -1.3125q0.921875 -0.484375 2.0625 -0.484375q1.140625 0 1.984375 0.484375q0.84375 0.46875 1.234375 1.34375l-1.609375 0.875q-0.5625 -1.0 -1.625 -1.0q-0.8125 0 -1.34375 0.546875q-0.53125 0.53125 -0.53125 1.453125q0 0.90625 0.53125 1.453125q0.53125 0.53125 1.34375 0.53125q1.078125 0 1.625 -0.984375l1.609375 0.875q-0.390625 0.84375 -1.234375 1.328125q-0.84375 0.484375 -1.984375 0.484375zm9.1397705 -0.453125q-0.296875 0.21875 -0.75 0.34375q-0.4375 0.109375 -0.9375 0.109375q-1.28125 0 -1.984375 -0.65625q-0.6875 -0.65625 -0.6875 -1.921875l0 -2.9375l-1.109375 0l0 -1.609375l1.109375 0l0 -1.734375l2.078125 0l0 1.734375l1.78125 0l0 1.609375l-1.78125 0l0 2.90625q0 0.453125 0.234375 0.703125q0.234375 0.25 0.65625 0.25q0.484375 0 0.84375 -0.265625l0.546875 1.46875zm4.36792 0.453125q-1.140625 0 -2.046875 -0.46875q-0.890625 -0.484375 -1.40625 -1.3125q-0.5 -0.84375 -0.5 -1.90625q0 -1.078125 0.5 -1.90625q0.515625 -0.84375 1.40625 -1.3125q0.90625 -0.484375 2.046875 -0.484375q1.125 0 2.015625 0.484375q0.90625 0.46875 1.40625 1.3125q0.5 0.828125 0.5 1.90625q0 1.0625 -0.5 1.90625q-0.5 0.828125 -1.40625 1.3125q-0.890625 0.46875 -2.015625 0.46875zm0 -1.703125q0.796875 0 1.3125 -0.53125q0.515625 -0.546875 0.515625 -1.453125q0 -0.90625 -0.515625 -1.453125q-0.515625 -0.546875 -1.3125 -0.546875q-0.796875 0 -1.328125 0.546875q-0.515625 0.546875 -0.515625 1.453125q0 0.90625 0.515625 1.453125q0.53125 0.53125 1.328125 0.53125zm7.3080444 -4.625q0.359375 -0.53125 0.984375 -0.796875q0.640625 -0.265625 1.46875 -0.265625l0 1.921875q-0.34375 -0.03125 -0.46875 -0.03125q-0.890625 0 -1.40625 0.5q-0.5 0.5 -0.5 1.5l0 3.390625l-2.078125 0l0 -7.171875l2.0 0l0 0.953125zm11.069397 -0.953125l-3.234375 7.609375q-0.5 1.234375 -1.234375 1.734375q-0.71875 0.515625 -1.75 0.515625q-0.546875 0 -1.09375 -0.171875q-0.546875 -0.171875 -0.90625 -0.46875l0.765625 -1.484375q0.234375 0.203125 0.546875 0.328125q0.328125 0.125 0.625 0.125q0.421875 0 0.6875 -0.21875q0.28125 -0.203125 0.484375 -0.671875l0.03125 -0.078125l-3.109375 -7.21875l2.15625 0l2.0 4.859375l2.03125 -4.859375l2.0 0z" fill-rule="nonzero"/><path fill="#f3f3f3" d="m181.1181 314.4357l597.7638 0l0 198.55118l-597.7638 0z" fill-rule="evenodd"/><path stroke="#efefef" stroke-width="1.0" stroke-linejoin="round" stroke-linecap="butt" d="m181.1181 314.4357l597.7638 0l0 198.55118l-597.7638 0z" fill-rule="evenodd"/><path fill="#fff2cc" d="m202.25055 355.8399l0 0c0 -12.237488 9.920441 -22.157928 22.157928 -22.157928l203.81012 0c5.876648 0 11.512604 2.3345032 15.66803 6.489929c4.155426 4.1553955 6.4898987 9.791351 6.4898987 15.667999l0 88.62903c0 12.237488 -9.920441 22.157928 -22.157928 22.157928l-203.81012 0c-12.237488 0 -22.157928 -9.920441 -22.157928 -22.157928z" fill-rule="evenodd"/><path stroke="#f9cb9c" stroke-width="1.0" stroke-linejoin="round" stroke-linecap="butt" d="m202.25055 355.8399l0 0c0 -12.237488 9.920441 -22.157928 22.157928 -22.157928l203.81012 0c5.876648 0 11.512604 2.3345032 15.66803 6.489929c4.155426 4.1553955 6.4898987 9.791351 6.4898987 15.667999l0 88.62903c0 12.237488 -9.920441 22.157928 -22.157928 22.157928l-203.81012 0c-12.237488 0 -22.157928 -9.920441 -22.157928 -22.157928z" fill-rule="evenodd"/><path fill="#000000" fill-opacity="0.0" d="m203.81725 346.12585l245.00789 0l0 67.46457l-245.00789 0z" fill-rule="evenodd"/><path fill="#660000" d="m243.42142 383.9915l2.765625 0l0 5.296875q-1.0625 0.796875 -2.46875 1.234375q-1.40625 0.421875 -2.8125 0.421875q-2.03125 0 -3.65625 -0.859375q-1.625 -0.875 -2.546875 -2.40625q-0.921875 -1.546875 -0.921875 -3.484375q0 -1.9375 0.921875 -3.46875q0.921875 -1.546875 2.5625 -2.40625q1.640625 -0.875 3.6875 -0.875q1.71875 0 3.109375 0.578125q1.40625 0.578125 2.359375 1.671875l-1.9375 1.796875q-1.40625 -1.46875 -3.375 -1.46875q-1.25 0 -2.21875 0.53125q-0.96875 0.515625 -1.515625 1.46875q-0.546875 0.9375 -0.546875 2.171875q0 1.21875 0.546875 2.171875q0.546875 0.9375 1.5 1.484375q0.96875 0.53125 2.1875 0.53125q1.3125 0 2.359375 -0.5625l0 -3.828125zm10.133972 6.890625q-1.59375 0 -2.859375 -0.65625q-1.25 -0.671875 -1.96875 -1.84375q-0.703125 -1.1875 -0.703125 -2.671875q0 -1.5 0.703125 -2.671875q0.71875 -1.171875 1.96875 -1.828125q1.265625 -0.671875 2.859375 -0.671875q1.578125 0 2.828125 0.671875q1.25 0.65625 1.953125 1.828125q0.71875 1.171875 0.71875 2.671875q0 1.484375 -0.71875 2.671875q-0.703125 1.171875 -1.953125 1.84375q-1.25 0.65625 -2.828125 0.65625zm0 -2.390625q1.109375 0 1.828125 -0.75q0.71875 -0.765625 0.71875 -2.03125q0 -1.265625 -0.71875 -2.015625q-0.71875 -0.765625 -1.828125 -0.765625q-1.125 0 -1.859375 0.765625q-0.71875 0.75 -0.71875 2.015625q0 1.265625 0.71875 2.03125q0.734375 0.75 1.859375 0.75zm12.219849 2.390625q-1.59375 0 -2.859375 -0.65625q-1.25 -0.671875 -1.96875 -1.84375q-0.703125 -1.1875 -0.703125 -2.671875q0 -1.5 0.703125 -2.671875q0.71875 -1.171875 1.96875 -1.828125q1.265625 -0.671875 2.859375 -0.671875q1.578125 0 2.828125 0.671875q1.25 0.65625 1.953125 1.828125q0.71875 1.171875 0.71875 2.671875q0 1.484375 -0.71875 2.671875q-0.703125 1.171875 -1.953125 1.84375q-1.25 0.65625 -2.828125 0.65625zm0 -2.390625q1.109375 0 1.828125 -0.75q0.71875 -0.765625 0.71875 -2.03125q0 -1.265625 -0.71875 -2.015625q-0.71875 -0.765625 -1.828125 -0.765625q-1.125 0 -1.859375 0.765625q-0.71875 0.75 -0.71875 2.015625q0 1.265625 0.71875 2.03125q0.734375 0.75 1.859375 0.75zm17.797974 -7.796875l0 8.359375q0 2.75 -1.4375 4.09375q-1.4375 1.34375 -4.203125 1.34375q-1.453125 0 -2.765625 -0.359375q-1.296875 -0.34375 -2.15625 -1.015625l1.15625 -2.09375q0.625 0.53125 1.59375 0.828125q0.984375 0.3125 1.953125 0.3125q1.5 0 2.21875 -0.6875q0.71875 -0.671875 0.71875 -2.0625l0 -0.421875q-1.125 1.25 -3.171875 1.25q-1.375 0 -2.53125 -0.609375q-1.140625 -0.609375 -1.8125 -1.703125q-0.671875 -1.109375 -0.671875 -2.53125q0 -1.4375 0.671875 -2.53125q0.671875 -1.109375 1.8125 -1.71875q1.15625 -0.609375 2.53125 -0.609375q2.1875 0 3.328125 1.4375l0 -1.28125l2.765625 0zm-5.515625 7.15625q1.15625 0 1.890625 -0.671875q0.75 -0.6875 0.75 -1.78125q0 -1.109375 -0.75 -1.78125q-0.734375 -0.6875 -1.890625 -0.6875q-1.15625 0 -1.90625 0.6875q-0.734375 0.671875 -0.734375 1.78125q0 1.09375 0.734375 1.78125q0.75 0.671875 1.90625 0.671875zm8.215607 -10.96875l2.90625 0l0 13.84375l-2.90625 0l0 -13.84375zm15.443665 8.859375q0 0.0625 -0.046875 0.78125l-7.59375 0q0.203125 0.9375 0.96875 1.484375q0.765625 0.53125 1.90625 0.53125q0.78125 0 1.375 -0.234375q0.609375 -0.234375 1.140625 -0.734375l1.546875 1.6875q-1.421875 1.625 -4.140625 1.625q-1.703125 0 -3.015625 -0.65625q-1.296875 -0.671875 -2.015625 -1.84375q-0.703125 -1.1875 -0.703125 -2.671875q0 -1.484375 0.703125 -2.65625q0.703125 -1.1875 1.921875 -1.84375q1.21875 -0.671875 2.734375 -0.671875q1.46875 0 2.65625 0.640625q1.203125 0.625 1.875 1.8125q0.6875 1.1875 0.6875 2.75zm-5.203125 -3.0q-0.984375 0 -1.65625 0.5625q-0.671875 0.5625 -0.828125 1.53125l4.953125 0q-0.15625 -0.953125 -0.828125 -1.515625q-0.671875 -0.578125 -1.640625 -0.578125z" fill-rule="nonzero"/><path fill="#660000" d="m331.14203 377.66336l-4.265625 13.0625l-3.25 0l-2.875 -8.84375l-2.96875 8.84375l-3.21875 0l-4.296875 -13.0625l3.140625 0l2.953125 9.1875l3.078125 -9.1875l2.796875 0l2.984375 9.25l3.03125 -9.25l2.890625 0zm5.5143127 13.21875q-1.59375 0 -2.859375 -0.65625q-1.25 -0.671875 -1.96875 -1.84375q-0.7031555 -1.1875 -0.7031555 -2.671875q0 -1.5 0.7031555 -2.671875q0.71875 -1.171875 1.96875 -1.828125q1.265625 -0.671875 2.859375 -0.671875q1.578125 0 2.828125 0.671875q1.25 0.65625 1.953125 1.828125q0.71875 1.171875 0.71875 2.671875q0 1.484375 -0.71875 2.671875q-0.703125 1.171875 -1.953125 1.84375q-1.25 0.65625 -2.828125 0.65625zm0 -2.390625q1.109375 0 1.828125 -0.75q0.71875 -0.765625 0.71875 -2.03125q0 -1.265625 -0.71875 -2.015625q-0.71875 -0.765625 -1.828125 -0.765625q-1.125 0 -1.859375 0.765625q-0.71875 0.75 -0.71875 2.015625q0 1.265625 0.71875 2.03125q0.734375 0.75 1.859375 0.75zm10.219849 -6.484375q0.515625 -0.71875 1.40625 -1.09375q0.890625 -0.375 2.046875 -0.375l0 2.6875q-0.484375 -0.03125 -0.65625 -0.03125q-1.25 0 -1.96875 0.703125q-0.703125 0.6875 -0.703125 2.09375l0 4.734375l-2.90625 0l0 -10.03125l2.78125 0l0 1.3125zm9.497437 4.78125l-1.40625 1.375l0 2.5625l-2.90625 0l0 -13.84375l2.90625 0l0 7.84375l4.25 -4.03125l3.484375 0l-4.1875 4.25l4.546875 5.78125l-3.515625 0l-3.171875 -3.9375zm11.039612 4.09375q-1.25 0 -2.453125 -0.3125q-1.1875 -0.3125 -1.890625 -0.78125l0.96875 -2.078125q0.671875 0.421875 1.625 0.703125q0.953125 0.265625 1.859375 0.265625q1.84375 0 1.84375 -0.921875q0 -0.421875 -0.5 -0.609375q-0.5 -0.1875 -1.546875 -0.328125q-1.234375 -0.171875 -2.03125 -0.421875q-0.796875 -0.25 -1.390625 -0.859375q-0.59375 -0.609375 -0.59375 -1.75q0 -0.953125 0.546875 -1.6875q0.5625 -0.734375 1.609375 -1.140625q1.0625 -0.421875 2.5 -0.421875q1.0625 0 2.109375 0.234375q1.0625 0.234375 1.75 0.640625l-0.96875 2.078125q-1.328125 -0.75 -2.890625 -0.75q-0.9375 0 -1.40625 0.265625q-0.46875 0.25 -0.46875 0.671875q0 0.46875 0.5 0.65625q0.515625 0.171875 1.609375 0.34375q1.234375 0.203125 2.015625 0.4375q0.78125 0.234375 1.359375 0.859375q0.578125 0.609375 0.578125 1.703125q0 0.9375 -0.5625 1.671875q-0.546875 0.71875 -1.625 1.125q-1.078125 0.40625 -2.546875 0.40625zm12.468964 -10.34375q1.390625 0 2.53125 0.640625q1.15625 0.640625 1.8125 1.8125q0.65625 1.171875 0.65625 2.71875q0 1.546875 -0.65625 2.71875q-0.65625 1.15625 -1.8125 1.8125q-1.140625 0.640625 -2.53125 0.640625q-1.921875 0 -3.03125 -1.21875l0 4.6875l-2.90625 0l0 -13.65625l2.78125 0l0 1.15625q1.078125 -1.3125 3.15625 -1.3125zm-0.515625 7.953125q1.125 0 1.84375 -0.75q0.71875 -0.765625 0.71875 -2.03125q0 -1.265625 -0.71875 -2.015625q-0.71875 -0.765625 -1.84375 -0.765625q-1.109375 0 -1.828125 0.765625q-0.71875 0.75 -0.71875 2.015625q0 1.265625 0.71875 2.03125q0.71875 0.75 1.828125 0.75zm11.329834 -7.953125q2.328125 0 3.578125 1.109375q1.25 1.109375 1.25 3.34375l0 5.734375l-2.71875 0l0 -1.25q-0.828125 1.40625 -3.0625 1.40625q-1.15625 0 -2.015625 -0.390625q-0.84375 -0.40625 -1.296875 -1.09375q-0.4375 -0.6875 -0.4375 -1.5625q0 -1.40625 1.046875 -2.203125q1.0625 -0.796875 3.265625 -0.796875l2.3125 0q0 -0.953125 -0.578125 -1.46875q-0.578125 -0.515625 -1.734375 -0.515625q-0.796875 0 -1.578125 0.25q-0.765625 0.25 -1.3125 0.6875l-1.046875 -2.03125q0.828125 -0.578125 1.96875 -0.890625q1.140625 -0.328125 2.359375 -0.328125zm-0.21875 8.375q0.734375 0 1.3125 -0.34375q0.59375 -0.34375 0.828125 -1.015625l0 -1.03125l-2.0 0q-1.78125 0 -1.78125 1.1875q0 0.546875 0.4375 0.875q0.4375 0.328125 1.203125 0.328125zm12.638519 1.96875q-1.59375 0 -2.875 -0.65625q-1.28125 -0.671875 -2.0 -1.84375q-0.71875 -1.1875 -0.71875 -2.671875q0 -1.5 0.71875 -2.671875q0.71875 -1.171875 2.0 -1.828125q1.28125 -0.671875 2.875 -0.671875q1.59375 0 2.78125 0.671875q1.1875 0.65625 1.71875 1.890625l-2.25 1.203125q-0.78125 -1.375 -2.265625 -1.375q-1.140625 0 -1.890625 0.75q-0.734375 0.734375 -0.734375 2.03125q0 1.28125 0.734375 2.03125q0.75 0.75 1.890625 0.75q1.5 0 2.265625 -1.390625l2.25 1.234375q-0.53125 1.203125 -1.71875 1.875q-1.1875 0.671875 -2.78125 0.671875zm15.879578 -5.140625q0 0.0625 -0.046875 0.78125l-7.59375 0q0.203125 0.9375 0.96875 1.484375q0.765625 0.53125 1.90625 0.53125q0.78125 0 1.375 -0.234375q0.609375 -0.234375 1.140625 -0.734375l1.546875 1.6875q-1.421875 1.625 -4.140625 1.625q-1.703125 0 -3.015625 -0.65625q-1.296875 -0.671875 -2.015625 -1.84375q-0.703125 -1.1875 -0.703125 -2.671875q0 -1.484375 0.703125 -2.65625q0.703125 -1.1875 1.921875 -1.84375q1.21875 -0.671875 2.734375 -0.671875q1.46875 0 2.65625 0.640625q1.203125 0.625 1.875 1.8125q0.6875 1.1875 0.6875 2.75zm-5.203125 -3.0q-0.984375 0 -1.65625 0.5625q-0.671875 0.5625 -0.828125 1.53125l4.953125 0q-0.15625 -0.953125 -0.828125 -1.515625q-0.671875 -0.578125 -1.640625 -0.578125z" fill-rule="nonzero"/><path fill="#660000" d="m313.2661 404.6565l0 9.109375l-1.171875 0l0 -1.65625q-0.484375 0.828125 -1.34375 1.296875q-0.84375 0.453125 -1.9375 0.453125q-1.78125 0 -2.8125 -1.0q-1.03125 -1.0 -1.03125 -2.921875l0 -5.28125l1.234375 0l0 5.15625q0 1.4375 0.703125 2.1875q0.71875 0.75 2.03125 0.75q1.4375 0 2.265625 -0.875q0.84375 -0.875 0.84375 -2.4375l0 -4.78125l1.21875 0zm5.8961487 9.203125q-1.109375 0 -2.125 -0.3125q-1.015625 -0.328125 -1.578125 -0.828125l0.546875 -0.96875q0.578125 0.453125 1.4375 0.75q0.875 0.28125 1.8125 0.28125q1.25 0 1.84375 -0.390625q0.59375 -0.390625 0.59375 -1.109375q0 -0.5 -0.328125 -0.78125q-0.328125 -0.28125 -0.828125 -0.421875q-0.5 -0.15625 -1.34375 -0.296875q-1.109375 -0.203125 -1.78125 -0.421875q-0.671875 -0.21875 -1.15625 -0.734375q-0.46875 -0.53125 -0.46875 -1.4375q0 -1.15625 0.953125 -1.875q0.953125 -0.734375 2.65625 -0.734375q0.875 0 1.75 0.234375q0.890625 0.234375 1.46875 0.625l-0.546875 0.984375q-1.125 -0.78125 -2.671875 -0.78125q-1.1875 0 -1.78125 0.421875q-0.59375 0.40625 -0.59375 1.078125q0 0.53125 0.328125 0.84375q0.34375 0.3125 0.84375 0.453125q0.5 0.140625 1.390625 0.296875q1.09375 0.21875 1.75 0.421875q0.65625 0.203125 1.125 0.71875q0.46875 0.5 0.46875 1.375q0 1.203125 -1.0 1.90625q-1.0 0.703125 -2.765625 0.703125zm13.973389 -4.265625l-7.625 0q0.09375 1.421875 1.078125 2.296875q1.0 0.875 2.5 0.875q0.859375 0 1.5625 -0.296875q0.71875 -0.3125 1.234375 -0.90625l0.6875 0.796875q-0.609375 0.734375 -1.515625 1.125q-0.90625 0.375 -2.0 0.375q-1.40625 0 -2.484375 -0.59375q-1.078125 -0.609375 -1.6875 -1.65625q-0.609375 -1.0625 -0.609375 -2.40625q0 -1.328125 0.578125 -2.375q0.578125 -1.0625 1.59375 -1.65625q1.015625 -0.59375 2.28125 -0.59375q1.265625 0 2.265625 0.59375q1.015625 0.59375 1.578125 1.640625q0.578125 1.046875 0.578125 2.390625l-0.015625 0.390625zm-4.40625 -3.953125q-1.3125 0 -2.203125 0.84375q-0.890625 0.828125 -1.015625 2.1875l6.453125 0q-0.109375 -1.359375 -1.015625 -2.1875q-0.890625 -0.84375 -2.21875 -0.84375zm8.1067505 0.796875q0.4375 -0.921875 1.296875 -1.390625q0.859375 -0.46875 2.125 -0.46875l0 1.203125l-0.296875 -0.015625q-1.4375 0 -2.25 0.890625q-0.8125 0.875 -0.8125 2.46875l0 4.640625l-1.234375 0l0 -9.109375l1.171875 0l0 1.78125zm8.144836 7.421875q-1.109375 0 -2.125 -0.3125q-1.015625 -0.328125 -1.578125 -0.828125l0.546875 -0.96875q0.578125 0.453125 1.4375 0.75q0.875 0.28125 1.8125 0.28125q1.25 0 1.84375 -0.390625q0.59375 -0.390625 0.59375 -1.109375q0 -0.5 -0.328125 -0.78125q-0.328125 -0.28125 -0.828125 -0.421875q-0.5 -0.15625 -1.34375 -0.296875q-1.109375 -0.203125 -1.78125 -0.421875q-0.671875 -0.21875 -1.15625 -0.734375q-0.46875 -0.53125 -0.46875 -1.4375q0 -1.15625 0.953125 -1.875q0.953125 -0.734375 2.65625 -0.734375q0.875 0 1.75 0.234375q0.890625 0.234375 1.46875 0.625l-0.546875 0.984375q-1.125 -0.78125 -2.671875 -0.78125q-1.1875 0 -1.78125 0.421875q-0.59375 0.40625 -0.59375 1.078125q0 0.53125 0.328125 0.84375q0.34375 0.3125 0.84375 0.453125q0.5 0.140625 1.390625 0.296875q1.09375 0.21875 1.75 0.421875q0.65625 0.203125 1.125 0.71875q0.46875 0.5 0.46875 1.375q0 1.203125 -1.0 1.90625q-1.0 0.703125 -2.765625 0.703125z" fill-rule="nonzero"/><path fill="#b6d7a8" d="m242.9035 438.5473l0 0c0 -4.2612 3.4544067 -7.7156067 7.715622 -7.7156067l0 0c2.0463104 0 4.0088196 0.8128967 5.455765 2.2598572c1.4469604 1.4469604 2.2598572 3.4094543 2.2598572 5.4557495l0 0c0 4.2612305 -3.4543915 7.715637 -7.715622 7.715637l0 0c-4.261215 0 -7.715622 -3.4544067 -7.715622 -7.715637z" fill-rule="evenodd"/><path stroke="#93c47d" stroke-width="1.0" stroke-linejoin="round" stroke-linecap="butt" d="m242.9035 438.5473l0 0c0 -4.2612 3.4544067 -7.7156067 7.715622 -7.7156067l0 0c2.0463104 0 4.0088196 0.8128967 5.455765 2.2598572c1.4469604 1.4469604 2.2598572 3.4094543 2.2598572 5.4557495l0 0c0 4.2612305 -3.4543915 7.715637 -7.715622 7.715637l0 0c-4.261215 0 -7.715622 -3.4544067 -7.715622 -7.715637z" fill-rule="evenodd"/><path fill="#b6d7a8" d="m237.30121 458.28494l0 -5.22348l0 0c0 -2.8848572 5.9626465 -5.2235107 13.317917 -5.2235107c7.355301 0 13.317917 2.3386536 13.317917 5.2235107l0 5.22348z" fill-rule="evenodd"/><path stroke="#93c47d" stroke-width="1.0" stroke-linejoin="round" stroke-linecap="butt" d="m237.30121 458.28494l0 -5.22348l0 0c0 -2.8848572 5.9626465 -5.2235107 13.317917 -5.2235107c7.355301 0 13.317917 2.3386536 13.317917 5.2235107l0 5.22348z" fill-rule="evenodd"/><path fill="#b6d7a8" d="m273.2875 438.5473l0 0c0 -4.2612 3.4544067 -7.7156067 7.715637 -7.7156067l0 0c2.0462952 0 4.008789 0.8128967 5.4557495 2.2598572c1.4469604 1.4469604 2.2598572 3.4094543 2.2598572 5.4557495l0 0c0 4.2612305 -3.4544067 7.715637 -7.7156067 7.715637l0 0c-4.2612305 0 -7.715637 -3.4544067 -7.715637 -7.715637z" fill-rule="evenodd"/><path stroke="#93c47d" stroke-width="1.0" stroke-linejoin="round" stroke-linecap="butt" d="m273.2875 438.5473l0 0c0 -4.2612 3.4544067 -7.7156067 7.715637 -7.7156067l0 0c2.0462952 0 4.008789 0.8128967 5.4557495 2.2598572c1.4469604 1.4469604 2.2598572 3.4094543 2.2598572 5.4557495l0 0c0 4.2612305 -3.4544067 7.715637 -7.7156067 7.715637l0 0c-4.2612305 0 -7.715637 -3.4544067 -7.715637 -7.715637z" fill-rule="evenodd"/><path fill="#b6d7a8" d="m267.6852 458.28494l0 -5.22348l0 0c0 -2.8848572 5.9626465 -5.2235107 13.317932 -5.2235107c7.3552856 0 13.317902 2.3386536 13.317902 5.2235107l0 5.22348z" fill-rule="evenodd"/><path stroke="#93c47d" stroke-width="1.0" stroke-linejoin="round" stroke-linecap="butt" d="m267.6852 458.28494l0 -5.22348l0 0c0 -2.8848572 5.9626465 -5.2235107 13.317932 -5.2235107c7.3552856 0 13.317902 2.3386536 13.317902 5.2235107l0 5.22348z" fill-rule="evenodd"/><path fill="#b6d7a8" d="m303.6715 438.5473l0 0c0 -4.2612 3.4544067 -7.7156067 7.715637 -7.7156067l0 0c2.0462952 0 4.008789 0.8128967 5.4557495 2.2598572c1.4469604 1.4469604 2.2598572 3.4094543 2.2598572 5.4557495l0 0c0 4.2612305 -3.4544067 7.715637 -7.7156067 7.715637l0 0c-4.2612305 0 -7.715637 -3.4544067 -7.715637 -7.715637z" fill-rule="evenodd"/><path stroke="#93c47d" stroke-width="1.0" stroke-linejoin="round" stroke-linecap="butt" d="m303.6715 438.5473l0 0c0 -4.2612 3.4544067 -7.7156067 7.715637 -7.7156067l0 0c2.0462952 0 4.008789 0.8128967 5.4557495 2.2598572c1.4469604 1.4469604 2.2598572 3.4094543 2.2598572 5.4557495l0 0c0 4.2612305 -3.4544067 7.715637 -7.7156067 7.715637l0 0c-4.2612305 0 -7.715637 -3.4544067 -7.715637 -7.715637z" fill-rule="evenodd"/><path fill="#b6d7a8" d="m298.0692 458.28494l0 -5.22348l0 0c0 -2.8848572 5.9626465 -5.2235107 13.317932 -5.2235107c7.3552856 0 13.317902 2.3386536 13.317902 5.2235107l0 5.22348z" fill-rule="evenodd"/><path stroke="#93c47d" stroke-width="1.0" stroke-linejoin="round" stroke-linecap="butt" d="m298.0692 458.28494l0 -5.22348l0 0c0 -2.8848572 5.9626465 -5.2235107 13.317932 -5.2235107c7.3552856 0 13.317902 2.3386536 13.317902 5.2235107l0 5.22348z" fill-rule="evenodd"/><path fill="#b6d7a8" d="m333.58035 438.5473l0 0c0 -4.2612 3.4544067 -7.7156067 7.7156067 -7.7156067l0 0c2.0463257 0 4.0088196 0.8128967 5.45578 2.2598572c1.4469604 1.4469604 2.2598572 3.4094543 2.2598572 5.4557495l0 0c0 4.2612305 -3.4544067 7.715637 -7.715637 7.715637l0 0c-4.2612 0 -7.7156067 -3.4544067 -7.7156067 -7.715637z" fill-rule="evenodd"/><path stroke="#93c47d" stroke-width="1.0" stroke-linejoin="round" stroke-linecap="butt" d="m333.58035 438.5473l0 0c0 -4.2612 3.4544067 -7.7156067 7.7156067 -7.7156067l0 0c2.0463257 0 4.0088196 0.8128967 5.45578 2.2598572c1.4469604 1.4469604 2.2598572 3.4094543 2.2598572 5.4557495l0 0c0 4.2612305 -3.4544067 7.715637 -7.715637 7.715637l0 0c-4.2612 0 -7.7156067 -3.4544067 -7.7156067 -7.715637z" fill-rule="evenodd"/><path fill="#b6d7a8" d="m327.97806 458.28494l0 -5.22348l0 0c0 -2.8848572 5.962616 -5.2235107 13.317902 -5.2235107c7.3552856 0 13.317932 2.3386536 13.317932 5.2235107l0 5.22348z" fill-rule="evenodd"/><path stroke="#93c47d" stroke-width="1.0" stroke-linejoin="round" stroke-linecap="butt" d="m327.97806 458.28494l0 -5.22348l0 0c0 -2.8848572 5.962616 -5.2235107 13.317902 -5.2235107c7.3552856 0 13.317932 2.3386536 13.317932 5.2235107l0 5.22348z" fill-rule="evenodd"/><path fill="#b6d7a8" d="m363.96436 438.5473l0 0c0 -4.2612 3.4544067 -7.7156067 7.7156067 -7.7156067l0 0c2.0463257 0 4.0088196 0.8128967 5.45578 2.2598572c1.4469604 1.4469604 2.2598572 3.4094543 2.2598572 5.4557495l0 0c0 4.2612305 -3.4544067 7.715637 -7.715637 7.715637l0 0c-4.2612 0 -7.7156067 -3.4544067 -7.7156067 -7.715637z" fill-rule="evenodd"/><path stroke="#93c47d" stroke-width="1.0" stroke-linejoin="round" stroke-linecap="butt" d="m363.96436 438.5473l0 0c0 -4.2612 3.4544067 -7.7156067 7.7156067 -7.7156067l0 0c2.0463257 0 4.0088196 0.8128967 5.45578 2.2598572c1.4469604 1.4469604 2.2598572 3.4094543 2.2598572 5.4557495l0 0c0 4.2612305 -3.4544067 7.715637 -7.715637 7.715637l0 0c-4.2612 0 -7.7156067 -3.4544067 -7.7156067 -7.715637z" fill-rule="evenodd"/><path fill="#b6d7a8" d="m358.36206 458.28494l0 -5.22348l0 0c0 -2.8848572 5.962616 -5.2235107 13.317902 -5.2235107c7.3552856 0 13.317932 2.3386536 13.317932 5.2235107l0 5.22348z" fill-rule="evenodd"/><path stroke="#93c47d" stroke-width="1.0" stroke-linejoin="round" stroke-linecap="butt" d="m358.36206 458.28494l0 -5.22348l0 0c0 -2.8848572 5.962616 -5.2235107 13.317902 -5.2235107c7.3552856 0 13.317932 2.3386536 13.317932 5.2235107l0 5.22348z" fill-rule="evenodd"/><path fill="#b6d7a8" d="m394.34836 438.5473l0 0c0 -4.2612 3.4543762 -7.7156067 7.7156067 -7.7156067l0 0c2.0463257 0 4.0088196 0.8128967 5.45578 2.2598572c1.4469604 1.4469604 2.2598572 3.4094543 2.2598572 5.4557495l0 0c0 4.2612305 -3.4544067 7.715637 -7.715637 7.715637l0 0c-4.2612305 0 -7.7156067 -3.4544067 -7.7156067 -7.715637z" fill-rule="evenodd"/><path stroke="#93c47d" stroke-width="1.0" stroke-linejoin="round" stroke-linecap="butt" d="m394.34836 438.5473l0 0c0 -4.2612 3.4543762 -7.7156067 7.7156067 -7.7156067l0 0c2.0463257 0 4.0088196 0.8128967 5.45578 2.2598572c1.4469604 1.4469604 2.2598572 3.4094543 2.2598572 5.4557495l0 0c0 4.2612305 -3.4544067 7.715637 -7.715637 7.715637l0 0c-4.2612305 0 -7.7156067 -3.4544067 -7.7156067 -7.715637z" fill-rule="evenodd"/><path fill="#b6d7a8" d="m388.74603 458.28494l0 -5.22348l0 0c0 -2.8848572 5.9626465 -5.2235107 13.317932 -5.2235107c7.3552856 0 13.317932 2.3386536 13.317932 5.2235107l0 5.22348z" fill-rule="evenodd"/><path stroke="#93c47d" stroke-width="1.0" stroke-linejoin="round" stroke-linecap="butt" d="m388.74603 458.28494l0 -5.22348l0 0c0 -2.8848572 5.9626465 -5.2235107 13.317932 -5.2235107c7.3552856 0 13.317932 2.3386536 13.317932 5.2235107l0 5.22348z" fill-rule="evenodd"/><path fill="#cfe2f3" d="m511.04456 355.8399l0 0c0 -12.237488 9.92041 -22.157928 22.157898 -22.157928l203.81018 0c5.876587 0 11.512573 2.3345032 15.667969 6.489929c4.1554565 4.1553955 6.489929 9.791351 6.489929 15.667999l0 88.62903c0 12.237488 -9.920471 22.157928 -22.157898 22.157928l-203.81018 0c-12.237488 0 -22.157898 -9.920441 -22.157898 -22.157928z" fill-rule="evenodd"/><path stroke="#9fc5e8" stroke-width="1.0" stroke-linejoin="round" stroke-linecap="butt" d="m511.04456 355.8399l0 0c0 -12.237488 9.92041 -22.157928 22.157898 -22.157928l203.81018 0c5.876587 0 11.512573 2.3345032 15.667969 6.489929c4.1554565 4.1553955 6.489929 9.791351 6.489929 15.667999l0 88.62903c0 12.237488 -9.920471 22.157928 -22.157898 22.157928l-203.81018 0c-12.237488 0 -22.157898 -9.920441 -22.157898 -22.157928z" fill-rule="evenodd"/><path fill="#000000" fill-opacity="0.0" d="m353.10236 430.3473l258.45667 0l0 80.566956l-258.45667 0z" fill-rule="evenodd"/><path fill="#434343" d="m425.6228 493.58325l0 4.1875l-1.265625 0l0 -4.1875l-4.859375 -7.9375l1.375 0l4.15625 6.8125l4.15625 -6.8125l1.28125 0l-4.84375 7.9375zm9.260162 4.28125q-1.3125 0 -2.375 -0.59375q-1.046875 -0.609375 -1.65625 -1.65625q-0.609375 -1.0625 -0.609375 -2.40625q0 -1.328125 0.609375 -2.375q0.609375 -1.0625 1.65625 -1.65625q1.0625 -0.59375 2.375 -0.59375q1.328125 0 2.375 0.59375q1.0625 0.59375 1.65625 1.65625q0.59375 1.046875 0.59375 2.375q0 1.34375 -0.59375 2.40625q-0.59375 1.046875 -1.65625 1.65625q-1.046875 0.59375 -2.375 0.59375zm0 -1.09375q0.96875 0 1.734375 -0.4375q0.78125 -0.453125 1.203125 -1.265625q0.4375 -0.8125 0.4375 -1.859375q0 -1.03125 -0.4375 -1.84375q-0.421875 -0.8125 -1.203125 -1.25q-0.765625 -0.453125 -1.734375 -0.453125q-0.96875 0 -1.75 0.453125q-0.765625 0.4375 -1.203125 1.25q-0.4375 0.8125 -0.4375 1.84375q0 1.046875 0.4375 1.859375q0.4375 0.8125 1.203125 1.265625q0.78125 0.4375 1.75 0.4375zm15.34906 -8.109375l0 9.109375l-1.171875 0l0 -1.65625q-0.484375 0.828125 -1.34375 1.296875q-0.84375 0.453125 -1.9375 0.453125q-1.78125 0 -2.8125 -1.0q-1.03125 -1.0 -1.03125 -2.921875l0 -5.28125l1.234375 0l0 5.15625q0 1.4375 0.703125 2.1875q0.71875 0.75 2.03125 0.75q1.4375 0 2.265625 -0.875q0.84375 -0.875 0.84375 -2.4375l0 -4.78125l1.21875 0zm4.630493 1.78125q0.4375 -0.921875 1.296875 -1.390625q0.859375 -0.46875 2.125 -0.46875l0 1.203125l-0.296875 -0.015625q-1.4375 0 -2.25 0.890625q-0.8125 0.875 -0.8125 2.46875l0 4.640625l-1.234375 0l0 -9.109375l1.171875 0l0 1.78125zm14.09787 7.421875q-1.359375 0 -2.421875 -0.59375q-1.0625 -0.59375 -1.671875 -1.65625q-0.609375 -1.0625 -0.609375 -2.40625q0 -1.328125 0.609375 -2.375q0.609375 -1.0625 1.671875 -1.65625q1.0625 -0.59375 2.421875 -0.59375q1.171875 0 2.09375 0.46875q0.9375 0.453125 1.46875 1.34375l-0.921875 0.609375q-0.453125 -0.671875 -1.140625 -1.0q-0.6875 -0.34375 -1.5 -0.34375q-1.0 0 -1.796875 0.453125q-0.78125 0.4375 -1.21875 1.25q-0.4375 0.8125 -0.4375 1.84375q0 1.0625 0.4375 1.875q0.4375 0.796875 1.21875 1.25q0.796875 0.4375 1.796875 0.4375q0.8125 0 1.5 -0.328125q0.6875 -0.328125 1.140625 -1.015625l0.921875 0.625q-0.53125 0.890625 -1.46875 1.359375q-0.9375 0.453125 -2.09375 0.453125zm9.53717 0q-1.3125 0 -2.375 -0.59375q-1.046875 -0.609375 -1.65625 -1.65625q-0.609375 -1.0625 -0.609375 -2.40625q0 -1.328125 0.609375 -2.375q0.609375 -1.0625 1.65625 -1.65625q1.0625 -0.59375 2.375 -0.59375q1.328125 0 2.375 0.59375q1.0625 0.59375 1.65625 1.65625q0.59375 1.046875 0.59375 2.375q0 1.34375 -0.59375 2.40625q-0.59375 1.046875 -1.65625 1.65625q-1.046875 0.59375 -2.375 0.59375zm0 -1.09375q0.96875 0 1.734375 -0.4375q0.78125 -0.453125 1.203125 -1.265625q0.4375 -0.8125 0.4375 -1.859375q0 -1.03125 -0.4375 -1.84375q-0.421875 -0.8125 -1.203125 -1.25q-0.765625 -0.453125 -1.734375 -0.453125q-0.96875 0 -1.75 0.453125q-0.765625 0.4375 -1.203125 1.25q-0.4375 0.8125 -0.4375 1.84375q0 1.046875 0.4375 1.859375q0.4375 0.8125 1.203125 1.265625q0.78125 0.4375 1.75 0.4375zm18.50528 -8.1875q1.71875 0 2.6875 1.0q0.984375 0.984375 0.984375 2.90625l0 5.28125l-1.21875 0l0 -5.15625q0 -1.421875 -0.6875 -2.171875q-0.6875 -0.75 -1.9375 -0.75q-1.421875 0 -2.234375 0.875q-0.8125 0.875 -0.8125 2.421875l0 4.78125l-1.234375 0l0 -5.15625q0 -1.421875 -0.6875 -2.171875q-0.671875 -0.75 -1.9375 -0.75q-1.40625 0 -2.234375 0.875q-0.8125 0.875 -0.8125 2.421875l0 4.78125l-1.234375 0l0 -9.109375l1.171875 0l0 1.65625q0.484375 -0.828125 1.34375 -1.28125q0.875 -0.453125 2.0 -0.453125q1.140625 0 1.984375 0.484375q0.84375 0.484375 1.265625 1.4375q0.5 -0.890625 1.4375 -1.40625q0.953125 -0.515625 2.15625 -0.515625zm11.713165 0q1.28125 0 2.3125 0.59375q1.046875 0.578125 1.640625 1.640625q0.59375 1.046875 0.59375 2.390625q0 1.375 -0.59375 2.4375q-0.59375 1.046875 -1.625 1.640625q-1.015625 0.578125 -2.328125 0.578125q-1.109375 0 -2.0 -0.453125q-0.890625 -0.46875 -1.453125 -1.359375l0 5.078125l-1.234375 0l0 -12.46875l1.171875 0l0 1.796875q0.5625 -0.90625 1.46875 -1.390625q0.90625 -0.484375 2.046875 -0.484375zm-0.078125 8.1875q0.953125 0 1.734375 -0.4375q0.78125 -0.453125 1.21875 -1.265625q0.4375 -0.8125 0.4375 -1.859375q0 -1.03125 -0.4375 -1.828125q-0.4375 -0.8125 -1.21875 -1.265625q-0.78125 -0.453125 -1.734375 -0.453125q-0.96875 0 -1.75 0.453125q-0.765625 0.453125 -1.21875 1.265625q-0.4375 0.796875 -0.4375 1.828125q0 1.046875 0.4375 1.859375q0.453125 0.8125 1.21875 1.265625q0.78125 0.4375 1.75 0.4375zm10.274536 -8.1875q1.78125 0 2.734375 0.890625q0.953125 0.890625 0.953125 2.640625l0 5.65625l-1.171875 0l0 -1.421875q-0.421875 0.71875 -1.234375 1.125q-0.796875 0.390625 -1.90625 0.390625q-1.53125 0 -2.4375 -0.734375q-0.890625 -0.734375 -0.890625 -1.921875q0 -1.15625 0.84375 -1.859375q0.84375 -0.71875 2.671875 -0.71875l2.890625 0l0 -0.5625q0 -1.171875 -0.65625 -1.78125q-0.65625 -0.625 -1.921875 -0.625q-0.859375 0 -1.65625 0.296875q-0.796875 0.28125 -1.375 0.78125l-0.546875 -0.921875q0.6875 -0.59375 1.65625 -0.90625q0.96875 -0.328125 2.046875 -0.328125zm-0.4375 8.296875q1.046875 0 1.78125 -0.46875q0.75 -0.484375 1.109375 -1.375l0 -1.5l-2.859375 0q-2.328125 0 -2.328125 1.640625q0 0.796875 0.59375 1.25q0.609375 0.453125 1.703125 0.453125zm12.114136 -8.296875q1.71875 0 2.734375 1.0q1.015625 1.0 1.015625 2.90625l0 5.28125l-1.234375 0l0 -5.15625q0 -1.421875 -0.71875 -2.171875q-0.703125 -0.75 -2.015625 -0.75q-1.484375 0 -2.34375 0.875q-0.84375 0.875 -0.84375 2.421875l0 4.78125l-1.234375 0l0 -9.109375l1.171875 0l0 1.671875q0.5 -0.828125 1.390625 -1.28125q0.90625 -0.46875 2.078125 -0.46875zm14.573364 0.078125l-4.5625 10.203125q-0.546875 1.28125 -1.28125 1.8125q-0.71875 0.546875 -1.75 0.546875q-0.65625 0 -1.234375 -0.21875q-0.5625 -0.203125 -0.984375 -0.625l0.578125 -0.90625q0.6875 0.6875 1.65625 0.6875q0.625 0 1.0625 -0.34375q0.453125 -0.34375 0.828125 -1.1875l0.40625 -0.875l-4.078125 -9.09375l1.28125 0l3.4375 7.734375l3.421875 -7.734375l1.21875 0z" fill-rule="nonzero"/><path fill="#000000" fill-opacity="0.0" d="m512.6034 351.9234l245.00787 0l0 67.46457l-245.00787 0z" fill-rule="evenodd"/><path fill="#073763" d="m550.26373 388.8434l-0.03125 -7.828125l-3.828125 6.453125l-1.375 0l-3.8125 -6.296875l0 7.671875l-2.84375 0l0 -13.0625l2.5 0l4.890625 8.125l4.8125 -8.125l2.484375 0l0.03125 13.0625l-2.828125 0zm5.7229614 -10.03125l2.90625 0l0 10.03125l-2.90625 0l0 -10.03125zm1.453125 -1.40625q-0.8125 0 -1.3125 -0.46875q-0.5 -0.46875 -0.5 -1.15625q0 -0.6875 0.5 -1.15625q0.5 -0.46875 1.3125 -0.46875q0.796875 0 1.296875 0.453125q0.515625 0.453125 0.515625 1.125q0 0.71875 -0.515625 1.203125q-0.5 0.46875 -1.296875 0.46875zm9.006165 11.59375q-1.59375 0 -2.875 -0.65625q-1.28125 -0.671875 -2.0 -1.84375q-0.71875 -1.1875 -0.71875 -2.671875q0 -1.5 0.71875 -2.671875q0.71875 -1.171875 2.0 -1.828125q1.28125 -0.671875 2.875 -0.671875q1.59375 0 2.78125 0.671875q1.1875 0.65625 1.71875 1.890625l-2.25 1.203125q-0.78125 -1.375 -2.265625 -1.375q-1.140625 0 -1.890625 0.75q-0.734375 0.734375 -0.734375 2.03125q0 1.28125 0.734375 2.03125q0.75 0.75 1.890625 0.75q1.5 0 2.265625 -1.390625l2.25 1.234375q-0.53125 1.203125 -1.71875 1.875q-1.1875 0.671875 -2.78125 0.671875zm8.963379 -8.875q0.515625 -0.71875 1.40625 -1.09375q0.890625 -0.375 2.046875 -0.375l0 2.6875q-0.484375 -0.03125 -0.65625 -0.03125q-1.25 0 -1.96875 0.703125q-0.703125 0.6875 -0.703125 2.09375l0 4.734375l-2.90625 0l0 -10.03125l2.78125 0l0 1.3125zm9.872803 8.875q-1.59375 0 -2.859375 -0.65625q-1.25 -0.671875 -1.96875 -1.84375q-0.703125 -1.1875 -0.703125 -2.671875q0 -1.5 0.703125 -2.671875q0.71875 -1.171875 1.96875 -1.828125q1.265625 -0.671875 2.859375 -0.671875q1.578125 0 2.828125 0.671875q1.25 0.65625 1.953125 1.828125q0.71875 1.171875 0.71875 2.671875q0 1.484375 -0.71875 2.671875q-0.703125 1.171875 -1.953125 1.84375q-1.25 0.65625 -2.828125 0.65625zm0 -2.390625q1.109375 0 1.828125 -0.75q0.71875 -0.765625 0.71875 -2.03125q0 -1.265625 -0.71875 -2.015625q-0.71875 -0.765625 -1.828125 -0.765625q-1.125 0 -1.859375 0.765625q-0.71875 0.75 -0.71875 2.015625q0 1.265625 0.71875 2.03125q0.734375 0.75 1.859375 0.75zm10.813599 2.390625q-1.25 0 -2.453125 -0.3125q-1.1875 -0.3125 -1.890625 -0.78125l0.96875 -2.078125q0.671875 0.421875 1.625 0.703125q0.953125 0.265625 1.859375 0.265625q1.84375 0 1.84375 -0.921875q0 -0.421875 -0.5 -0.609375q-0.5 -0.1875 -1.546875 -0.328125q-1.234375 -0.171875 -2.03125 -0.421875q-0.796875 -0.25 -1.390625 -0.859375q-0.59375 -0.609375 -0.59375 -1.75q0 -0.953125 0.546875 -1.6875q0.5625 -0.734375 1.609375 -1.140625q1.0625 -0.421875 2.5 -0.421875q1.0625 0 2.109375 0.234375q1.0625 0.234375 1.75 0.640625l-0.96875 2.078125q-1.328125 -0.75 -2.890625 -0.75q-0.9375 0 -1.40625 0.265625q-0.46875 0.25 -0.46875 0.671875q0 0.46875 0.5 0.65625q0.515625 0.171875 1.609375 0.34375q1.234375 0.203125 2.015625 0.4375q0.78125 0.234375 1.359375 0.859375q0.578125 0.609375 0.578125 1.703125q0 0.9375 -0.5625 1.671875q-0.546875 0.71875 -1.625 1.125q-1.078125 0.40625 -2.546875 0.40625zm11.312744 0q-1.59375 0 -2.859375 -0.65625q-1.25 -0.671875 -1.96875 -1.84375q-0.703125 -1.1875 -0.703125 -2.671875q0 -1.5 0.703125 -2.671875q0.71875 -1.171875 1.96875 -1.828125q1.265625 -0.671875 2.859375 -0.671875q1.578125 0 2.828125 0.671875q1.25 0.65625 1.953125 1.828125q0.71875 1.171875 0.71875 2.671875q0 1.484375 -0.71875 2.671875q-0.703125 1.171875 -1.953125 1.84375q-1.25 0.65625 -2.828125 0.65625zm0 -2.390625q1.109375 0 1.828125 -0.75q0.71875 -0.765625 0.71875 -2.03125q0 -1.265625 -0.71875 -2.015625q-0.71875 -0.765625 -1.828125 -0.765625q-1.125 0 -1.859375 0.765625q-0.71875 0.75 -0.71875 2.015625q0 1.265625 0.71875 2.03125q0.734375 0.75 1.859375 0.75zm10.626099 -7.578125l2.578125 0l0 2.234375l-2.5 0l0 7.578125l-2.90625 0l0 -7.578125l-1.546875 0l0 -2.234375l1.546875 0l0 -0.453125q0 -1.71875 1.015625 -2.71875q1.015625 -1.015625 2.859375 -1.015625q0.65625 0 1.234375 0.140625q0.59375 0.140625 0.984375 0.40625l-0.765625 2.109375q-0.5 -0.359375 -1.171875 -0.359375q-1.328125 0 -1.328125 1.453125l0 0.4375zm10.501221 9.328125q-0.421875 0.3125 -1.046875 0.484375q-0.625 0.15625 -1.3125 0.15625q-1.796875 0 -2.78125 -0.90625q-0.96875 -0.921875 -0.96875 -2.703125l0 -4.125l-1.546875 0l0 -2.234375l1.546875 0l0 -2.4375l2.90625 0l0 2.4375l2.5 0l0 2.234375l-2.5 0l0 4.09375q0 0.625 0.328125 0.96875q0.328125 0.34375 0.921875 0.34375q0.6875 0 1.171875 -0.359375l0.78125 2.046875zm13.457703 0.703125q-2.03125 0 -3.671875 -0.875q-1.625 -0.875 -2.546875 -2.40625q-0.921875 -1.546875 -0.921875 -3.46875q0 -1.921875 0.921875 -3.453125q0.921875 -1.546875 2.546875 -2.421875q1.640625 -0.875 3.671875 -0.875q2.03125 0 3.65625 0.875q1.625 0.875 2.546875 2.421875q0.9375 1.53125 0.9375 3.453125q0 1.921875 -0.9375 3.46875q-0.921875 1.53125 -2.546875 2.40625q-1.625 0.875 -3.65625 0.875zm0 -2.5625q1.15625 0 2.078125 -0.53125q0.9375 -0.546875 1.46875 -1.484375q0.53125 -0.953125 0.53125 -2.171875q0 -1.21875 -0.53125 -2.15625q-0.53125 -0.953125 -1.46875 -1.484375q-0.921875 -0.53125 -2.078125 -0.53125q-1.15625 0 -2.09375 0.53125q-0.9375 0.53125 -1.46875 1.484375q-0.53125 0.9375 -0.53125 2.15625q0 1.21875 0.53125 2.171875q0.53125 0.9375 1.46875 1.484375q0.9375 0.53125 2.09375 0.53125zm12.4021 -7.46875l2.578125 0l0 2.234375l-2.5 0l0 7.578125l-2.90625 0l0 -7.578125l-1.546875 0l0 -2.234375l1.546875 0l0 -0.453125q0 -1.71875 1.015625 -2.71875q1.015625 -1.015625 2.859375 -1.015625q0.65625 0 1.234375 0.140625q0.59375 0.140625 0.984375 0.40625l-0.765625 2.109375q-0.5 -0.359375 -1.171875 -0.359375q-1.328125 0 -1.328125 1.453125l0 0.4375zm7.2199707 0l2.578125 0l0 2.234375l-2.5 0l0 7.578125l-2.90625 0l0 -7.578125l-1.546875 0l0 -2.234375l1.546875 0l0 -0.453125q0 -1.71875 1.015625 -2.71875q1.015625 -1.015625 2.859375 -1.015625q0.65625 0 1.234375 0.140625q0.59375 0.140625 0.984375 0.40625l-0.765625 2.109375q-0.5 -0.359375 -1.171875 -0.359375q-1.328125 0 -1.328125 1.453125l0 0.4375zm5.53125 -0.21875l2.90625 0l0 10.03125l-2.90625 0l0 -10.03125zm1.453125 -1.40625q-0.8125 0 -1.3125 -0.46875q-0.5 -0.46875 -0.5 -1.15625q0 -0.6875 0.5 -1.15625q0.5 -0.46875 1.3125 -0.46875q0.796875 0 1.296875 0.453125q0.515625 0.453125 0.515625 1.125q0 0.71875 -0.515625 1.203125q-0.5 0.46875 -1.296875 0.46875zm8.999878 11.59375q-1.59375 0 -2.875 -0.65625q-1.28125 -0.671875 -2.0 -1.84375q-0.71875 -1.1875 -0.71875 -2.671875q0 -1.5 0.71875 -2.671875q0.71875 -1.171875 2.0 -1.828125q1.28125 -0.671875 2.875 -0.671875q1.59375 0 2.78125 0.671875q1.1875 0.65625 1.71875 1.890625l-2.25 1.203125q-0.78125 -1.375 -2.265625 -1.375q-1.140625 0 -1.890625 0.75q-0.734375 0.734375 -0.734375 2.03125q0 1.28125 0.734375 2.03125q0.75 0.75 1.890625 0.75q1.5 0 2.265625 -1.390625l2.25 1.234375q-0.53125 1.203125 -1.71875 1.875q-1.1875 0.671875 -2.78125 0.671875zm15.879578 -5.140625q0 0.0625 -0.046875 0.78125l-7.59375 0q0.203125 0.9375 0.96875 1.484375q0.765625 0.53125 1.90625 0.53125q0.78125 0 1.375 -0.234375q0.609375 -0.234375 1.140625 -0.734375l1.546875 1.6875q-1.421875 1.625 -4.140625 1.625q-1.703125 0 -3.015625 -0.65625q-1.296875 -0.671875 -2.015625 -1.84375q-0.703125 -1.1875 -0.703125 -2.671875q0 -1.484375 0.703125 -2.65625q0.703125 -1.1875 1.921875 -1.84375q1.21875 -0.671875 2.734375 -0.671875q1.46875 0 2.65625 0.640625q1.203125 0.625 1.875 1.8125q0.6875 1.1875 0.6875 2.75zm-5.203125 -3.0q-0.984375 0 -1.65625 0.5625q-0.671875 0.5625 -0.828125 1.53125l4.953125 0q-0.15625 -0.953125 -0.828125 -1.515625q-0.671875 -0.578125 -1.640625 -0.578125zm17.911194 0.234375q1.71875 0.28125 2.625 1.28125q0.921875 1.0 0.921875 2.46875q0 1.140625 -0.609375 2.109375q-0.59375 0.953125 -1.8125 1.53125q-1.21875 0.578125 -2.984375 0.578125q-1.390625 0 -2.71875 -0.359375q-1.328125 -0.359375 -2.265625 -1.03125l1.171875 -2.3125q0.75 0.5625 1.71875 0.875q0.984375 0.296875 2.015625 0.296875q1.140625 0 1.78125 -0.4375q0.65625 -0.4375 0.65625 -1.25q0 -1.59375 -2.4375 -1.59375l-1.390625 0l0 -2.0l2.6875 -3.046875l-5.546875 0l0 -2.421875l9.140625 0l0 1.96875l-2.953125 3.34375zm11.231995 -0.4375q1.25 0 2.265625 0.5q1.03125 0.5 1.625 1.4375q0.609375 0.921875 0.609375 2.125q0 1.3125 -0.65625 2.296875q-0.65625 0.984375 -1.78125 1.515625q-1.125 0.53125 -2.515625 0.53125q-2.734375 0 -4.28125 -1.671875q-1.546875 -1.6875 -1.546875 -4.796875q0 -2.21875 0.828125 -3.796875q0.84375 -1.59375 2.34375 -2.40625q1.5 -0.828125 3.484375 -0.828125q1.046875 0 2.0 0.234375q0.96875 0.234375 1.640625 0.65625l-1.125 2.21875q-0.96875 -0.65625 -2.4375 -0.65625q-1.671875 0 -2.640625 0.984375q-0.96875 0.96875 -1.046875 2.8125q1.15625 -1.15625 3.234375 -1.15625zm-0.609375 6.15625q0.96875 0 1.5625 -0.515625q0.609375 -0.53125 0.609375 -1.421875q0 -0.90625 -0.609375 -1.4375q-0.59375 -0.53125 -1.609375 -0.53125q-0.984375 0 -1.625 0.5625q-0.625 0.546875 -0.625 1.40625q0 0.859375 0.609375 1.40625q0.609375 0.53125 1.6875 0.53125zm10.680908 -6.125q2.765625 0 4.078125 1.109375q1.3125 1.09375 1.3125 2.9375q0 1.203125 -0.59375 2.1875q-0.59375 0.96875 -1.828125 1.5625q-1.21875 0.578125 -3.0 0.578125q-1.390625 0 -2.71875 -0.359375q-1.328125 -0.359375 -2.265625 -1.03125l1.1875 -2.3125q0.75 0.5625 1.71875 0.875q0.96875 0.296875 2.0 0.296875q1.140625 0 1.78125 -0.4375q0.65625 -0.453125 0.65625 -1.265625q0 -0.828125 -0.6875 -1.25q-0.671875 -0.4375 -2.34375 -0.4375l-3.34375 0l0.671875 -7.359375l7.96875 0l0 2.421875l-5.453125 0l-0.203125 2.484375l1.0625 0z" fill-rule="nonzero"/><path fill="#073763" d="m622.05225 400.45404l0 9.109375l-1.171875 0l0 -1.65625q-0.484375 0.828125 -1.34375 1.296875q-0.84375 0.453125 -1.9375 0.453125q-1.78125 0 -2.8125 -1.0q-1.03125 -1.0 -1.03125 -2.921875l0 -5.28125l1.234375 0l0 5.15625q0 1.4375 0.703125 2.1875q0.71875 0.75 2.03125 0.75q1.4375 0 2.265625 -0.875q0.84375 -0.875 0.84375 -2.4375l0 -4.78125l1.21875 0zm5.896118 9.203125q-1.109375 0 -2.125 -0.3125q-1.015625 -0.328125 -1.578125 -0.828125l0.546875 -0.96875q0.578125 0.453125 1.4375 0.75q0.875 0.28125 1.8125 0.28125q1.25 0 1.84375 -0.390625q0.59375 -0.390625 0.59375 -1.109375q0 -0.5 -0.328125 -0.78125q-0.328125 -0.28125 -0.828125 -0.421875q-0.5 -0.15625 -1.34375 -0.296875q-1.109375 -0.203125 -1.78125 -0.421875q-0.671875 -0.21875 -1.15625 -0.734375q-0.46875 -0.53125 -0.46875 -1.4375q0 -1.15625 0.953125 -1.875q0.953125 -0.734375 2.65625 -0.734375q0.875 0 1.75 0.234375q0.890625 0.234375 1.46875 0.625l-0.546875 0.984375q-1.125 -0.78125 -2.671875 -0.78125q-1.1875 0 -1.78125 0.421875q-0.59375 0.40625 -0.59375 1.078125q0 0.53125 0.328125 0.84375q0.34375 0.3125 0.84375 0.453125q0.5 0.140625 1.390625 0.296875q1.09375 0.21875 1.75 0.421875q0.65625 0.203125 1.125 0.71875q0.46875 0.5 0.46875 1.375q0 1.203125 -1.0 1.90625q-1.0 0.703125 -2.765625 0.703125zm13.973389 -4.265625l-7.625 0q0.09375 1.421875 1.078125 2.296875q1.0 0.875 2.5 0.875q0.859375 0 1.5625 -0.296875q0.71875 -0.3125 1.234375 -0.90625l0.6875 0.796875q-0.609375 0.734375 -1.515625 1.125q-0.90625 0.375 -2.0 0.375q-1.40625 0 -2.484375 -0.59375q-1.078125 -0.609375 -1.6875 -1.65625q-0.609375 -1.0625 -0.609375 -2.40625q0 -1.328125 0.578125 -2.375q0.578125 -1.0625 1.59375 -1.65625q1.015625 -0.59375 2.28125 -0.59375q1.265625 0 2.265625 0.59375q1.015625 0.59375 1.578125 1.640625q0.578125 1.046875 0.578125 2.390625l-0.015625 0.390625zm-4.40625 -3.953125q-1.3125 0 -2.203125 0.84375q-0.890625 0.828125 -1.015625 2.1875l6.453125 0q-0.109375 -1.359375 -1.015625 -2.1875q-0.890625 -0.84375 -2.21875 -0.84375zm8.1067505 0.796875q0.4375 -0.921875 1.296875 -1.390625q0.859375 -0.46875 2.125 -0.46875l0 1.203125l-0.296875 -0.015625q-1.4375 0 -2.25 0.890625q-0.8125 0.875 -0.8125 2.46875l0 4.640625l-1.234375 0l0 -9.109375l1.171875 0l0 1.78125zm8.144836 7.421875q-1.109375 0 -2.125 -0.3125q-1.015625 -0.328125 -1.578125 -0.828125l0.546875 -0.96875q0.578125 0.453125 1.4375 0.75q0.875 0.28125 1.8125 0.28125q1.25 0 1.84375 -0.390625q0.59375 -0.390625 0.59375 -1.109375q0 -0.5 -0.328125 -0.78125q-0.328125 -0.28125 -0.828125 -0.421875q-0.5 -0.15625 -1.34375 -0.296875q-1.109375 -0.203125 -1.78125 -0.421875q-0.671875 -0.21875 -1.15625 -0.734375q-0.46875 -0.53125 -0.46875 -1.4375q0 -1.15625 0.953125 -1.875q0.953125 -0.734375 2.65625 -0.734375q0.875 0 1.75 0.234375q0.890625 0.234375 1.46875 0.625l-0.546875 0.984375q-1.125 -0.78125 -2.671875 -0.78125q-1.1875 0 -1.78125 0.421875q-0.59375 0.40625 -0.59375 1.078125q0 0.53125 0.328125 0.84375q0.34375 0.3125 0.84375 0.453125q0.5 0.140625 1.390625 0.296875q1.09375 0.21875 1.75 0.421875q0.65625 0.203125 1.125 0.71875q0.46875 0.5 0.46875 1.375q0 1.203125 -1.0 1.90625q-1.0 0.703125 -2.765625 0.703125z" fill-rule="nonzero"/><path fill="#ea9999" d="m551.68964 438.5473l0 0c0 -4.2612 3.4544067 -7.7156067 7.715637 -7.7156067l0 0c2.0462646 0 4.008789 0.8128967 5.4557495 2.2598572c1.4469604 1.4469604 2.2598267 3.4094543 2.2598267 5.4557495l0 0c0 4.2612305 -3.4543457 7.715637 -7.715576 7.715637l0 0c-4.2612305 0 -7.715637 -3.4544067 -7.715637 -7.715637z" fill-rule="evenodd"/><path stroke="#e06666" stroke-width="1.0" stroke-linejoin="round" stroke-linecap="butt" d="m551.68964 438.5473l0 0c0 -4.2612 3.4544067 -7.7156067 7.715637 -7.7156067l0 0c2.0462646 0 4.008789 0.8128967 5.4557495 2.2598572c1.4469604 1.4469604 2.2598267 3.4094543 2.2598267 5.4557495l0 0c0 4.2612305 -3.4543457 7.715637 -7.715576 7.715637l0 0c-4.2612305 0 -7.715637 -3.4544067 -7.715637 -7.715637z" fill-rule="evenodd"/><path fill="#ea9999" d="m546.08734 458.28494l0 -5.22348l0 0c0 -2.8848572 5.9626465 -5.2235107 13.317932 -5.2235107c7.3552856 0 13.317871 2.3386536 13.317871 5.2235107l0 5.22348z" fill-rule="evenodd"/><path stroke="#e06666" stroke-width="1.0" stroke-linejoin="round" stroke-linecap="butt" d="m546.08734 458.28494l0 -5.22348l0 0c0 -2.8848572 5.9626465 -5.2235107 13.317932 -5.2235107c7.3552856 0 13.317871 2.3386536 13.317871 5.2235107l0 5.22348z" fill-rule="evenodd"/><path fill="#ea9999" d="m582.0736 438.5473l0 0c0 -4.2612 3.4544067 -7.7156067 7.715637 -7.7156067l0 0c2.0463257 0 4.008789 0.8128967 5.4557495 2.2598572c1.4469604 1.4469604 2.2598877 3.4094543 2.2598877 5.4557495l0 0c0 4.2612305 -3.4544067 7.715637 -7.715637 7.715637l0 0c-4.2612305 0 -7.715637 -3.4544067 -7.715637 -7.715637z" fill-rule="evenodd"/><path stroke="#e06666" stroke-width="1.0" stroke-linejoin="round" stroke-linecap="butt" d="m582.0736 438.5473l0 0c0 -4.2612 3.4544067 -7.7156067 7.715637 -7.7156067l0 0c2.0463257 0 4.008789 0.8128967 5.4557495 2.2598572c1.4469604 1.4469604 2.2598877 3.4094543 2.2598877 5.4557495l0 0c0 4.2612305 -3.4544067 7.715637 -7.715637 7.715637l0 0c-4.2612305 0 -7.715637 -3.4544067 -7.715637 -7.715637z" fill-rule="evenodd"/><path fill="#ea9999" d="m576.4713 458.28494l0 -5.22348l0 0c0 -2.8848572 5.9626465 -5.2235107 13.317932 -5.2235107c7.3552856 0 13.317932 2.3386536 13.317932 5.2235107l0 5.22348z" fill-rule="evenodd"/><path stroke="#e06666" stroke-width="1.0" stroke-linejoin="round" stroke-linecap="butt" d="m576.4713 458.28494l0 -5.22348l0 0c0 -2.8848572 5.9626465 -5.2235107 13.317932 -5.2235107c7.3552856 0 13.317932 2.3386536 13.317932 5.2235107l0 5.22348z" fill-rule="evenodd"/><path fill="#ea9999" d="m612.45764 438.5473l0 0c0 -4.2612 3.4544067 -7.7156067 7.715637 -7.7156067l0 0c2.0462646 0 4.008789 0.8128967 5.4557495 2.2598572c1.4469604 1.4469604 2.2598267 3.4094543 2.2598267 5.4557495l0 0c0 4.2612305 -3.4544067 7.715637 -7.715576 7.715637l0 0c-4.2612305 0 -7.715637 -3.4544067 -7.715637 -7.715637z" fill-rule="evenodd"/><path stroke="#e06666" stroke-width="1.0" stroke-linejoin="round" stroke-linecap="butt" d="m612.45764 438.5473l0 0c0 -4.2612 3.4544067 -7.7156067 7.715637 -7.7156067l0 0c2.0462646 0 4.008789 0.8128967 5.4557495 2.2598572c1.4469604 1.4469604 2.2598267 3.4094543 2.2598267 5.4557495l0 0c0 4.2612305 -3.4544067 7.715637 -7.715576 7.715637l0 0c-4.2612305 0 -7.715637 -3.4544067 -7.715637 -7.715637z" fill-rule="evenodd"/><path fill="#ea9999" d="m606.85535 458.28494l0 -5.22348l0 0c0 -2.8848572 5.9626465 -5.2235107 13.317932 -5.2235107c7.3552856 0 13.317871 2.3386536 13.317871 5.2235107l0 5.22348z" fill-rule="evenodd"/><path stroke="#e06666" stroke-width="1.0" stroke-linejoin="round" stroke-linecap="butt" d="m606.85535 458.28494l0 -5.22348l0 0c0 -2.8848572 5.9626465 -5.2235107 13.317932 -5.2235107c7.3552856 0 13.317871 2.3386536 13.317871 5.2235107l0 5.22348z" fill-rule="evenodd"/><path fill="#ea9999" d="m642.36646 438.5473l0 0c0 -4.2612 3.4544067 -7.7156067 7.715637 -7.7156067l0 0c2.0463257 0 4.008789 0.8128967 5.4557495 2.2598572c1.4469604 1.4469604 2.2598877 3.4094543 2.2598877 5.4557495l0 0c0 4.2612305 -3.4544067 7.715637 -7.715637 7.715637l0 0c-4.2612305 0 -7.715637 -3.4544067 -7.715637 -7.715637z" fill-rule="evenodd"/><path stroke="#e06666" stroke-width="1.0" stroke-linejoin="round" stroke-linecap="butt" d="m642.36646 438.5473l0 0c0 -4.2612 3.4544067 -7.7156067 7.715637 -7.7156067l0 0c2.0463257 0 4.008789 0.8128967 5.4557495 2.2598572c1.4469604 1.4469604 2.2598877 3.4094543 2.2598877 5.4557495l0 0c0 4.2612305 -3.4544067 7.715637 -7.715637 7.715637l0 0c-4.2612305 0 -7.715637 -3.4544067 -7.715637 -7.715637z" fill-rule="evenodd"/><path fill="#ea9999" d="m636.76416 458.28494l0 -5.22348l0 0c0 -2.8848572 5.9626465 -5.2235107 13.317932 -5.2235107c7.3552856 0 13.317932 2.3386536 13.317932 5.2235107l0 5.22348z" fill-rule="evenodd"/><path stroke="#e06666" stroke-width="1.0" stroke-linejoin="round" stroke-linecap="butt" d="m636.76416 458.28494l0 -5.22348l0 0c0 -2.8848572 5.9626465 -5.2235107 13.317932 -5.2235107c7.3552856 0 13.317932 2.3386536 13.317932 5.2235107l0 5.22348z" fill-rule="evenodd"/><path fill="#ea9999" d="m672.7505 438.5473l0 0c0 -4.2612 3.4544067 -7.7156067 7.715576 -7.7156067l0 0c2.0463257 0 4.00885 0.8128967 5.4558105 2.2598572c1.4469604 1.4469604 2.2598267 3.4094543 2.2598267 5.4557495l0 0c0 4.2612305 -3.4544067 7.715637 -7.715637 7.715637l0 0c-4.2611694 0 -7.715576 -3.4544067 -7.715576 -7.715637z" fill-rule="evenodd"/><path stroke="#e06666" stroke-width="1.0" stroke-linejoin="round" stroke-linecap="butt" d="m672.7505 438.5473l0 0c0 -4.2612 3.4544067 -7.7156067 7.715576 -7.7156067l0 0c2.0463257 0 4.00885 0.8128967 5.4558105 2.2598572c1.4469604 1.4469604 2.2598267 3.4094543 2.2598267 5.4557495l0 0c0 4.2612305 -3.4544067 7.715637 -7.715637 7.715637l0 0c-4.2611694 0 -7.715576 -3.4544067 -7.715576 -7.715637z" fill-rule="evenodd"/><path fill="#ea9999" d="m667.1482 458.28494l0 -5.22348l0 0c0 -2.8848572 5.9625854 -5.2235107 13.317871 -5.2235107c7.3552856 0 13.317932 2.3386536 13.317932 5.2235107l0 5.22348z" fill-rule="evenodd"/><path stroke="#e06666" stroke-width="1.0" stroke-linejoin="round" stroke-linecap="butt" d="m667.1482 458.28494l0 -5.22348l0 0c0 -2.8848572 5.9625854 -5.2235107 13.317871 -5.2235107c7.3552856 0 13.317932 2.3386536 13.317932 5.2235107l0 5.22348z" fill-rule="evenodd"/><path fill="#ea9999" d="m703.13446 438.5473l0 0c0 -4.2612 3.4544067 -7.7156067 7.715637 -7.7156067l0 0c2.0463257 0 4.008789 0.8128967 5.4557495 2.2598572c1.4469604 1.4469604 2.2598877 3.4094543 2.2598877 5.4557495l0 0c0 4.2612305 -3.4544067 7.715637 -7.715637 7.715637l0 0c-4.2612305 0 -7.715637 -3.4544067 -7.715637 -7.715637z" fill-rule="evenodd"/><path stroke="#e06666" stroke-width="1.0" stroke-linejoin="round" stroke-linecap="butt" d="m703.13446 438.5473l0 0c0 -4.2612 3.4544067 -7.7156067 7.715637 -7.7156067l0 0c2.0463257 0 4.008789 0.8128967 5.4557495 2.2598572c1.4469604 1.4469604 2.2598877 3.4094543 2.2598877 5.4557495l0 0c0 4.2612305 -3.4544067 7.715637 -7.715637 7.715637l0 0c-4.2612305 0 -7.715637 -3.4544067 -7.715637 -7.715637z" fill-rule="evenodd"/><path fill="#ea9999" d="m697.53217 458.28494l0 -5.22348l0 0c0 -2.8848572 5.9626465 -5.2235107 13.317932 -5.2235107c7.3552856 0 13.317932 2.3386536 13.317932 5.2235107l0 5.22348z" fill-rule="evenodd"/><path stroke="#e06666" stroke-width="1.0" stroke-linejoin="round" stroke-linecap="butt" d="m697.53217 458.28494l0 -5.22348l0 0c0 -2.8848572 5.9626465 -5.2235107 13.317932 -5.2235107c7.3552856 0 13.317932 2.3386536 13.317932 5.2235107l0 5.22348z" fill-rule="evenodd"/><path fill="#000000" fill-opacity="0.0" d="m325.74014 353.39896c0 -41.519684 19.362213 -62.27954 38.724426 -83.03937c19.362213 -20.759857 38.724396 -41.5197 38.724396 -83.03938" fill-rule="evenodd"/><path stroke="#595959" stroke-width="1.0" stroke-linejoin="round" stroke-linecap="butt" stroke-dasharray="4.0,3.0" d="m325.74014 353.39896c0 -41.519684 19.362213 -62.27954 38.724426 -83.03937c9.681091 -10.379944 19.362213 -20.759857 26.623016 -33.734756c3.6304321 -6.487442 6.6557617 -13.623642 8.773499 -21.732956c1.0588684 -4.0546417 1.8908386 -8.352585 2.4580994 -12.934357c0.28363037 -2.2908783 0.5010681 -4.65271 0.64764404 -7.090576c0.07324219 -1.2189331 0.1288147 -2.4568787 0.16601562 -3.714447l0.010498047 -0.40551758" fill-rule="evenodd"/><path fill="#595959" stroke="#595959" stroke-width="1.0" stroke-linecap="butt" d="m403.1433 190.747l1.1095276 1.1394653l-1.0833435 -3.104477l-1.1656494 3.0745087z" fill-rule="evenodd"/><path fill="#000000" fill-opacity="0.0" d="m634.6693 356.73752c0 -42.35431 -20.370117 -63.531494 -40.740173 -84.70865c-20.370056 -21.17717 -40.740173 -42.354324 -40.740173 -84.708664" fill-rule="evenodd"/><path stroke="#595959" stroke-width="1.0" stroke-linejoin="round" stroke-linecap="butt" stroke-dasharray="4.0,3.0" d="m634.6693 356.73752c0 -42.35431 -20.370117 -63.531494 -40.740173 -84.70865c-10.185059 -10.588593 -20.370056 -21.17717 -28.00885 -34.412888c-3.819397 -6.617874 -7.0021973 -13.897522 -9.230225 -22.169846c-1.1139526 -4.1361847 -1.9892578 -8.520508 -2.5859985 -13.194366c-0.29840088 -2.3369293 -0.52716064 -4.7462616 -0.6813965 -7.233124c-0.07702637 -1.2434235 -0.13549805 -2.506256 -0.17462158 -3.7891083l-0.012878418 -0.4825592" fill-rule="evenodd"/><path fill="#595959" stroke="#595959" stroke-width="1.0" stroke-linecap="butt" d="m553.23517 190.74698l1.1396484 1.1093292l-1.1661377 -3.0743256l-1.0828247 3.1046448z" fill-rule="evenodd"/><path fill="#b6d7a8" d="m339.3853 163.88174l0 0c0 -3.2581787 2.6415405 -5.89946 5.900055 -5.89946l0 0c1.5648193 0 3.0655212 0.6215515 4.171997 1.7279205c1.1064758 1.1063538 1.7280884 2.606903 1.7280884 4.1715393l0 0c0 3.258194 -2.6415405 5.899475 -5.9000854 5.899475l0 0c-3.2585144 0 -5.900055 -2.6412811 -5.900055 -5.899475z" fill-rule="evenodd"/><path stroke="#93c47d" stroke-width="1.0" stroke-linejoin="round" stroke-linecap="butt" d="m339.3853 163.88174l0 0c0 -3.2581787 2.6415405 -5.89946 5.900055 -5.89946l0 0c1.5648193 0 3.0655212 0.6215515 4.171997 1.7279205c1.1064758 1.1063538 1.7280884 2.606903 1.7280884 4.1715393l0 0c0 3.258194 -2.6415405 5.899475 -5.9000854 5.899475l0 0c-3.2585144 0 -5.900055 -2.6412811 -5.900055 -5.899475z" fill-rule="evenodd"/><path fill="#b6d7a8" d="m335.10126 178.9734l0 -3.9939575l0 0c0 -2.2057953 4.559601 -3.9939423 10.184113 -3.9939423c5.624542 0 10.184113 1.788147 10.184113 3.9939423l0 3.9939575z" fill-rule="evenodd"/><path stroke="#93c47d" stroke-width="1.0" stroke-linejoin="round" stroke-linecap="butt" d="m335.10126 178.9734l0 -3.9939575l0 0c0 -2.2057953 4.559601 -3.9939423 10.184113 -3.9939423c5.624542 0 10.184113 1.788147 10.184113 3.9939423l0 3.9939575z" fill-rule="evenodd"/><path fill="#b6d7a8" d="m362.61972 163.88174l0 0c0 -3.2581787 2.6415405 -5.89946 5.900055 -5.89946l0 0c1.5647888 0 3.0655212 0.6215515 4.171997 1.7279205c1.1064758 1.1063538 1.7280884 2.606903 1.7280884 4.1715393l0 0c0 3.258194 -2.641571 5.899475 -5.9000854 5.899475l0 0c-3.2585144 0 -5.900055 -2.6412811 -5.900055 -5.899475z" fill-rule="evenodd"/><path stroke="#93c47d" stroke-width="1.0" stroke-linejoin="round" stroke-linecap="butt" d="m362.61972 163.88174l0 0c0 -3.2581787 2.6415405 -5.89946 5.900055 -5.89946l0 0c1.5647888 0 3.0655212 0.6215515 4.171997 1.7279205c1.1064758 1.1063538 1.7280884 2.606903 1.7280884 4.1715393l0 0c0 3.258194 -2.641571 5.899475 -5.9000854 5.899475l0 0c-3.2585144 0 -5.900055 -2.6412811 -5.900055 -5.899475z" fill-rule="evenodd"/><path fill="#b6d7a8" d="m358.33566 178.9734l0 -3.9939575l0 0c0 -2.2057953 4.559601 -3.9939423 10.184113 -3.9939423c5.624542 0 10.184113 1.788147 10.184113 3.9939423l0 3.9939575z" fill-rule="evenodd"/><path stroke="#93c47d" stroke-width="1.0" stroke-linejoin="round" stroke-linecap="butt" d="m358.33566 178.9734l0 -3.9939575l0 0c0 -2.2057953 4.559601 -3.9939423 10.184113 -3.9939423c5.624542 0 10.184113 1.788147 10.184113 3.9939423l0 3.9939575z" fill-rule="evenodd"/><path fill="#b6d7a8" d="m385.8541 163.88174l0 0c0 -3.2581787 2.641571 -5.89946 5.9000854 -5.89946l0 0c1.5647888 0 3.0654907 0.6215515 4.1719666 1.7279205c1.1065063 1.1063538 1.7281189 2.606903 1.7281189 4.1715393l0 0c0 3.258194 -2.641571 5.899475 -5.9000854 5.899475l0 0c-3.2585144 0 -5.9000854 -2.6412811 -5.9000854 -5.899475z" fill-rule="evenodd"/><path stroke="#93c47d" stroke-width="1.0" stroke-linejoin="round" stroke-linecap="butt" d="m385.8541 163.88174l0 0c0 -3.2581787 2.641571 -5.89946 5.9000854 -5.89946l0 0c1.5647888 0 3.0654907 0.6215515 4.1719666 1.7279205c1.1065063 1.1063538 1.7281189 2.606903 1.7281189 4.1715393l0 0c0 3.258194 -2.641571 5.899475 -5.9000854 5.899475l0 0c-3.2585144 0 -5.9000854 -2.6412811 -5.9000854 -5.899475z" fill-rule="evenodd"/><path fill="#b6d7a8" d="m381.57007 178.9734l0 -3.9939575l0 0c0 -2.2057953 4.5595703 -3.9939423 10.184113 -3.9939423c5.6245117 0 10.184113 1.788147 10.184113 3.9939423l0 3.9939575z" fill-rule="evenodd"/><path stroke="#93c47d" stroke-width="1.0" stroke-linejoin="round" stroke-linecap="butt" d="m381.57007 178.9734l0 -3.9939575l0 0c0 -2.2057953 4.5595703 -3.9939423 10.184113 -3.9939423c5.6245117 0 10.184113 1.788147 10.184113 3.9939423l0 3.9939575z" fill-rule="evenodd"/><path fill="#b6d7a8" d="m408.72516 163.88174l0 0c0 -3.2581787 2.6415405 -5.89946 5.900055 -5.89946l0 0c1.5648193 0 3.0655212 0.6215515 4.171997 1.7279205c1.1064758 1.1063538 1.7280884 2.606903 1.7280884 4.1715393l0 0c0 3.258194 -2.6415405 5.899475 -5.9000854 5.899475l0 0c-3.2585144 0 -5.900055 -2.6412811 -5.900055 -5.899475z" fill-rule="evenodd"/><path stroke="#93c47d" stroke-width="1.0" stroke-linejoin="round" stroke-linecap="butt" d="m408.72516 163.88174l0 0c0 -3.2581787 2.6415405 -5.89946 5.900055 -5.89946l0 0c1.5648193 0 3.0655212 0.6215515 4.171997 1.7279205c1.1064758 1.1063538 1.7280884 2.606903 1.7280884 4.1715393l0 0c0 3.258194 -2.6415405 5.899475 -5.9000854 5.899475l0 0c-3.2585144 0 -5.900055 -2.6412811 -5.900055 -5.899475z" fill-rule="evenodd"/><path fill="#b6d7a8" d="m404.44113 178.9734l0 -3.9939575l0 0c0 -2.2057953 4.5595703 -3.9939423 10.184082 -3.9939423c5.624542 0 10.184113 1.788147 10.184113 3.9939423l0 3.9939575z" fill-rule="evenodd"/><path stroke="#93c47d" stroke-width="1.0" stroke-linejoin="round" stroke-linecap="butt" d="m404.44113 178.9734l0 -3.9939575l0 0c0 -2.2057953 4.5595703 -3.9939423 10.184082 -3.9939423c5.624542 0 10.184113 1.788147 10.184113 3.9939423l0 3.9939575z" fill-rule="evenodd"/><path fill="#b6d7a8" d="m431.95956 163.88174l0 0c0 -3.2581787 2.6415405 -5.89946 5.900055 -5.89946l0 0c1.5647888 0 3.0655212 0.6215515 4.171997 1.7279205c1.1064758 1.1063538 1.7280884 2.606903 1.7280884 4.1715393l0 0c0 3.258194 -2.641571 5.899475 -5.9000854 5.899475l0 0c-3.2585144 0 -5.900055 -2.6412811 -5.900055 -5.899475z" fill-rule="evenodd"/><path stroke="#93c47d" stroke-width="1.0" stroke-linejoin="round" stroke-linecap="butt" d="m431.95956 163.88174l0 0c0 -3.2581787 2.6415405 -5.89946 5.900055 -5.89946l0 0c1.5647888 0 3.0655212 0.6215515 4.171997 1.7279205c1.1064758 1.1063538 1.7280884 2.606903 1.7280884 4.1715393l0 0c0 3.258194 -2.641571 5.899475 -5.9000854 5.899475l0 0c-3.2585144 0 -5.900055 -2.6412811 -5.900055 -5.899475z" fill-rule="evenodd"/><path fill="#b6d7a8" d="m427.6755 178.9734l0 -3.9939575l0 0c0 -2.2057953 4.559601 -3.9939423 10.184113 -3.9939423c5.624542 0 10.184113 1.788147 10.184113 3.9939423l0 3.9939575z" fill-rule="evenodd"/><path stroke="#93c47d" stroke-width="1.0" stroke-linejoin="round" stroke-linecap="butt" d="m427.6755 178.9734l0 -3.9939575l0 0c0 -2.2057953 4.559601 -3.9939423 10.184113 -3.9939423c5.624542 0 10.184113 1.788147 10.184113 3.9939423l0 3.9939575z" fill-rule="evenodd"/><path fill="#b6d7a8" d="m455.19394 163.88174l0 0c0 -3.2581787 2.641571 -5.89946 5.9000854 -5.89946l0 0c1.5647888 0 3.0654907 0.6215515 4.171997 1.7279205c1.1064758 1.1063538 1.7280884 2.606903 1.7280884 4.1715393l0 0c0 3.258194 -2.641571 5.899475 -5.9000854 5.899475l0 0c-3.2585144 0 -5.9000854 -2.6412811 -5.9000854 -5.899475z" fill-rule="evenodd"/><path stroke="#93c47d" stroke-width="1.0" stroke-linejoin="round" stroke-linecap="butt" d="m455.19394 163.88174l0 0c0 -3.2581787 2.641571 -5.89946 5.9000854 -5.89946l0 0c1.5647888 0 3.0654907 0.6215515 4.171997 1.7279205c1.1064758 1.1063538 1.7280884 2.606903 1.7280884 4.1715393l0 0c0 3.258194 -2.641571 5.899475 -5.9000854 5.899475l0 0c-3.2585144 0 -5.9000854 -2.6412811 -5.9000854 -5.899475z" fill-rule="evenodd"/><path fill="#b6d7a8" d="m450.9099 178.9734l0 -3.9939575l0 0c0 -2.2057953 4.5595703 -3.9939423 10.184113 -3.9939423c5.6245117 0 10.184113 1.788147 10.184113 3.9939423l0 3.9939575z" fill-rule="evenodd"/><path stroke="#93c47d" stroke-width="1.0" stroke-linejoin="round" stroke-linecap="butt" d="m450.9099 178.9734l0 -3.9939575l0 0c0 -2.2057953 4.5595703 -3.9939423 10.184113 -3.9939423c5.6245117 0 10.184113 1.788147 10.184113 3.9939423l0 3.9939575z" fill-rule="evenodd"/><path fill="#ea9999" d="m509.84088 164.48921l0 0c0 -2.827011 2.2914429 -5.118759 5.118164 -5.118759l0 0c1.3574219 0 2.6592407 0.5392914 3.6190796 1.4992523c0.95983887 0.9599457 1.4990234 2.2619324 1.4990234 3.6195068l0 0c0 2.827011 -2.2914429 5.118759 -5.118103 5.118759l0 0c-2.8267212 0 -5.118164 -2.291748 -5.118164 -5.118759z" fill-rule="evenodd"/><path stroke="#e06666" stroke-width="1.0" stroke-linejoin="round" stroke-linecap="butt" d="m509.84088 164.48921l0 0c0 -2.827011 2.2914429 -5.118759 5.118164 -5.118759l0 0c1.3574219 0 2.6592407 0.5392914 3.6190796 1.4992523c0.95983887 0.9599457 1.4990234 2.2619324 1.4990234 3.6195068l0 0c0 2.827011 -2.2914429 5.118759 -5.118103 5.118759l0 0c-2.8267212 0 -5.118164 -2.291748 -5.118164 -5.118759z" fill-rule="evenodd"/><path fill="#ea9999" d="m506.1246 177.58371l0 -3.4654083l0 0c0 -1.9138947 3.9552917 -3.4654083 8.834442 -3.4654083c4.8790894 0 8.834412 1.5515137 8.834412 3.4654083l0 3.4654083z" fill-rule="evenodd"/><path stroke="#e06666" stroke-width="1.0" stroke-linejoin="round" stroke-linecap="butt" d="m506.1246 177.58371l0 -3.4654083l0 0c0 -1.9138947 3.9552917 -3.4654083 8.834442 -3.4654083c4.8790894 0 8.834412 1.5515137 8.834412 3.4654083l0 3.4654083z" fill-rule="evenodd"/><path fill="#ea9999" d="m529.9961 164.48921l0 0c0 -2.827011 2.2914429 -5.118759 5.118103 -5.118759l0 0c1.3574219 0 2.6592407 0.5392914 3.6190796 1.4992523c0.95983887 0.9599457 1.4990845 2.2619324 1.4990845 3.6195068l0 0c0 2.827011 -2.2914429 5.118759 -5.118164 5.118759l0 0c-2.8266602 0 -5.118103 -2.291748 -5.118103 -5.118759z" fill-rule="evenodd"/><path stroke="#e06666" stroke-width="1.0" stroke-linejoin="round" stroke-linecap="butt" d="m529.9961 164.48921l0 0c0 -2.827011 2.2914429 -5.118759 5.118103 -5.118759l0 0c1.3574219 0 2.6592407 0.5392914 3.6190796 1.4992523c0.95983887 0.9599457 1.4990845 2.2619324 1.4990845 3.6195068l0 0c0 2.827011 -2.2914429 5.118759 -5.118164 5.118759l0 0c-2.8266602 0 -5.118103 -2.291748 -5.118103 -5.118759z" fill-rule="evenodd"/><path fill="#ea9999" d="m526.2798 177.58371l0 -3.4654083l0 0c0 -1.9138947 3.9553223 -3.4654083 8.834412 -3.4654083c4.8791504 0 8.834473 1.5515137 8.834473 3.4654083l0 3.4654083z" fill-rule="evenodd"/><path stroke="#e06666" stroke-width="1.0" stroke-linejoin="round" stroke-linecap="butt" d="m526.2798 177.58371l0 -3.4654083l0 0c0 -1.9138947 3.9553223 -3.4654083 8.834412 -3.4654083c4.8791504 0 8.834473 1.5515137 8.834473 3.4654083l0 3.4654083z" fill-rule="evenodd"/><path fill="#ea9999" d="m550.15125 164.48921l0 0c0 -2.827011 2.291504 -5.118759 5.118164 -5.118759l0 0c1.3574219 0 2.6592407 0.5392914 3.6190796 1.4992523c0.95983887 0.9599457 1.4990845 2.2619324 1.4990845 3.6195068l0 0c0 2.827011 -2.2914429 5.118759 -5.118164 5.118759l0 0c-2.8266602 0 -5.118164 -2.291748 -5.118164 -5.118759z" fill-rule="evenodd"/><path stroke="#e06666" stroke-width="1.0" stroke-linejoin="round" stroke-linecap="butt" d="m550.15125 164.48921l0 0c0 -2.827011 2.291504 -5.118759 5.118164 -5.118759l0 0c1.3574219 0 2.6592407 0.5392914 3.6190796 1.4992523c0.95983887 0.9599457 1.4990845 2.2619324 1.4990845 3.6195068l0 0c0 2.827011 -2.2914429 5.118759 -5.118164 5.118759l0 0c-2.8266602 0 -5.118164 -2.291748 -5.118164 -5.118759z" fill-rule="evenodd"/><path fill="#ea9999" d="m546.435 177.58371l0 -3.4654083l0 0c0 -1.9138947 3.9553223 -3.4654083 8.834412 -3.4654083c4.8791504 0 8.834473 1.5515137 8.834473 3.4654083l0 3.4654083z" fill-rule="evenodd"/><path stroke="#e06666" stroke-width="1.0" stroke-linejoin="round" stroke-linecap="butt" d="m546.435 177.58371l0 -3.4654083l0 0c0 -1.9138947 3.9553223 -3.4654083 8.834412 -3.4654083c4.8791504 0 8.834473 1.5515137 8.834473 3.4654083l0 3.4654083z" fill-rule="evenodd"/><path fill="#ea9999" d="m569.9913 164.48921l0 0c0 -2.827011 2.291504 -5.118759 5.118164 -5.118759l0 0c1.3574219 0 2.6592407 0.5392914 3.6190796 1.4992523c0.95983887 0.9599457 1.4990845 2.2619324 1.4990845 3.6195068l0 0c0 2.827011 -2.291504 5.118759 -5.118164 5.118759l0 0c-2.8266602 0 -5.118164 -2.291748 -5.118164 -5.118759z" fill-rule="evenodd"/><path stroke="#e06666" stroke-width="1.0" stroke-linejoin="round" stroke-linecap="butt" d="m569.9913 164.48921l0 0c0 -2.827011 2.291504 -5.118759 5.118164 -5.118759l0 0c1.3574219 0 2.6592407 0.5392914 3.6190796 1.4992523c0.95983887 0.9599457 1.4990845 2.2619324 1.4990845 3.6195068l0 0c0 2.827011 -2.291504 5.118759 -5.118164 5.118759l0 0c-2.8266602 0 -5.118164 -2.291748 -5.118164 -5.118759z" fill-rule="evenodd"/><path fill="#ea9999" d="m566.27496 177.58371l0 -3.4654083l0 0c0 -1.9138947 3.9553223 -3.4654083 8.834473 -3.4654083c4.8790894 0 8.834412 1.5515137 8.834412 3.4654083l0 3.4654083z" fill-rule="evenodd"/><path stroke="#e06666" stroke-width="1.0" stroke-linejoin="round" stroke-linecap="butt" d="m566.27496 177.58371l0 -3.4654083l0 0c0 -1.9138947 3.9553223 -3.4654083 8.834473 -3.4654083c4.8790894 0 8.834412 1.5515137 8.834412 3.4654083l0 3.4654083z" fill-rule="evenodd"/><path fill="#ea9999" d="m590.1465 164.48921l0 0c0 -2.827011 2.2914429 -5.118759 5.118164 -5.118759l0 0c1.3574219 0 2.6592407 0.5392914 3.6190796 1.4992523c0.95983887 0.9599457 1.4990234 2.2619324 1.4990234 3.6195068l0 0c0 2.827011 -2.2914429 5.118759 -5.118103 5.118759l0 0c-2.8267212 0 -5.118164 -2.291748 -5.118164 -5.118759z" fill-rule="evenodd"/><path stroke="#e06666" stroke-width="1.0" stroke-linejoin="round" stroke-linecap="butt" d="m590.1465 164.48921l0 0c0 -2.827011 2.2914429 -5.118759 5.118164 -5.118759l0 0c1.3574219 0 2.6592407 0.5392914 3.6190796 1.4992523c0.95983887 0.9599457 1.4990234 2.2619324 1.4990234 3.6195068l0 0c0 2.827011 -2.2914429 5.118759 -5.118103 5.118759l0 0c-2.8267212 0 -5.118164 -2.291748 -5.118164 -5.118759z" fill-rule="evenodd"/><path fill="#ea9999" d="m586.4302 177.58371l0 -3.4654083l0 0c0 -1.9138947 3.9553223 -3.4654083 8.834473 -3.4654083c4.8790894 0 8.834412 1.5515137 8.834412 3.4654083l0 3.4654083z" fill-rule="evenodd"/><path stroke="#e06666" stroke-width="1.0" stroke-linejoin="round" stroke-linecap="butt" d="m586.4302 177.58371l0 -3.4654083l0 0c0 -1.9138947 3.9553223 -3.4654083 8.834473 -3.4654083c4.8790894 0 8.834412 1.5515137 8.834412 3.4654083l0 3.4654083z" fill-rule="evenodd"/><path fill="#ea9999" d="m610.3017 164.48921l0 0c0 -2.827011 2.2914429 -5.118759 5.118103 -5.118759l0 0c1.3574219 0 2.6592407 0.5392914 3.6190796 1.4992523c0.95983887 0.9599457 1.4990845 2.2619324 1.4990845 3.6195068l0 0c0 2.827011 -2.2914429 5.118759 -5.118164 5.118759l0 0c-2.8266602 0 -5.118103 -2.291748 -5.118103 -5.118759z" fill-rule="evenodd"/><path stroke="#e06666" stroke-width="1.0" stroke-linejoin="round" stroke-linecap="butt" d="m610.3017 164.48921l0 0c0 -2.827011 2.2914429 -5.118759 5.118103 -5.118759l0 0c1.3574219 0 2.6592407 0.5392914 3.6190796 1.4992523c0.95983887 0.9599457 1.4990845 2.2619324 1.4990845 3.6195068l0 0c0 2.827011 -2.2914429 5.118759 -5.118164 5.118759l0 0c-2.8266602 0 -5.118103 -2.291748 -5.118103 -5.118759z" fill-rule="evenodd"/><path fill="#ea9999" d="m606.5854 177.58371l0 -3.4654083l0 0c0 -1.9138947 3.9553223 -3.4654083 8.834412 -3.4654083c4.8791504 0 8.834473 1.5515137 8.834473 3.4654083l0 3.4654083z" fill-rule="evenodd"/><path stroke="#e06666" stroke-width="1.0" stroke-linejoin="round" stroke-linecap="butt" d="m606.5854 177.58371l0 -3.4654083l0 0c0 -1.9138947 3.9553223 -3.4654083 8.834412 -3.4654083c4.8791504 0 8.834473 1.5515137 8.834473 3.4654083l0 3.4654083z" fill-rule="evenodd"/></g></svg>