<svg version="1.1" viewBox="0.0 0.0 960.0 540.0" fill="none" stroke="none" stroke-linecap="square" stroke-miterlimit="10" xmlns:xlink="http://www.w3.org/1999/xlink" xmlns="http://www.w3.org/2000/svg"><clipPath id="ga406276498_0_49.0"><path d="m0 0l960.0 0l0 540.0l-960.0 0l0 -540.0z" clip-rule="nonzero"/></clipPath><g clip-path="url(#ga406276498_0_49.0)"><path fill="#ffffff" d="m0 0l960.0 0l0 540.0l-960.0 0z" fill-rule="evenodd"/><path fill="#f3f3f3" d="m24.35433 96.811455l437.5118 0l0 319.74802l-437.5118 0z" fill-rule="evenodd"/><path stroke="#efefef" stroke-width="1.0" stroke-linejoin="round" stroke-linecap="butt" d="m24.35433 96.811455l437.5118 0l0 319.74802l-437.5118 0z" fill-rule="evenodd"/><path fill="#cfe2f3" d="m54.292667 171.99615l0 0c0 -18.624405 15.098057 -33.722473 33.72246 -33.722473l310.16138 0c8.943756 0 17.52118 3.5529022 23.845367 9.87709c6.324188 6.324188 9.877075 14.901627 9.877075 23.845383l0 134.88577c0 18.62442 -15.098053 33.722473 -33.722443 33.722473l-310.16138 0c-18.624405 0 -33.72246 -15.098053 -33.72246 -33.722473z" fill-rule="evenodd"/><path stroke="#9fc5e8" stroke-width="1.0" stroke-linejoin="round" stroke-linecap="butt" d="m54.292667 171.99615l0 0c0 -18.624405 15.098057 -33.722473 33.72246 -33.722473l310.16138 0c8.943756 0 17.52118 3.5529022 23.845367 9.87709c6.324188 6.324188 9.877075 14.901627 9.877075 23.845383l0 134.88577c0 18.62442 -15.098053 33.722473 -33.722443 33.722473l-310.16138 0c-18.624405 0 -33.72246 -15.098053 -33.72246 -33.722473z" fill-rule="evenodd"/><path fill="#000000" fill-opacity="0.0" d="m45.952213 285.37634l393.32285 0l0 122.61417l-393.32285 0z" fill-rule="evenodd"/><path fill="#434343" d="m137.25739 383.78217l0 6.78125l-2.03125 0l0 -6.78125l-7.84375 -12.8125l2.203125 0l6.71875 11.0l6.734375 -11.0l2.0625 0l-7.84375 12.8125zm14.990707 6.921875q-2.140625 0 -3.84375 -0.96875q-1.703125 -0.96875 -2.6875 -2.671875q-0.984375 -1.703125 -0.984375 -3.859375q0 -2.15625 0.984375 -3.859375q0.984375 -1.71875 2.6875 -2.671875q1.703125 -0.953125 3.84375 -0.953125q2.125 0 3.828125 0.953125q1.71875 0.953125 2.671875 2.671875q0.96875 1.703125 0.96875 3.859375q0 2.15625 -0.96875 3.859375q-0.953125 1.703125 -2.671875 2.671875q-1.703125 0.96875 -3.828125 0.96875zm0 -1.765625q1.5625 0 2.8125 -0.703125q1.25 -0.71875 1.9375 -2.03125q0.703125 -1.328125 0.703125 -3.0q0 -1.6875 -0.703125 -3.0q-0.6875 -1.3125 -1.9375 -2.03125q-1.25 -0.71875 -2.8125 -0.71875q-1.578125 0 -2.828125 0.71875q-1.234375 0.71875 -1.953125 2.03125q-0.71875 1.3125 -0.71875 3.0q0 1.671875 0.71875 3.0q0.71875 1.3125 1.953125 2.03125q1.25 0.703125 2.828125 0.703125zm24.806076 -13.109375l0 14.734375l-1.90625 0l0 -2.6875q-0.78125 1.34375 -2.15625 2.09375q-1.375 0.734375 -3.140625 0.734375q-2.875 0 -4.546875 -1.609375q-1.671875 -1.609375 -1.671875 -4.71875l0 -8.546875l2.0 0l0 8.34375q0 2.328125 1.140625 3.53125q1.15625 1.203125 3.28125 1.203125q2.328125 0 3.671875 -1.40625q1.34375 -1.421875 1.34375 -3.9375l0 -7.734375l1.984375 0zm7.4690857 2.890625q0.703125 -1.484375 2.078125 -2.234375q1.390625 -0.765625 3.4375 -0.765625l0 1.9375l-0.46875 -0.03125q-2.328125 0 -3.640625 1.4375q-1.3125 1.421875 -1.3125 4.0l0 7.5l-2.0 0l0 -14.734375l1.90625 0l0 2.890625zm22.767197 11.984375q-2.1875 0 -3.90625 -0.953125q-1.71875 -0.953125 -2.703125 -2.671875q-0.984375 -1.71875 -0.984375 -3.875q0 -2.15625 0.984375 -3.859375q0.984375 -1.71875 2.703125 -2.671875q1.71875 -0.953125 3.90625 -0.953125q1.90625 0 3.40625 0.75q1.5 0.734375 2.359375 2.171875l-1.484375 1.0q-0.71875 -1.09375 -1.84375 -1.640625q-1.125 -0.546875 -2.4375 -0.546875q-1.59375 0 -2.875 0.71875q-1.265625 0.71875 -1.984375 2.03125q-0.71875 1.3125 -0.71875 3.0q0 1.703125 0.71875 3.015625q0.71875 1.296875 1.984375 2.015625q1.28125 0.703125 2.875 0.703125q1.3125 0 2.4375 -0.53125q1.125 -0.53125 1.84375 -1.625l1.484375 1.015625q-0.859375 1.421875 -2.375 2.171875q-1.515625 0.734375 -3.390625 0.734375zm15.433945 0q-2.140625 0 -3.84375 -0.96875q-1.703125 -0.96875 -2.6875 -2.671875q-0.984375 -1.703125 -0.984375 -3.859375q0 -2.15625 0.984375 -3.859375q0.984375 -1.71875 2.6875 -2.671875q1.703125 -0.953125 3.84375 -0.953125q2.125 0 3.828125 0.953125q1.71875 0.953125 2.671875 2.671875q0.96875 1.703125 0.96875 3.859375q0 2.15625 -0.96875 3.859375q-0.953125 1.703125 -2.671875 2.671875q-1.703125 0.96875 -3.828125 0.96875zm0 -1.765625q1.5625 0 2.8125 -0.703125q1.25 -0.71875 1.9375 -2.03125q0.703125 -1.328125 0.703125 -3.0q0 -1.6875 -0.703125 -3.0q-0.6875 -1.3125 -1.9375 -2.03125q-1.25 -0.71875 -2.8125 -0.71875q-1.578125 0 -2.828125 0.71875q-1.234375 0.71875 -1.953125 2.03125q-0.71875 1.3125 -0.71875 3.0q0 1.671875 0.71875 3.0q0.71875 1.3125 1.953125 2.03125q1.25 0.703125 2.828125 0.703125zm29.899826 -13.21875q2.765625 0 4.3437653 1.609375q1.59375 1.59375 1.59375 4.6875l0 8.546875l-1.984375 0l0 -8.34375q0 -2.296875 -1.1093903 -3.5q-1.109375 -1.203125 -3.125 -1.203125q-2.296875 0 -3.609375 1.421875q-1.3125 1.40625 -1.3125 3.890625l0 7.734375l-2.0 0l0 -8.34375q0 -2.296875 -1.109375 -3.5q-1.09375 -1.203125 -3.140625 -1.203125q-2.265625 0 -3.59375 1.421875q-1.328125 1.40625 -1.328125 3.890625l0 7.734375l-2.0 0l0 -14.734375l1.90625 0l0 2.6875q0.78125 -1.34375 2.1875 -2.0625q1.40625 -0.734375 3.21875 -0.734375q1.84375 0 3.203125 0.796875q1.359375 0.78125 2.03125 2.3125q0.8125 -1.453125 2.34375 -2.28125q1.53125 -0.828125 3.484375 -0.828125zm18.926895 0q2.078125 0 3.75 0.9375q1.6875 0.9375 2.640625 2.65625q0.953125 1.703125 0.953125 3.890625q0 2.203125 -0.953125 3.921875q-0.953125 1.703125 -2.625 2.640625q-1.671875 0.9375 -3.765625 0.9375q-1.796875 0 -3.234375 -0.734375q-1.4375 -0.75 -2.359375 -2.171875l0 8.203125l-2.0 0l0 -20.171875l1.90625 0l0 2.921875q0.90625 -1.453125 2.375 -2.234375q1.46875 -0.796875 3.3125 -0.796875zm-0.140625 13.21875q1.546875 0 2.796875 -0.703125q1.265625 -0.71875 1.96875 -2.03125q0.71875 -1.328125 0.71875 -3.0q0 -1.6875 -0.71875 -2.984375q-0.703125 -1.296875 -1.96875 -2.03125q-1.25 -0.734375 -2.796875 -0.734375q-1.5625 0 -2.8125 0.734375q-1.25 0.734375 -1.96875 2.03125q-0.703125 1.296875 -0.703125 2.984375q0 1.671875 0.703125 3.0q0.71875 1.3125 1.96875 2.03125q1.25 0.703125 2.8125 0.703125zm16.60321 -13.21875q2.890625 0 4.421875 1.453125q1.546875 1.4375 1.546875 4.265625l0 9.125l-1.90625 0l0 -2.296875q-0.671875 1.15625 -1.984375 1.796875q-1.296875 0.640625 -3.078125 0.640625q-2.46875 0 -3.921875 -1.171875q-1.453125 -1.1875 -1.453125 -3.109375q0 -1.875 1.34375 -3.015625q1.359375 -1.15625 4.328125 -1.15625l4.6875 0l0 -0.90625q0 -1.890625 -1.078125 -2.890625q-1.0625 -1.0 -3.09375 -1.0q-1.40625 0 -2.703125 0.46875q-1.28125 0.453125 -2.203125 1.265625l-0.890625 -1.484375q1.109375 -0.9375 2.671875 -1.453125q1.578125 -0.53125 3.3125 -0.53125zm-0.703125 13.421875q1.6875 0 2.890625 -0.765625q1.203125 -0.78125 1.796875 -2.234375l0 -2.40625l-4.625 0q-3.78125 0 -3.78125 2.625q0 1.296875 0.96875 2.046875q0.984375 0.734375 2.75 0.734375zm19.58255 -13.421875q2.765625 0 4.40625 1.609375q1.640625 1.609375 1.640625 4.6875l0 8.546875l-1.984375 0l0 -8.34375q0 -2.296875 -1.15625 -3.5q-1.140625 -1.203125 -3.28125 -1.203125q-2.375 0 -3.765625 1.421875q-1.375 1.40625 -1.375 3.890625l0 7.734375l-2.0 0l0 -14.734375l1.90625 0l0 2.71875q0.8125 -1.34375 2.25 -2.078125q1.453125 -0.75 3.359375 -0.75zm23.535461 0.109375l-7.359375 16.5q-0.890625 2.078125 -2.078125 2.9375q-1.171875 0.875 -2.8125 0.875q-1.078125 0 -2.0 -0.34375q-0.921875 -0.328125 -1.59375 -1.0l0.921875 -1.484375q1.125 1.109375 2.6875 1.109375q1.015625 0 1.71875 -0.5625q0.71875 -0.546875 1.34375 -1.890625l0.640625 -1.4375l-6.578125 -14.703125l2.0625 0l5.546875 12.515625l5.546875 -12.515625l1.953125 0zm22.855835 9.5l-10.921875 0l-2.34375 5.234375l-2.15625 0l8.953125 -19.59375l2.046875 0l8.953125 19.59375l-2.171875 0l-2.359375 -5.234375zm-0.75 -1.6875l-4.703125 -10.515625l-4.71875 10.515625l9.421875 0z" fill-rule="nonzero"/><path fill="#000000" fill-opacity="0.0" d="m56.676826 166.03299l372.8504 0l0 102.677155l-372.8504 0z" fill-rule="evenodd"/><path fill="#073763" d="m121.86501 210.63298l-0.015625 -11.203125l-5.5 9.234375l-1.9375 0l-5.46875 -8.984375l0 10.953125l-4.046875 0l0 -18.65625l3.5625 0l6.984375 11.59375l6.875 -11.59375l3.546875 0l0.0625 18.65625l-4.0625 0zm8.191002 -14.34375l4.15625 0l0 14.34375l-4.15625 0l0 -14.34375zm2.078125 -2.0q-1.140625 0 -1.859375 -0.65625q-0.71875 -0.671875 -0.71875 -1.65625q0 -0.984375 0.71875 -1.65625q0.71875 -0.671875 1.859375 -0.671875q1.15625 0 1.875 0.640625q0.71875 0.640625 0.71875 1.609375q0 1.03125 -0.71875 1.71875q-0.71875 0.671875 -1.875 0.671875zm12.867249 16.5625q-2.28125 0 -4.109375 -0.9375q-1.828125 -0.953125 -2.859375 -2.625q-1.015625 -1.6875 -1.015625 -3.828125q0 -2.125 1.015625 -3.796875q1.03125 -1.6875 2.859375 -2.625q1.828125 -0.953125 4.109375 -0.953125q2.265625 0 3.953125 0.953125q1.703125 0.9375 2.484375 2.6875l-3.234375 1.734375q-1.125 -1.96875 -3.21875 -1.96875q-1.625 0 -2.703125 1.0625q-1.0625 1.0625 -1.0625 2.90625q0 1.84375 1.0625 2.90625q1.078125 1.0625 2.703125 1.0625q2.125 0 3.21875 -1.96875l3.234375 1.765625q-0.78125 1.703125 -2.484375 2.671875q-1.6875 0.953125 -3.953125 0.953125zm12.800659 -12.671875q0.75 -1.03125 2.015625 -1.5625q1.265625 -0.53125 2.921875 -0.53125l0 3.828125q-0.703125 -0.046875 -0.9375 -0.046875q-1.78125 0 -2.796875 1.0q-1.015625 1.0 -1.015625 3.0l0 6.765625l-4.15625 0l0 -14.34375l3.96875 0l0 1.890625zm14.10817 12.671875q-2.265625 0 -4.078125 -0.9375q-1.796875 -0.953125 -2.8125 -2.625q-1.0 -1.6875 -1.0 -3.828125q0 -2.125 1.0 -3.796875q1.015625 -1.6875 2.8125 -2.625q1.8125 -0.953125 4.078125 -0.953125q2.265625 0 4.046875 0.953125q1.78125 0.9375 2.796875 2.625q1.015625 1.671875 1.015625 3.796875q0 2.140625 -1.015625 3.828125q-1.015625 1.671875 -2.796875 2.625q-1.78125 0.9375 -4.046875 0.9375zm0 -3.421875q1.59375 0 2.609375 -1.078125q1.03125 -1.078125 1.03125 -2.890625q0 -1.8125 -1.03125 -2.890625q-1.015625 -1.078125 -2.609375 -1.078125q-1.609375 0 -2.65625 1.078125q-1.03125 1.078125 -1.03125 2.890625q0 1.8125 1.03125 2.890625q1.046875 1.078125 2.65625 1.078125zm15.459778 3.421875q-1.796875 0 -3.5 -0.4375q-1.703125 -0.453125 -2.71875 -1.109375l1.390625 -2.984375q0.953125 0.609375 2.3125 1.0q1.359375 0.375 2.671875 0.375q2.640625 0 2.640625 -1.296875q0 -0.609375 -0.71875 -0.875q-0.71875 -0.28125 -2.21875 -0.46875q-1.765625 -0.265625 -2.90625 -0.609375q-1.140625 -0.34375 -1.984375 -1.21875q-0.84375 -0.890625 -0.84375 -2.515625q0 -1.359375 0.78125 -2.40625q0.796875 -1.046875 2.296875 -1.625q1.515625 -0.59375 3.5625 -0.59375q1.515625 0 3.015625 0.328125q1.515625 0.328125 2.5 0.921875l-1.375 2.953125q-1.90625 -1.0625 -4.140625 -1.0625q-1.328125 0 -2.0 0.375q-0.671875 0.375 -0.671875 0.953125q0 0.671875 0.71875 0.9375q0.734375 0.265625 2.296875 0.5q1.765625 0.296875 2.875 0.640625q1.125 0.328125 1.953125 1.203125q0.828125 0.875 0.828125 2.453125q0 1.328125 -0.796875 2.375q-0.796875 1.03125 -2.34375 1.609375q-1.53125 0.578125 -3.625 0.578125zm16.154419 0q-2.265625 0 -4.078125 -0.9375q-1.796875 -0.953125 -2.8125 -2.625q-1.0 -1.6875 -1.0 -3.828125q0 -2.125 1.0 -3.796875q1.015625 -1.6875 2.8125 -2.625q1.8125 -0.953125 4.078125 -0.953125q2.265625 0 4.046875 0.953125q1.78125 0.9375 2.796875 2.625q1.015625 1.671875 1.015625 3.796875q0 2.140625 -1.015625 3.828125q-1.015625 1.671875 -2.796875 2.625q-1.78125 0.9375 -4.046875 0.9375zm0 -3.421875q1.59375 0 2.609375 -1.078125q1.03125 -1.078125 1.03125 -2.890625q0 -1.8125 -1.03125 -2.890625q-1.015625 -1.078125 -2.609375 -1.078125q-1.609375 0 -2.65625 1.078125q-1.03125 1.078125 -1.03125 2.890625q0 1.8125 1.03125 2.890625q1.046875 1.078125 2.65625 1.078125zm15.194153 -10.8125l3.671875 0l0 3.1875l-3.578125 0l0 10.828125l-4.15625 0l0 -10.828125l-2.203125 0l0 -3.1875l2.203125 0l0 -0.640625q0 -2.453125 1.453125 -3.890625q1.453125 -1.4375 4.09375 -1.4375q0.9375 0 1.765625 0.203125q0.84375 0.1875 1.40625 0.5625l-1.09375 3.015625q-0.71875 -0.515625 -1.671875 -0.515625q-1.890625 0 -1.890625 2.078125l0 0.625zm15.003433 13.328125q-0.609375 0.453125 -1.515625 0.6875q-0.890625 0.21875 -1.875 0.21875q-2.5625 0 -3.96875 -1.3125q-1.390625 -1.3125 -1.390625 -3.84375l0 -5.890625l-2.203125 0l0 -3.1875l2.203125 0l0 -3.5l4.15625 0l0 3.5l3.578125 0l0 3.1875l-3.578125 0l0 5.84375q0 0.90625 0.46875 1.40625q0.46875 0.484375 1.328125 0.484375q0.984375 0 1.671875 -0.53125l1.125 2.9375zm19.21724 1.0q-2.90625 0 -5.25 -1.25q-2.328125 -1.25 -3.640625 -3.4375q-1.3125 -2.203125 -1.3125 -4.953125q0 -2.75 1.3125 -4.9375q1.3125 -2.203125 3.640625 -3.453125q2.34375 -1.265625 5.25 -1.265625q2.90625 0 5.21875 1.265625q2.328125 1.25 3.65625 3.453125q1.328125 2.1875 1.328125 4.9375q0 2.75 -1.328125 4.953125q-1.328125 2.1875 -3.65625 3.4375q-2.3125 1.25 -5.21875 1.25zm0 -3.671875q1.65625 0 2.984375 -0.75q1.328125 -0.765625 2.09375 -2.125q0.765625 -1.359375 0.765625 -3.09375q0 -1.734375 -0.765625 -3.09375q-0.765625 -1.359375 -2.09375 -2.109375q-1.328125 -0.765625 -2.984375 -0.765625q-1.65625 0 -2.984375 0.765625q-1.328125 0.75 -2.09375 2.109375q-0.765625 1.359375 -0.765625 3.09375q0 1.734375 0.765625 3.09375q0.765625 1.359375 2.09375 2.125q1.328125 0.75 2.984375 0.75zm17.732147 -10.65625l3.671875 0l0 3.1875l-3.578125 0l0 10.828125l-4.15625 0l0 -10.828125l-2.203125 0l0 -3.1875l2.203125 0l0 -0.640625q0 -2.453125 1.453125 -3.890625q1.453125 -1.4375 4.09375 -1.4375q0.9375 0 1.765625 0.203125q0.84375 0.1875 1.40625 0.5625l-1.09375 3.015625q-0.71875 -0.515625 -1.671875 -0.515625q-1.890625 0 -1.890625 2.078125l0 0.625zm10.3159485 0l3.671875 0l0 3.1875l-3.578125 0l0 10.828125l-4.15625 0l0 -10.828125l-2.203125 0l0 -3.1875l2.203125 0l0 -0.640625q0 -2.453125 1.453125 -3.890625q1.453125 -1.4375 4.09375 -1.4375q0.9375 0 1.765625 0.203125q0.84375 0.1875 1.40625 0.5625l-1.09375 3.015625q-0.71875 -0.515625 -1.671875 -0.515625q-1.890625 0 -1.890625 2.078125l0 0.625zm7.890625 -0.328125l4.15625 0l0 14.34375l-4.15625 0l0 -14.34375zm2.0625 -2.0q-1.140625 0 -1.859375 -0.65625q-0.71875 -0.671875 -0.71875 -1.65625q0 -0.984375 0.71875 -1.65625q0.71875 -0.671875 1.859375 -0.671875q1.15625 0 1.875 0.640625q0.71875 0.640625 0.71875 1.609375q0 1.03125 -0.71875 1.71875q-0.71875 0.671875 -1.875 0.671875zm12.878174 16.5625q-2.28125 0 -4.109375 -0.9375q-1.828125 -0.953125 -2.859375 -2.625q-1.015625 -1.6875 -1.015625 -3.828125q0 -2.125 1.015625 -3.796875q1.03125 -1.6875 2.859375 -2.625q1.828125 -0.953125 4.109375 -0.953125q2.265625 0 3.953125 0.953125q1.703125 0.9375 2.484375 2.6875l-3.234375 1.734375q-1.125 -1.96875 -3.21875 -1.96875q-1.625 0 -2.703125 1.0625q-1.0625 1.0625 -1.0625 2.90625q0 1.84375 1.0625 2.90625q1.078125 1.0625 2.703125 1.0625q2.125 0 3.21875 -1.96875l3.234375 1.765625q-0.78125 1.703125 -2.484375 2.671875q-1.6875 0.953125 -3.953125 0.953125zm22.692108 -7.34375q0 0.09375 -0.078125 1.125l-10.859375 0q0.296875 1.328125 1.390625 2.109375q1.09375 0.765625 2.71875 0.765625q1.125 0 1.984375 -0.328125q0.875 -0.328125 1.609375 -1.046875l2.21875 2.390625q-2.03125 2.328125 -5.921875 2.328125q-2.421875 0 -4.296875 -0.9375q-1.859375 -0.953125 -2.875 -2.625q-1.0 -1.6875 -1.0 -3.828125q0 -2.109375 1.0 -3.796875q1.0 -1.6875 2.734375 -2.625q1.75 -0.953125 3.90625 -0.953125q2.109375 0 3.8125 0.90625q1.703125 0.90625 2.671875 2.59375q0.984375 1.6875 0.984375 3.921875zm-7.4375 -4.28125q-1.40625 0 -2.375 0.796875q-0.953125 0.796875 -1.171875 2.1875l7.0625 0q-0.21875 -1.359375 -1.171875 -2.171875q-0.953125 -0.8125 -2.34375 -0.8125zm25.582458 0.34375q2.453125 0.40625 3.765625 1.828125q1.3125 1.421875 1.3125 3.53125q0 1.625 -0.859375 3.0q-0.859375 1.375 -2.609375 2.203125q-1.734375 0.8125 -4.265625 0.8125q-1.96875 0 -3.875 -0.515625q-1.90625 -0.515625 -3.25 -1.46875l1.6875 -3.3125q1.0625 0.796875 2.453125 1.234375q1.40625 0.4375 2.875 0.4375q1.625 0 2.546875 -0.625q0.9375 -0.625 0.9375 -1.765625q0 -2.296875 -3.484375 -2.296875l-1.96875 0l0 -2.84375l3.828125 -4.34375l-7.9375 0l0 -3.46875l13.0625 0l0 2.796875l-4.21875 4.796875zm16.046082 -0.640625q1.796875 0 3.25 0.71875q1.46875 0.71875 2.328125 2.046875q0.859375 1.3125 0.859375 3.046875q0 1.859375 -0.9375 3.28125q-0.9375 1.40625 -2.546875 2.171875q-1.609375 0.75 -3.578125 0.75q-3.921875 0 -6.140625 -2.390625q-2.203125 -2.40625 -2.203125 -6.859375q0 -3.171875 1.1875 -5.4375q1.203125 -2.265625 3.34375 -3.4375q2.15625 -1.171875 4.984375 -1.171875q1.484375 0 2.859375 0.34375q1.375 0.328125 2.328125 0.9375l-1.59375 3.171875q-1.390625 -0.921875 -3.5 -0.921875q-2.359375 0 -3.75 1.390625q-1.390625 1.375 -1.5 4.015625q1.65625 -1.65625 4.609375 -1.65625zm-0.875 8.796875q1.390625 0 2.25 -0.734375q0.875 -0.75 0.875 -2.03125q0 -1.28125 -0.875 -2.046875q-0.859375 -0.765625 -2.296875 -0.765625q-1.421875 0 -2.328125 0.796875q-0.90625 0.78125 -0.90625 2.015625q0 1.21875 0.875 2.0q0.890625 0.765625 2.40625 0.765625zm15.276855 -8.75q3.9375 0 5.8125 1.578125q1.890625 1.578125 1.890625 4.21875q0 1.703125 -0.859375 3.109375q-0.84375 1.390625 -2.59375 2.234375q-1.75 0.828125 -4.296875 0.828125q-1.984375 0 -3.890625 -0.515625q-1.90625 -0.515625 -3.234375 -1.46875l1.703125 -3.3125q1.0625 0.796875 2.453125 1.234375q1.390625 0.4375 2.859375 0.4375q1.625 0 2.546875 -0.625q0.9375 -0.640625 0.9375 -1.796875q0 -1.203125 -0.96875 -1.8125q-0.96875 -0.609375 -3.375 -0.609375l-4.765625 0l0.953125 -10.5l11.390625 0l0 3.46875l-7.796875 0l-0.28125 3.53125l1.515625 0z" fill-rule="nonzero"/><path fill="#073763" d="m224.03255 228.02486l0 13.328125l-1.71875 0l0 -2.4375q-0.71875 1.21875 -1.96875 1.890625q-1.234375 0.671875 -2.828125 0.671875q-2.609375 0 -4.125 -1.453125q-1.5 -1.453125 -1.5 -4.265625l0 -7.734375l1.796875 0l0 7.546875q0 2.109375 1.03125 3.203125q1.046875 1.078125 2.984375 1.078125q2.09375 0 3.3125 -1.265625q1.21875 -1.28125 1.21875 -3.5625l0 -7.0l1.796875 0zm8.608353 13.453125q-1.625 0 -3.109375 -0.46875q-1.46875 -0.46875 -2.3125 -1.171875l0.8125 -1.421875q0.84375 0.65625 2.109375 1.078125q1.265625 0.421875 2.625 0.421875q1.828125 0 2.703125 -0.5625q0.875 -0.578125 0.875 -1.625q0 -0.734375 -0.484375 -1.140625q-0.484375 -0.421875 -1.21875 -0.640625q-0.734375 -0.21875 -1.953125 -0.421875q-1.609375 -0.296875 -2.609375 -0.609375q-0.984375 -0.328125 -1.6875 -1.078125q-0.6875 -0.765625 -0.6875 -2.109375q0 -1.671875 1.390625 -2.734375q1.390625 -1.0625 3.875 -1.0625q1.296875 0 2.578125 0.34375q1.296875 0.34375 2.140625 0.890625l-0.796875 1.453125q-1.640625 -1.140625 -3.921875 -1.140625q-1.71875 0 -2.59375 0.609375q-0.875 0.609375 -0.875 1.59375q0 0.75 0.484375 1.21875q0.5 0.453125 1.234375 0.671875q0.734375 0.203125 2.03125 0.4375q1.59375 0.296875 2.546875 0.609375q0.96875 0.296875 1.65625 1.03125q0.6875 0.734375 0.6875 2.03125q0 1.75 -1.46875 2.78125q-1.453125 1.015625 -4.03125 1.015625zm20.416718 -6.234375l-11.140625 0q0.140625 2.078125 1.578125 3.359375q1.453125 1.28125 3.65625 1.28125q1.25 0 2.28125 -0.4375q1.046875 -0.453125 1.796875 -1.3125l1.015625 1.171875q-0.890625 1.0625 -2.21875 1.625q-1.328125 0.546875 -2.921875 0.546875q-2.046875 0 -3.640625 -0.875q-1.578125 -0.875 -2.46875 -2.421875q-0.875 -1.546875 -0.875 -3.484375q0 -1.953125 0.84375 -3.5q0.84375 -1.546875 2.328125 -2.40625q1.484375 -0.859375 3.328125 -0.859375q1.84375 0 3.3125 0.859375q1.484375 0.859375 2.3125 2.390625q0.84375 1.53125 0.84375 3.515625l-0.03125 0.546875zm-6.4375 -5.765625q-1.921875 0 -3.234375 1.234375q-1.296875 1.21875 -1.46875 3.1875l9.4375 0q-0.171875 -1.96875 -1.484375 -3.1875q-1.296875 -1.234375 -3.25 -1.234375zm11.860687 1.15625q0.625 -1.34375 1.875 -2.015625q1.265625 -0.6875 3.109375 -0.6875l0 1.75l-0.4375 -0.03125q-2.09375 0 -3.28125 1.296875q-1.1875 1.28125 -1.1875 3.625l0 6.78125l-1.8125 0l0 -13.328125l1.734375 0l0 2.609375zm11.899017 10.84375q-1.625 0 -3.109375 -0.46875q-1.46875 -0.46875 -2.3125 -1.171875l0.8125 -1.421875q0.84375 0.65625 2.109375 1.078125q1.265625 0.421875 2.625 0.421875q1.828125 0 2.703125 -0.5625q0.875 -0.578125 0.875 -1.625q0 -0.734375 -0.484375 -1.140625q-0.484375 -0.421875 -1.21875 -0.640625q-0.734375 -0.21875 -1.953125 -0.421875q-1.609375 -0.296875 -2.609375 -0.609375q-0.984375 -0.328125 -1.6875 -1.078125q-0.6875 -0.765625 -0.6875 -2.109375q0 -1.671875 1.390625 -2.734375q1.390625 -1.0625 3.875 -1.0625q1.296875 0 2.578125 0.34375q1.296875 0.34375 2.140625 0.890625l-0.796875 1.453125q-1.640625 -1.140625 -3.921875 -1.140625q-1.71875 0 -2.59375 0.609375q-0.875 0.609375 -0.875 1.59375q0 0.75 0.484375 1.21875q0.5 0.453125 1.234375 0.671875q0.734375 0.203125 2.03125 0.4375q1.59375 0.296875 2.546875 0.609375q0.96875 0.296875 1.65625 1.03125q0.6875 0.734375 0.6875 2.03125q0 1.75 -1.46875 2.78125q-1.453125 1.015625 -4.03125 1.015625z" fill-rule="nonzero"/><path fill="#ea9999" d="m116.15021 297.83118l0 0c0 -6.4844055 5.2566376 -11.741028 11.741028 -11.741028l0 0c3.113922 0 6.100296 1.2369995 8.30217 3.4388733c2.2018738 2.2018433 3.438858 5.1882324 3.438858 8.302155l0 0c0 6.484375 -5.2566376 11.741028 -11.741028 11.741028l0 0c-6.4843903 0 -11.741028 -5.256653 -11.741028 -11.741028z" fill-rule="evenodd"/><path stroke="#e06666" stroke-width="1.0" stroke-linejoin="round" stroke-linecap="butt" d="m116.15021 297.83118l0 0c0 -6.4844055 5.2566376 -11.741028 11.741028 -11.741028l0 0c3.113922 0 6.100296 1.2369995 8.30217 3.4388733c2.2018738 2.2018433 3.438858 5.1882324 3.438858 8.302155l0 0c0 6.484375 -5.2566376 11.741028 -11.741028 11.741028l0 0c-6.4843903 0 -11.741028 -5.256653 -11.741028 -11.741028z" fill-rule="evenodd"/><path fill="#ea9999" d="m107.62506 327.86636l0 -7.9487l0 0c0 -4.3899536 9.073479 -7.9487 20.266174 -7.9487c11.192703 0 20.266174 3.5587463 20.266174 7.9487l0 7.9487z" fill-rule="evenodd"/><path stroke="#e06666" stroke-width="1.0" stroke-linejoin="round" stroke-linecap="butt" d="m107.62506 327.86636l0 -7.9487l0 0c0 -4.3899536 9.073479 -7.9487 20.266174 -7.9487c11.192703 0 20.266174 3.5587463 20.266174 7.9487l0 7.9487z" fill-rule="evenodd"/><path fill="#ea9999" d="m162.3862 297.83118l0 0c0 -6.4844055 5.256653 -11.741028 11.741043 -11.741028l0 0c3.1139069 0 6.100281 1.2369995 8.302155 3.4388733c2.2018738 2.2018433 3.4388733 5.1882324 3.4388733 8.302155l0 0c0 6.484375 -5.2566376 11.741028 -11.741028 11.741028l0 0c-6.4843903 0 -11.741043 -5.256653 -11.741043 -11.741028z" fill-rule="evenodd"/><path stroke="#e06666" stroke-width="1.0" stroke-linejoin="round" stroke-linecap="butt" d="m162.3862 297.83118l0 0c0 -6.4844055 5.256653 -11.741028 11.741043 -11.741028l0 0c3.1139069 0 6.100281 1.2369995 8.302155 3.4388733c2.2018738 2.2018433 3.4388733 5.1882324 3.4388733 8.302155l0 0c0 6.484375 -5.2566376 11.741028 -11.741028 11.741028l0 0c-6.4843903 0 -11.741043 -5.256653 -11.741043 -11.741028z" fill-rule="evenodd"/><path fill="#ea9999" d="m153.86107 327.86636l0 -7.9487l0 0c0 -4.3899536 9.073471 -7.9487 20.266174 -7.9487c11.192688 0 20.266174 3.5587463 20.266174 7.9487l0 7.9487z" fill-rule="evenodd"/><path stroke="#e06666" stroke-width="1.0" stroke-linejoin="round" stroke-linecap="butt" d="m153.86107 327.86636l0 -7.9487l0 0c0 -4.3899536 9.073471 -7.9487 20.266174 -7.9487c11.192688 0 20.266174 3.5587463 20.266174 7.9487l0 7.9487z" fill-rule="evenodd"/><path fill="#ea9999" d="m208.62221 297.83118l0 0c0 -6.4844055 5.2566376 -11.741028 11.741028 -11.741028l0 0c3.113922 0 6.100296 1.2369995 8.30217 3.4388733c2.2018738 2.2018433 3.438858 5.1882324 3.438858 8.302155l0 0c0 6.484375 -5.2566376 11.741028 -11.741028 11.741028l0 0c-6.4843903 0 -11.741028 -5.256653 -11.741028 -11.741028z" fill-rule="evenodd"/><path stroke="#e06666" stroke-width="1.0" stroke-linejoin="round" stroke-linecap="butt" d="m208.62221 297.83118l0 0c0 -6.4844055 5.2566376 -11.741028 11.741028 -11.741028l0 0c3.113922 0 6.100296 1.2369995 8.30217 3.4388733c2.2018738 2.2018433 3.438858 5.1882324 3.438858 8.302155l0 0c0 6.484375 -5.2566376 11.741028 -11.741028 11.741028l0 0c-6.4843903 0 -11.741028 -5.256653 -11.741028 -11.741028z" fill-rule="evenodd"/><path fill="#ea9999" d="m200.09706 327.86636l0 -7.9487l0 0c0 -4.3899536 9.073471 -7.9487 20.266174 -7.9487c11.192703 0 20.266174 3.5587463 20.266174 7.9487l0 7.9487z" fill-rule="evenodd"/><path stroke="#e06666" stroke-width="1.0" stroke-linejoin="round" stroke-linecap="butt" d="m200.09706 327.86636l0 -7.9487l0 0c0 -4.3899536 9.073471 -7.9487 20.266174 -7.9487c11.192703 0 20.266174 3.5587463 20.266174 7.9487l0 7.9487z" fill-rule="evenodd"/><path fill="#ea9999" d="m254.13513 297.83118l0 0c0 -6.4844055 5.256653 -11.741028 11.741028 -11.741028l0 0c3.113922 0 6.1003113 1.2369995 8.302185 3.4388733c2.2018433 2.2018433 3.4388428 5.1882324 3.4388428 8.302155l0 0c0 6.484375 -5.2566223 11.741028 -11.741028 11.741028l0 0c-6.484375 0 -11.741028 -5.256653 -11.741028 -11.741028z" fill-rule="evenodd"/><path stroke="#e06666" stroke-width="1.0" stroke-linejoin="round" stroke-linecap="butt" d="m254.13513 297.83118l0 0c0 -6.4844055 5.256653 -11.741028 11.741028 -11.741028l0 0c3.113922 0 6.1003113 1.2369995 8.302185 3.4388733c2.2018433 2.2018433 3.4388428 5.1882324 3.4388428 8.302155l0 0c0 6.484375 -5.2566223 11.741028 -11.741028 11.741028l0 0c-6.484375 0 -11.741028 -5.256653 -11.741028 -11.741028z" fill-rule="evenodd"/><path fill="#ea9999" d="m245.61 327.86636l0 -7.9487l0 0c0 -4.3899536 9.073471 -7.9487 20.26616 -7.9487c11.1927185 0 20.266174 3.5587463 20.266174 7.9487l0 7.9487z" fill-rule="evenodd"/><path stroke="#e06666" stroke-width="1.0" stroke-linejoin="round" stroke-linecap="butt" d="m245.61 327.86636l0 -7.9487l0 0c0 -4.3899536 9.073471 -7.9487 20.26616 -7.9487c11.1927185 0 20.266174 3.5587463 20.266174 7.9487l0 7.9487z" fill-rule="evenodd"/><path fill="#ea9999" d="m300.37112 297.83118l0 0c0 -6.4844055 5.256653 -11.741028 11.741058 -11.741028l0 0c3.1138916 0 6.100281 1.2369995 8.302155 3.4388733c2.2018738 2.2018433 3.4388733 5.1882324 3.4388733 8.302155l0 0c0 6.484375 -5.256653 11.741028 -11.741028 11.741028l0 0c-6.4844055 0 -11.741058 -5.256653 -11.741058 -11.741028z" fill-rule="evenodd"/><path stroke="#e06666" stroke-width="1.0" stroke-linejoin="round" stroke-linecap="butt" d="m300.37112 297.83118l0 0c0 -6.4844055 5.256653 -11.741028 11.741058 -11.741028l0 0c3.1138916 0 6.100281 1.2369995 8.302155 3.4388733c2.2018738 2.2018433 3.4388733 5.1882324 3.4388733 8.302155l0 0c0 6.484375 -5.256653 11.741028 -11.741028 11.741028l0 0c-6.4844055 0 -11.741058 -5.256653 -11.741058 -11.741028z" fill-rule="evenodd"/><path fill="#ea9999" d="m291.846 327.86636l0 -7.9487l0 0c0 -4.3899536 9.073456 -7.9487 20.266174 -7.9487c11.192688 0 20.266174 3.5587463 20.266174 7.9487l0 7.9487z" fill-rule="evenodd"/><path stroke="#e06666" stroke-width="1.0" stroke-linejoin="round" stroke-linecap="butt" d="m291.846 327.86636l0 -7.9487l0 0c0 -4.3899536 9.073456 -7.9487 20.266174 -7.9487c11.192688 0 20.266174 3.5587463 20.266174 7.9487l0 7.9487z" fill-rule="evenodd"/><path fill="#ea9999" d="m346.60715 297.83118l0 0c0 -6.4844055 5.2566223 -11.741028 11.741028 -11.741028l0 0c3.113922 0 6.100281 1.2369995 8.302155 3.4388733c2.2018738 2.2018433 3.4388733 5.1882324 3.4388733 8.302155l0 0c0 6.484375 -5.256653 11.741028 -11.741028 11.741028l0 0c-6.4844055 0 -11.741028 -5.256653 -11.741028 -11.741028z" fill-rule="evenodd"/><path stroke="#e06666" stroke-width="1.0" stroke-linejoin="round" stroke-linecap="butt" d="m346.60715 297.83118l0 0c0 -6.4844055 5.2566223 -11.741028 11.741028 -11.741028l0 0c3.113922 0 6.100281 1.2369995 8.302155 3.4388733c2.2018738 2.2018433 3.4388733 5.1882324 3.4388733 8.302155l0 0c0 6.484375 -5.256653 11.741028 -11.741028 11.741028l0 0c-6.4844055 0 -11.741028 -5.256653 -11.741028 -11.741028z" fill-rule="evenodd"/><path fill="#ea9999" d="m338.082 327.86636l0 -7.9487l0 0c0 -4.3899536 9.073456 -7.9487 20.266174 -7.9487c11.192688 0 20.266174 3.5587463 20.266174 7.9487l0 7.9487z" fill-rule="evenodd"/><path stroke="#e06666" stroke-width="1.0" stroke-linejoin="round" stroke-linecap="butt" d="m338.082 327.86636l0 -7.9487l0 0c0 -4.3899536 9.073456 -7.9487 20.266174 -7.9487c11.192688 0 20.266174 3.5587463 20.266174 7.9487l0 7.9487z" fill-rule="evenodd"/><path fill="#f3f3f3" d="m494.25723 96.811455l437.5118 0l0 319.74802l-437.5118 0z" fill-rule="evenodd"/><path stroke="#efefef" stroke-width="1.0" stroke-linejoin="round" stroke-linecap="butt" d="m494.25723 96.811455l437.5118 0l0 319.74802l-437.5118 0z" fill-rule="evenodd"/><path fill="#cfe2f3" d="m524.19556 171.99615l0 0c0 -18.624405 15.0980835 -33.722473 33.722473 -33.722473l310.16138 0c8.943726 0 17.52118 3.5529022 23.845398 9.87709c6.3241577 6.324188 9.877075 14.901627 9.877075 23.845383l0 134.88577c0 18.62442 -15.0980835 33.722473 -33.722473 33.722473l-310.16138 0c-18.62439 0 -33.722473 -15.098053 -33.722473 -33.722473z" fill-rule="evenodd"/><path stroke="#9fc5e8" stroke-width="1.0" stroke-linejoin="round" stroke-linecap="butt" d="m524.19556 171.99615l0 0c0 -18.624405 15.0980835 -33.722473 33.722473 -33.722473l310.16138 0c8.943726 0 17.52118 3.5529022 23.845398 9.87709c6.3241577 6.324188 9.877075 14.901627 9.877075 23.845383l0 134.88577c0 18.62442 -15.0980835 33.722473 -33.722473 33.722473l-310.16138 0c-18.62439 0 -33.722473 -15.098053 -33.722473 -33.722473z" fill-rule="evenodd"/><path fill="#000000" fill-opacity="0.0" d="m515.8551 285.37634l393.3228 0l0 122.61417l-393.3228 0z" fill-rule="evenodd"/><path fill="#434343" d="m606.6423 383.78217l0 6.78125l-2.03125 0l0 -6.78125l-7.84375 -12.8125l2.203125 0l6.71875 11.0l6.734375 -11.0l2.0625 0l-7.84375 12.8125zm14.990723 6.921875q-2.140625 0 -3.84375 -0.96875q-1.703125 -0.96875 -2.6875 -2.671875q-0.984375 -1.703125 -0.984375 -3.859375q0 -2.15625 0.984375 -3.859375q0.984375 -1.71875 2.6875 -2.671875q1.703125 -0.953125 3.84375 -0.953125q2.125 0 3.828125 0.953125q1.71875 0.953125 2.671875 2.671875q0.96875 1.703125 0.96875 3.859375q0 2.15625 -0.96875 3.859375q-0.953125 1.703125 -2.671875 2.671875q-1.703125 0.96875 -3.828125 0.96875zm0 -1.765625q1.5625 0 2.8125 -0.703125q1.25 -0.71875 1.9375 -2.03125q0.703125 -1.328125 0.703125 -3.0q0 -1.6875 -0.703125 -3.0q-0.6875 -1.3125 -1.9375 -2.03125q-1.25 -0.71875 -2.8125 -0.71875q-1.578125 0 -2.828125 0.71875q-1.234375 0.71875 -1.953125 2.03125q-0.71875 1.3125 -0.71875 3.0q0 1.671875 0.71875 3.0q0.71875 1.3125 1.953125 2.03125q1.25 0.703125 2.828125 0.703125zm24.80603 -13.109375l0 14.734375l-1.90625 0l0 -2.6875q-0.78125 1.34375 -2.15625 2.09375q-1.375 0.734375 -3.140625 0.734375q-2.875 0 -4.546875 -1.609375q-1.671875 -1.609375 -1.671875 -4.71875l0 -8.546875l2.0 0l0 8.34375q0 2.328125 1.140625 3.53125q1.15625 1.203125 3.28125 1.203125q2.328125 0 3.671875 -1.40625q1.34375 -1.421875 1.34375 -3.9375l0 -7.734375l1.984375 0zm7.469116 2.890625q0.703125 -1.484375 2.078125 -2.234375q1.390625 -0.765625 3.4375 -0.765625l0 1.9375l-0.46875 -0.03125q-2.328125 0 -3.640625 1.4375q-1.3125 1.421875 -1.3125 4.0l0 7.5l-2.0 0l0 -14.734375l1.90625 0l0 2.890625zm22.767212 11.984375q-2.1875 0 -3.90625 -0.953125q-1.71875 -0.953125 -2.703125 -2.671875q-0.984375 -1.71875 -0.984375 -3.875q0 -2.15625 0.984375 -3.859375q0.984375 -1.71875 2.703125 -2.671875q1.71875 -0.953125 3.90625 -0.953125q1.90625 0 3.40625 0.75q1.5 0.734375 2.359375 2.171875l-1.484375 1.0q-0.71875 -1.09375 -1.84375 -1.640625q-1.125 -0.546875 -2.4375 -0.546875q-1.59375 0 -2.875 0.71875q-1.265625 0.71875 -1.984375 2.03125q-0.71875 1.3125 -0.71875 3.0q0 1.703125 0.71875 3.015625q0.71875 1.296875 1.984375 2.015625q1.28125 0.703125 2.875 0.703125q1.3125 0 2.4375 -0.53125q1.125 -0.53125 1.84375 -1.625l1.484375 1.015625q-0.859375 1.421875 -2.375 2.171875q-1.515625 0.734375 -3.390625 0.734375zm15.433899 0q-2.140625 0 -3.84375 -0.96875q-1.703125 -0.96875 -2.6875 -2.671875q-0.984375 -1.703125 -0.984375 -3.859375q0 -2.15625 0.984375 -3.859375q0.984375 -1.71875 2.6875 -2.671875q1.703125 -0.953125 3.84375 -0.953125q2.125 0 3.828125 0.953125q1.71875 0.953125 2.671875 2.671875q0.96875 1.703125 0.96875 3.859375q0 2.15625 -0.96875 3.859375q-0.953125 1.703125 -2.671875 2.671875q-1.703125 0.96875 -3.828125 0.96875zm0 -1.765625q1.5625 0 2.8125 -0.703125q1.25 -0.71875 1.9375 -2.03125q0.703125 -1.328125 0.703125 -3.0q0 -1.6875 -0.703125 -3.0q-0.6875 -1.3125 -1.9375 -2.03125q-1.25 -0.71875 -2.8125 -0.71875q-1.578125 0 -2.828125 0.71875q-1.234375 0.71875 -1.953125 2.03125q-0.71875 1.3125 -0.71875 3.0q0 1.671875 0.71875 3.0q0.71875 1.3125 1.953125 2.03125q1.25 0.703125 2.828125 0.703125zm29.899841 -13.21875q2.765625 0 4.34375 1.609375q1.59375 1.59375 1.59375 4.6875l0 8.546875l-1.984375 0l0 -8.34375q0 -2.296875 -1.109375 -3.5q-1.109375 -1.203125 -3.125 -1.203125q-2.296875 0 -3.609375 1.421875q-1.3125 1.40625 -1.3125 3.890625l0 7.734375l-2.0 0l0 -8.34375q0 -2.296875 -1.109375 -3.5q-1.09375 -1.203125 -3.140625 -1.203125q-2.265625 0 -3.59375 1.421875q-1.328125 1.40625 -1.328125 3.890625l0 7.734375l-2.0 0l0 -14.734375l1.90625 0l0 2.6875q0.78125 -1.34375 2.1875 -2.0625q1.40625 -0.734375 3.21875 -0.734375q1.84375 0 3.203125 0.796875q1.359375 0.78125 2.03125 2.3125q0.8125 -1.453125 2.34375 -2.28125q1.53125 -0.828125 3.484375 -0.828125zm18.92688 0q2.078125 0 3.75 0.9375q1.6875 0.9375 2.640625 2.65625q0.953125 1.703125 0.953125 3.890625q0 2.203125 -0.953125 3.921875q-0.953125 1.703125 -2.625 2.640625q-1.671875 0.9375 -3.765625 0.9375q-1.796875 0 -3.234375 -0.734375q-1.4375 -0.75 -2.359375 -2.171875l0 8.203125l-2.0 0l0 -20.171875l1.90625 0l0 2.921875q0.90625 -1.453125 2.375 -2.234375q1.46875 -0.796875 3.3125 -0.796875zm-0.140625 13.21875q1.546875 0 2.796875 -0.703125q1.265625 -0.71875 1.96875 -2.03125q0.71875 -1.328125 0.71875 -3.0q0 -1.6875 -0.71875 -2.984375q-0.703125 -1.296875 -1.96875 -2.03125q-1.25 -0.734375 -2.796875 -0.734375q-1.5625 0 -2.8125 0.734375q-1.25 0.734375 -1.96875 2.03125q-0.703125 1.296875 -0.703125 2.984375q0 1.671875 0.703125 3.0q0.71875 1.3125 1.96875 2.03125q1.25 0.703125 2.8125 0.703125zm16.60321 -13.21875q2.890625 0 4.421875 1.453125q1.546875 1.4375 1.546875 4.265625l0 9.125l-1.90625 0l0 -2.296875q-0.671875 1.15625 -1.984375 1.796875q-1.296875 0.640625 -3.078125 0.640625q-2.46875 0 -3.921875 -1.171875q-1.453125 -1.1875 -1.453125 -3.109375q0 -1.875 1.34375 -3.015625q1.359375 -1.15625 4.328125 -1.15625l4.6875 0l0 -0.90625q0 -1.890625 -1.078125 -2.890625q-1.0625 -1.0 -3.09375 -1.0q-1.40625 0 -2.703125 0.46875q-1.28125 0.453125 -2.203125 1.265625l-0.890625 -1.484375q1.109375 -0.9375 2.671875 -1.453125q1.578125 -0.53125 3.3125 -0.53125zm-0.703125 13.421875q1.6875 0 2.890625 -0.765625q1.203125 -0.78125 1.796875 -2.234375l0 -2.40625l-4.625 0q-3.78125 0 -3.78125 2.625q0 1.296875 0.96875 2.046875q0.984375 0.734375 2.75 0.734375zm19.58258 -13.421875q2.765625 0 4.40625 1.609375q1.640625 1.609375 1.640625 4.6875l0 8.546875l-1.984375 0l0 -8.34375q0 -2.296875 -1.15625 -3.5q-1.140625 -1.203125 -3.28125 -1.203125q-2.375 0 -3.765625 1.421875q-1.375 1.40625 -1.375 3.890625l0 7.734375l-2.0 0l0 -14.734375l1.90625 0l0 2.71875q0.8125 -1.34375 2.25 -2.078125q1.453125 -0.75 3.359375 -0.75zm23.535461 0.109375l-7.359375 16.5q-0.890625 2.078125 -2.078125 2.9375q-1.171875 0.875 -2.8125 0.875q-1.078125 0 -2.0 -0.34375q-0.921875 -0.328125 -1.59375 -1.0l0.921875 -1.484375q1.125 1.109375 2.6875 1.109375q1.015625 0 1.71875 -0.5625q0.71875 -0.546875 1.34375 -1.890625l0.640625 -1.4375l-6.578125 -14.703125l2.0625 0l5.546875 12.515625l5.546875 -12.515625l1.953125 0zm22.918335 4.625q1.921875 0.421875 2.96875 1.671875q1.0625 1.234375 1.0625 3.203125q0 2.515625 -1.875 3.875q-1.859375 1.359375 -5.5 1.359375l-9.015625 0l0 -19.59375l8.453125 0q3.28125 0 5.078125 1.3125q1.8125 1.3125 1.8125 3.71875q0 1.625 -0.796875 2.765625q-0.796875 1.125 -2.1875 1.6875zm-10.28125 -7.78125l0 7.109375l6.25 0q2.375 0 3.65625 -0.90625q1.296875 -0.90625 1.296875 -2.65625q0 -1.734375 -1.296875 -2.640625q-1.28125 -0.90625 -3.65625 -0.90625l-6.25 0zm6.921875 16.1875q2.625 0 3.96875 -0.890625q1.34375 -0.90625 1.34375 -2.8125q0 -3.671875 -5.3125 -3.671875l-6.921875 0l0 7.375l6.921875 0z" fill-rule="nonzero"/><path fill="#000000" fill-opacity="0.0" d="m526.5797 166.03299l372.8504 0l0 102.677155l-372.8504 0z" fill-rule="evenodd"/><path fill="#073763" d="m591.7679 210.63298l-0.015625 -11.203125l-5.5 9.234375l-1.9375 0l-5.46875 -8.984375l0 10.953125l-4.046875 0l0 -18.65625l3.5625 0l6.984375 11.59375l6.875 -11.59375l3.546875 0l0.0625 18.65625l-4.0625 0zm8.19104 -14.34375l4.15625 0l0 14.34375l-4.15625 0l0 -14.34375zm2.078125 -2.0q-1.140625 0 -1.859375 -0.65625q-0.71875 -0.671875 -0.71875 -1.65625q0 -0.984375 0.71875 -1.65625q0.71875 -0.671875 1.859375 -0.671875q1.15625 0 1.875 0.640625q0.71875 0.640625 0.71875 1.609375q0 1.03125 -0.71875 1.71875q-0.71875 0.671875 -1.875 0.671875zm12.867249 16.5625q-2.28125 0 -4.109375 -0.9375q-1.828125 -0.953125 -2.859375 -2.625q-1.015625 -1.6875 -1.015625 -3.828125q0 -2.125 1.015625 -3.796875q1.03125 -1.6875 2.859375 -2.625q1.828125 -0.953125 4.109375 -0.953125q2.265625 0 3.953125 0.953125q1.703125 0.9375 2.484375 2.6875l-3.234375 1.734375q-1.125 -1.96875 -3.21875 -1.96875q-1.625 0 -2.703125 1.0625q-1.0625 1.0625 -1.0625 2.90625q0 1.84375 1.0625 2.90625q1.078125 1.0625 2.703125 1.0625q2.125 0 3.21875 -1.96875l3.234375 1.765625q-0.78125 1.703125 -2.484375 2.671875q-1.6875 0.953125 -3.953125 0.953125zm12.800659 -12.671875q0.75 -1.03125 2.015625 -1.5625q1.265625 -0.53125 2.921875 -0.53125l0 3.828125q-0.703125 -0.046875 -0.9375 -0.046875q-1.78125 0 -2.796875 1.0q-1.015625 1.0 -1.015625 3.0l0 6.765625l-4.15625 0l0 -14.34375l3.96875 0l0 1.890625zm14.108154 12.671875q-2.265625 0 -4.078125 -0.9375q-1.796875 -0.953125 -2.8125 -2.625q-1.0 -1.6875 -1.0 -3.828125q0 -2.125 1.0 -3.796875q1.015625 -1.6875 2.8125 -2.625q1.8125 -0.953125 4.078125 -0.953125q2.265625 0 4.046875 0.953125q1.78125 0.9375 2.796875 2.625q1.015625 1.671875 1.015625 3.796875q0 2.140625 -1.015625 3.828125q-1.015625 1.671875 -2.796875 2.625q-1.78125 0.9375 -4.046875 0.9375zm0 -3.421875q1.59375 0 2.609375 -1.078125q1.03125 -1.078125 1.03125 -2.890625q0 -1.8125 -1.03125 -2.890625q-1.015625 -1.078125 -2.609375 -1.078125q-1.609375 0 -2.65625 1.078125q-1.03125 1.078125 -1.03125 2.890625q0 1.8125 1.03125 2.890625q1.046875 1.078125 2.65625 1.078125zm15.459778 3.421875q-1.796875 0 -3.5 -0.4375q-1.703125 -0.453125 -2.71875 -1.109375l1.390625 -2.984375q0.953125 0.609375 2.3125 1.0q1.359375 0.375 2.671875 0.375q2.640625 0 2.640625 -1.296875q0 -0.609375 -0.71875 -0.875q-0.71875 -0.28125 -2.21875 -0.46875q-1.765625 -0.265625 -2.90625 -0.609375q-1.140625 -0.34375 -1.984375 -1.21875q-0.84375 -0.890625 -0.84375 -2.515625q0 -1.359375 0.78125 -2.40625q0.796875 -1.046875 2.296875 -1.625q1.515625 -0.59375 3.5625 -0.59375q1.515625 0 3.015625 0.328125q1.515625 0.328125 2.5 0.921875l-1.375 2.953125q-1.90625 -1.0625 -4.140625 -1.0625q-1.328125 0 -2.0 0.375q-0.671875 0.375 -0.671875 0.953125q0 0.671875 0.71875 0.9375q0.734375 0.265625 2.296875 0.5q1.765625 0.296875 2.875 0.640625q1.125 0.328125 1.953125 1.203125q0.828125 0.875 0.828125 2.453125q0 1.328125 -0.796875 2.375q-0.796875 1.03125 -2.34375 1.609375q-1.53125 0.578125 -3.625 0.578125zm16.154419 0q-2.265625 0 -4.078125 -0.9375q-1.796875 -0.953125 -2.8125 -2.625q-1.0 -1.6875 -1.0 -3.828125q0 -2.125 1.0 -3.796875q1.015625 -1.6875 2.8125 -2.625q1.8125 -0.953125 4.078125 -0.953125q2.265625 0 4.046875 0.953125q1.78125 0.9375 2.796875 2.625q1.015625 1.671875 1.015625 3.796875q0 2.140625 -1.015625 3.828125q-1.015625 1.671875 -2.796875 2.625q-1.78125 0.9375 -4.046875 0.9375zm0 -3.421875q1.59375 0 2.609375 -1.078125q1.03125 -1.078125 1.03125 -2.890625q0 -1.8125 -1.03125 -2.890625q-1.015625 -1.078125 -2.609375 -1.078125q-1.609375 0 -2.65625 1.078125q-1.03125 1.078125 -1.03125 2.890625q0 1.8125 1.03125 2.890625q1.046875 1.078125 2.65625 1.078125zm15.194153 -10.8125l3.671875 0l0 3.1875l-3.578125 0l0 10.828125l-4.15625 0l0 -10.828125l-2.203125 0l0 -3.1875l2.203125 0l0 -0.640625q0 -2.453125 1.453125 -3.890625q1.453125 -1.4375 4.09375 -1.4375q0.9375 0 1.765625 0.203125q0.84375 0.1875 1.40625 0.5625l-1.09375 3.015625q-0.71875 -0.515625 -1.671875 -0.515625q-1.890625 0 -1.890625 2.078125l0 0.625zm15.003418 13.328125q-0.609375 0.453125 -1.515625 0.6875q-0.890625 0.21875 -1.875 0.21875q-2.5625 0 -3.96875 -1.3125q-1.390625 -1.3125 -1.390625 -3.84375l0 -5.890625l-2.203125 0l0 -3.1875l2.203125 0l0 -3.5l4.15625 0l0 3.5l3.578125 0l0 3.1875l-3.578125 0l0 5.84375q0 0.90625 0.46875 1.40625q0.46875 0.484375 1.328125 0.484375q0.984375 0 1.671875 -0.53125l1.125 2.9375zm19.217224 1.0q-2.90625 0 -5.25 -1.25q-2.328125 -1.25 -3.640625 -3.4375q-1.3125 -2.203125 -1.3125 -4.953125q0 -2.75 1.3125 -4.9375q1.3125 -2.203125 3.640625 -3.453125q2.34375 -1.265625 5.25 -1.265625q2.90625 0 5.21875 1.265625q2.328125 1.25 3.65625 3.453125q1.328125 2.1875 1.328125 4.9375q0 2.75 -1.328125 4.953125q-1.328125 2.1875 -3.65625 3.4375q-2.3125 1.25 -5.21875 1.25zm0 -3.671875q1.65625 0 2.984375 -0.75q1.328125 -0.765625 2.09375 -2.125q0.765625 -1.359375 0.765625 -3.09375q0 -1.734375 -0.765625 -3.09375q-0.765625 -1.359375 -2.09375 -2.109375q-1.328125 -0.765625 -2.984375 -0.765625q-1.65625 0 -2.984375 0.765625q-1.328125 0.75 -2.09375 2.109375q-0.765625 1.359375 -0.765625 3.09375q0 1.734375 0.765625 3.09375q0.765625 1.359375 2.09375 2.125q1.328125 0.75 2.984375 0.75zm17.732178 -10.65625l3.671875 0l0 3.1875l-3.578125 0l0 10.828125l-4.15625 0l0 -10.828125l-2.203125 0l0 -3.1875l2.203125 0l0 -0.640625q0 -2.453125 1.453125 -3.890625q1.453125 -1.4375 4.09375 -1.4375q0.9375 0 1.765625 0.203125q0.84375 0.1875 1.40625 0.5625l-1.09375 3.015625q-0.71875 -0.515625 -1.671875 -0.515625q-1.890625 0 -1.890625 2.078125l0 0.625zm10.315918 0l3.671875 0l0 3.1875l-3.578125 0l0 10.828125l-4.15625 0l0 -10.828125l-2.203125 0l0 -3.1875l2.203125 0l0 -0.640625q0 -2.453125 1.453125 -3.890625q1.453125 -1.4375 4.09375 -1.4375q0.9375 0 1.765625 0.203125q0.84375 0.1875 1.40625 0.5625l-1.09375 3.015625q-0.71875 -0.515625 -1.671875 -0.515625q-1.890625 0 -1.890625 2.078125l0 0.625zm7.890625 -0.328125l4.15625 0l0 14.34375l-4.15625 0l0 -14.34375zm2.0625 -2.0q-1.140625 0 -1.859375 -0.65625q-0.71875 -0.671875 -0.71875 -1.65625q0 -0.984375 0.71875 -1.65625q0.71875 -0.671875 1.859375 -0.671875q1.15625 0 1.875 0.640625q0.71875 0.640625 0.71875 1.609375q0 1.03125 -0.71875 1.71875q-0.71875 0.671875 -1.875 0.671875zm12.878174 16.5625q-2.28125 0 -4.109375 -0.9375q-1.828125 -0.953125 -2.859375 -2.625q-1.015625 -1.6875 -1.015625 -3.828125q0 -2.125 1.015625 -3.796875q1.03125 -1.6875 2.859375 -2.625q1.828125 -0.953125 4.109375 -0.953125q2.265625 0 3.953125 0.953125q1.703125 0.9375 2.484375 2.6875l-3.234375 1.734375q-1.125 -1.96875 -3.21875 -1.96875q-1.625 0 -2.703125 1.0625q-1.0625 1.0625 -1.0625 2.90625q0 1.84375 1.0625 2.90625q1.078125 1.0625 2.703125 1.0625q2.125 0 3.21875 -1.96875l3.234375 1.765625q-0.78125 1.703125 -2.484375 2.671875q-1.6875 0.953125 -3.953125 0.953125zm22.692139 -7.34375q0 0.09375 -0.078125 1.125l-10.859375 0q0.296875 1.328125 1.390625 2.109375q1.09375 0.765625 2.71875 0.765625q1.125 0 1.984375 -0.328125q0.875 -0.328125 1.609375 -1.046875l2.21875 2.390625q-2.03125 2.328125 -5.921875 2.328125q-2.421875 0 -4.296875 -0.9375q-1.859375 -0.953125 -2.875 -2.625q-1.0 -1.6875 -1.0 -3.828125q0 -2.109375 1.0 -3.796875q1.0 -1.6875 2.734375 -2.625q1.75 -0.953125 3.90625 -0.953125q2.109375 0 3.8125 0.90625q1.703125 0.90625 2.671875 2.59375q0.984375 1.6875 0.984375 3.921875zm-7.4375 -4.28125q-1.40625 0 -2.375 0.796875q-0.953125 0.796875 -1.171875 2.1875l7.0625 0q-0.21875 -1.359375 -1.171875 -2.171875q-0.953125 -0.8125 -2.34375 -0.8125zm25.582458 0.34375q2.453125 0.40625 3.765625 1.828125q1.3125 1.421875 1.3125 3.53125q0 1.625 -0.859375 3.0q-0.859375 1.375 -2.609375 2.203125q-1.734375 0.8125 -4.265625 0.8125q-1.96875 0 -3.875 -0.515625q-1.90625 -0.515625 -3.25 -1.46875l1.6875 -3.3125q1.0625 0.796875 2.453125 1.234375q1.40625 0.4375 2.875 0.4375q1.625 0 2.546875 -0.625q0.9375 -0.625 0.9375 -1.765625q0 -2.296875 -3.484375 -2.296875l-1.96875 0l0 -2.84375l3.828125 -4.34375l-7.9375 0l0 -3.46875l13.0625 0l0 2.796875l-4.21875 4.796875zm16.046082 -0.640625q1.796875 0 3.25 0.71875q1.46875 0.71875 2.328125 2.046875q0.859375 1.3125 0.859375 3.046875q0 1.859375 -0.9375 3.28125q-0.9375 1.40625 -2.546875 2.171875q-1.609375 0.75 -3.578125 0.75q-3.921875 0 -6.140625 -2.390625q-2.203125 -2.40625 -2.203125 -6.859375q0 -3.171875 1.1875 -5.4375q1.203125 -2.265625 3.34375 -3.4375q2.15625 -1.171875 4.984375 -1.171875q1.484375 0 2.859375 0.34375q1.375 0.328125 2.328125 0.9375l-1.59375 3.171875q-1.390625 -0.921875 -3.5 -0.921875q-2.359375 0 -3.75 1.390625q-1.390625 1.375 -1.5 4.015625q1.65625 -1.65625 4.609375 -1.65625zm-0.875 8.796875q1.390625 0 2.25 -0.734375q0.875 -0.75 0.875 -2.03125q0 -1.28125 -0.875 -2.046875q-0.859375 -0.765625 -2.296875 -0.765625q-1.421875 0 -2.328125 0.796875q-0.90625 0.78125 -0.90625 2.015625q0 1.21875 0.875 2.0q0.890625 0.765625 2.40625 0.765625zm15.276855 -8.75q3.9375 0 5.8125 1.578125q1.890625 1.578125 1.890625 4.21875q0 1.703125 -0.859375 3.109375q-0.84375 1.390625 -2.59375 2.234375q-1.75 0.828125 -4.296875 0.828125q-1.984375 0 -3.890625 -0.515625q-1.90625 -0.515625 -3.234375 -1.46875l1.703125 -3.3125q1.0625 0.796875 2.453125 1.234375q1.390625 0.4375 2.859375 0.4375q1.625 0 2.546875 -0.625q0.9375 -0.640625 0.9375 -1.796875q0 -1.203125 -0.96875 -1.8125q-0.96875 -0.609375 -3.375 -0.609375l-4.765625 0l0.953125 -10.5l11.390625 0l0 3.46875l-7.796875 0l-0.28125 3.53125l1.515625 0z" fill-rule="nonzero"/><path fill="#073763" d="m693.9354 228.02486l0 13.328125l-1.71875 0l0 -2.4375q-0.71875 1.21875 -1.96875 1.890625q-1.234375 0.671875 -2.828125 0.671875q-2.609375 0 -4.125 -1.453125q-1.5 -1.453125 -1.5 -4.265625l0 -7.734375l1.796875 0l0 7.546875q0 2.109375 1.03125 3.203125q1.046875 1.078125 2.984375 1.078125q2.09375 0 3.3125 -1.265625q1.21875 -1.28125 1.21875 -3.5625l0 -7.0l1.796875 0zm8.608337 13.453125q-1.625 0 -3.109375 -0.46875q-1.46875 -0.46875 -2.3125 -1.171875l0.8125 -1.421875q0.84375 0.65625 2.109375 1.078125q1.265625 0.421875 2.625 0.421875q1.828125 0 2.703125 -0.5625q0.875 -0.578125 0.875 -1.625q0 -0.734375 -0.484375 -1.140625q-0.484375 -0.421875 -1.21875 -0.640625q-0.734375 -0.21875 -1.953125 -0.421875q-1.609375 -0.296875 -2.609375 -0.609375q-0.984375 -0.328125 -1.6875 -1.078125q-0.6875 -0.765625 -0.6875 -2.109375q0 -1.671875 1.390625 -2.734375q1.390625 -1.0625 3.875 -1.0625q1.296875 0 2.578125 0.34375q1.296875 0.34375 2.140625 0.890625l-0.796875 1.453125q-1.640625 -1.140625 -3.921875 -1.140625q-1.71875 0 -2.59375 0.609375q-0.875 0.609375 -0.875 1.59375q0 0.75 0.484375 1.21875q0.5 0.453125 1.234375 0.671875q0.734375 0.203125 2.03125 0.4375q1.59375 0.296875 2.546875 0.609375q0.96875 0.296875 1.65625 1.03125q0.6875 0.734375 0.6875 2.03125q0 1.75 -1.46875 2.78125q-1.453125 1.015625 -4.03125 1.015625zm20.416748 -6.234375l-11.140625 0q0.140625 2.078125 1.578125 3.359375q1.453125 1.28125 3.65625 1.28125q1.25 0 2.28125 -0.4375q1.046875 -0.453125 1.796875 -1.3125l1.015625 1.171875q-0.890625 1.0625 -2.21875 1.625q-1.328125 0.546875 -2.921875 0.546875q-2.046875 0 -3.640625 -0.875q-1.578125 -0.875 -2.46875 -2.421875q-0.875 -1.546875 -0.875 -3.484375q0 -1.953125 0.84375 -3.5q0.84375 -1.546875 2.328125 -2.40625q1.484375 -0.859375 3.328125 -0.859375q1.84375 0 3.3125 0.859375q1.484375 0.859375 2.3125 2.390625q0.84375 1.53125 0.84375 3.515625l-0.03125 0.546875zm-6.4375 -5.765625q-1.921875 0 -3.234375 1.234375q-1.296875 1.21875 -1.46875 3.1875l9.4375 0q-0.171875 -1.96875 -1.484375 -3.1875q-1.296875 -1.234375 -3.25 -1.234375zm11.860718 1.15625q0.625 -1.34375 1.875 -2.015625q1.265625 -0.6875 3.109375 -0.6875l0 1.75l-0.4375 -0.03125q-2.09375 0 -3.28125 1.296875q-1.1875 1.28125 -1.1875 3.625l0 6.78125l-1.8125 0l0 -13.328125l1.734375 0l0 2.609375zm11.898987 10.84375q-1.625 0 -3.109375 -0.46875q-1.46875 -0.46875 -2.3125 -1.171875l0.8125 -1.421875q0.84375 0.65625 2.109375 1.078125q1.265625 0.421875 2.625 0.421875q1.828125 0 2.703125 -0.5625q0.875 -0.578125 0.875 -1.625q0 -0.734375 -0.484375 -1.140625q-0.484375 -0.421875 -1.21875 -0.640625q-0.734375 -0.21875 -1.953125 -0.421875q-1.609375 -0.296875 -2.609375 -0.609375q-0.984375 -0.328125 -1.6875 -1.078125q-0.6875 -0.765625 -0.6875 -2.109375q0 -1.671875 1.390625 -2.734375q1.390625 -1.0625 3.875 -1.0625q1.296875 0 2.578125 0.34375q1.296875 0.34375 2.140625 0.890625l-0.796875 1.453125q-1.640625 -1.140625 -3.921875 -1.140625q-1.71875 0 -2.59375 0.609375q-0.875 0.609375 -0.875 1.59375q0 0.75 0.484375 1.21875q0.5 0.453125 1.234375 0.671875q0.734375 0.203125 2.03125 0.4375q1.59375 0.296875 2.546875 0.609375q0.96875 0.296875 1.65625 1.03125q0.6875 0.734375 0.6875 2.03125q0 1.75 -1.46875 2.78125q-1.453125 1.015625 -4.03125 1.015625z" fill-rule="nonzero"/><path fill="#ea9999" d="m586.0531 297.83118l0 0c0 -6.4844055 5.256653 -11.741028 11.741028 -11.741028l0 0c3.1138916 0 6.100281 1.2369995 8.302185 3.4388733c2.2018433 2.2018433 3.4388428 5.1882324 3.4388428 8.302155l0 0c0 6.484375 -5.256653 11.741028 -11.741028 11.741028l0 0c-6.484375 0 -11.741028 -5.256653 -11.741028 -11.741028z" fill-rule="evenodd"/><path stroke="#e06666" stroke-width="1.0" stroke-linejoin="round" stroke-linecap="butt" d="m586.0531 297.83118l0 0c0 -6.4844055 5.256653 -11.741028 11.741028 -11.741028l0 0c3.1138916 0 6.100281 1.2369995 8.302185 3.4388733c2.2018433 2.2018433 3.4388428 5.1882324 3.4388428 8.302155l0 0c0 6.484375 -5.256653 11.741028 -11.741028 11.741028l0 0c-6.484375 0 -11.741028 -5.256653 -11.741028 -11.741028z" fill-rule="evenodd"/><path fill="#ea9999" d="m577.52795 327.86636l0 -7.9487l0 0c0 -4.3899536 9.073486 -7.9487 20.266174 -7.9487c11.192688 0 20.266174 3.5587463 20.266174 7.9487l0 7.9487z" fill-rule="evenodd"/><path stroke="#e06666" stroke-width="1.0" stroke-linejoin="round" stroke-linecap="butt" d="m577.52795 327.86636l0 -7.9487l0 0c0 -4.3899536 9.073486 -7.9487 20.266174 -7.9487c11.192688 0 20.266174 3.5587463 20.266174 7.9487l0 7.9487z" fill-rule="evenodd"/><path fill="#ea9999" d="m632.2891 297.83118l0 0c0 -6.4844055 5.256592 -11.741028 11.741028 -11.741028l0 0c3.1138916 0 6.100281 1.2369995 8.302124 3.4388733c2.2019043 2.2018433 3.4389038 5.1882324 3.4389038 8.302155l0 0c0 6.484375 -5.256653 11.741028 -11.741028 11.741028l0 0c-6.484436 0 -11.741028 -5.256653 -11.741028 -11.741028z" fill-rule="evenodd"/><path stroke="#e06666" stroke-width="1.0" stroke-linejoin="round" stroke-linecap="butt" d="m632.2891 297.83118l0 0c0 -6.4844055 5.256592 -11.741028 11.741028 -11.741028l0 0c3.1138916 0 6.100281 1.2369995 8.302124 3.4388733c2.2019043 2.2018433 3.4389038 5.1882324 3.4389038 8.302155l0 0c0 6.484375 -5.256653 11.741028 -11.741028 11.741028l0 0c-6.484436 0 -11.741028 -5.256653 -11.741028 -11.741028z" fill-rule="evenodd"/><path fill="#ea9999" d="m623.764 327.86636l0 -7.9487l0 0c0 -4.3899536 9.073425 -7.9487 20.266174 -7.9487c11.192688 0 20.266174 3.5587463 20.266174 7.9487l0 7.9487z" fill-rule="evenodd"/><path stroke="#e06666" stroke-width="1.0" stroke-linejoin="round" stroke-linecap="butt" d="m623.764 327.86636l0 -7.9487l0 0c0 -4.3899536 9.073425 -7.9487 20.266174 -7.9487c11.192688 0 20.266174 3.5587463 20.266174 7.9487l0 7.9487z" fill-rule="evenodd"/><path fill="#ea9999" d="m678.5251 297.83118l0 0c0 -6.4844055 5.256653 -11.741028 11.741028 -11.741028l0 0c3.1139526 0 6.100281 1.2369995 8.302185 3.4388733c2.2018433 2.2018433 3.4388428 5.1882324 3.4388428 8.302155l0 0c0 6.484375 -5.256653 11.741028 -11.741028 11.741028l0 0c-6.484375 0 -11.741028 -5.256653 -11.741028 -11.741028z" fill-rule="evenodd"/><path stroke="#e06666" stroke-width="1.0" stroke-linejoin="round" stroke-linecap="butt" d="m678.5251 297.83118l0 0c0 -6.4844055 5.256653 -11.741028 11.741028 -11.741028l0 0c3.1139526 0 6.100281 1.2369995 8.302185 3.4388733c2.2018433 2.2018433 3.4388428 5.1882324 3.4388428 8.302155l0 0c0 6.484375 -5.256653 11.741028 -11.741028 11.741028l0 0c-6.484375 0 -11.741028 -5.256653 -11.741028 -11.741028z" fill-rule="evenodd"/><path fill="#ea9999" d="m669.99994 327.86636l0 -7.9487l0 0c0 -4.3899536 9.073486 -7.9487 20.266174 -7.9487c11.192688 0 20.266174 3.5587463 20.266174 7.9487l0 7.9487z" fill-rule="evenodd"/><path stroke="#e06666" stroke-width="1.0" stroke-linejoin="round" stroke-linecap="butt" d="m669.99994 327.86636l0 -7.9487l0 0c0 -4.3899536 9.073486 -7.9487 20.266174 -7.9487c11.192688 0 20.266174 3.5587463 20.266174 7.9487l0 7.9487z" fill-rule="evenodd"/><path fill="#ea9999" d="m724.038 297.83118l0 0c0 -6.4844055 5.256653 -11.741028 11.741028 -11.741028l0 0c3.1138916 0 6.100281 1.2369995 8.302185 3.4388733c2.2018433 2.2018433 3.4388428 5.1882324 3.4388428 8.302155l0 0c0 6.484375 -5.256653 11.741028 -11.741028 11.741028l0 0c-6.484375 0 -11.741028 -5.256653 -11.741028 -11.741028z" fill-rule="evenodd"/><path stroke="#e06666" stroke-width="1.0" stroke-linejoin="round" stroke-linecap="butt" d="m724.038 297.83118l0 0c0 -6.4844055 5.256653 -11.741028 11.741028 -11.741028l0 0c3.1138916 0 6.100281 1.2369995 8.302185 3.4388733c2.2018433 2.2018433 3.4388428 5.1882324 3.4388428 8.302155l0 0c0 6.484375 -5.256653 11.741028 -11.741028 11.741028l0 0c-6.484375 0 -11.741028 -5.256653 -11.741028 -11.741028z" fill-rule="evenodd"/><path fill="#ea9999" d="m715.5129 327.86636l0 -7.9487l0 0c0 -4.3899536 9.073486 -7.9487 20.266174 -7.9487c11.192688 0 20.266174 3.5587463 20.266174 7.9487l0 7.9487z" fill-rule="evenodd"/><path stroke="#e06666" stroke-width="1.0" stroke-linejoin="round" stroke-linecap="butt" d="m715.5129 327.86636l0 -7.9487l0 0c0 -4.3899536 9.073486 -7.9487 20.266174 -7.9487c11.192688 0 20.266174 3.5587463 20.266174 7.9487l0 7.9487z" fill-rule="evenodd"/><path fill="#ea9999" d="m770.27405 297.83118l0 0c0 -6.4844055 5.256592 -11.741028 11.741028 -11.741028l0 0c3.1138916 0 6.100281 1.2369995 8.302124 3.4388733c2.2019043 2.2018433 3.4389038 5.1882324 3.4389038 8.302155l0 0c0 6.484375 -5.256653 11.741028 -11.741028 11.741028l0 0c-6.484436 0 -11.741028 -5.256653 -11.741028 -11.741028z" fill-rule="evenodd"/><path stroke="#e06666" stroke-width="1.0" stroke-linejoin="round" stroke-linecap="butt" d="m770.27405 297.83118l0 0c0 -6.4844055 5.256592 -11.741028 11.741028 -11.741028l0 0c3.1138916 0 6.100281 1.2369995 8.302124 3.4388733c2.2019043 2.2018433 3.4389038 5.1882324 3.4389038 8.302155l0 0c0 6.484375 -5.256653 11.741028 -11.741028 11.741028l0 0c-6.484436 0 -11.741028 -5.256653 -11.741028 -11.741028z" fill-rule="evenodd"/><path fill="#ea9999" d="m761.7489 327.86636l0 -7.9487l0 0c0 -4.3899536 9.073486 -7.9487 20.266174 -7.9487c11.192688 0 20.266174 3.5587463 20.266174 7.9487l0 7.9487z" fill-rule="evenodd"/><path stroke="#e06666" stroke-width="1.0" stroke-linejoin="round" stroke-linecap="butt" d="m761.7489 327.86636l0 -7.9487l0 0c0 -4.3899536 9.073486 -7.9487 20.266174 -7.9487c11.192688 0 20.266174 3.5587463 20.266174 7.9487l0 7.9487z" fill-rule="evenodd"/><path fill="#ea9999" d="m816.51 297.83118l0 0c0 -6.4844055 5.256653 -11.741028 11.741028 -11.741028l0 0c3.1139526 0 6.100281 1.2369995 8.302185 3.4388733c2.2018433 2.2018433 3.4388428 5.1882324 3.4388428 8.302155l0 0c0 6.484375 -5.256592 11.741028 -11.741028 11.741028l0 0c-6.484375 0 -11.741028 -5.256653 -11.741028 -11.741028z" fill-rule="evenodd"/><path stroke="#e06666" stroke-width="1.0" stroke-linejoin="round" stroke-linecap="butt" d="m816.51 297.83118l0 0c0 -6.4844055 5.256653 -11.741028 11.741028 -11.741028l0 0c3.1139526 0 6.100281 1.2369995 8.302185 3.4388733c2.2018433 2.2018433 3.4388428 5.1882324 3.4388428 8.302155l0 0c0 6.484375 -5.256592 11.741028 -11.741028 11.741028l0 0c-6.484375 0 -11.741028 -5.256653 -11.741028 -11.741028z" fill-rule="evenodd"/><path fill="#ea9999" d="m807.98486 327.86636l0 -7.9487l0 0c0 -4.3899536 9.073486 -7.9487 20.266174 -7.9487c11.192688 0 20.266174 3.5587463 20.266174 7.9487l0 7.9487z" fill-rule="evenodd"/><path stroke="#e06666" stroke-width="1.0" stroke-linejoin="round" stroke-linecap="butt" d="m807.98486 327.86636l0 -7.9487l0 0c0 -4.3899536 9.073486 -7.9487 20.266174 -7.9487c11.192688 0 20.266174 3.5587463 20.266174 7.9487l0 7.9487z" fill-rule="evenodd"/></g></svg>