<?xml version="1.0" encoding="UTF-8" standalone="no"?>
<!DOCTYPE svg PUBLIC "-//W3C//DTD SVG 1.1//EN" "http://www.w3.org/Graphics/SVG/1.1/DTD/svg11.dtd">
<svg width="100%" height="100%" viewBox="0 0 133334 33334" version="1.1" xmlns="http://www.w3.org/2000/svg" xmlns:xlink="http://www.w3.org/1999/xlink" xml:space="preserve" xmlns:serif="http://www.serif.com/" style="fill-rule:evenodd;clip-rule:evenodd;stroke-linejoin:round;stroke-miterlimit:2;">
    <g transform="matrix(16.6667,0,0,16.6667,100000,0)">
        <g transform="matrix(2.54248,0,0,2.54248,-6157.76,31.898)">
            <g id="Microsoft_Teams-Logo.wine.svg">
                <g>
                    <path d="M713.24,333.333L861.333,333.333C875.325,333.333 886.667,344.675 886.667,358.667L886.667,493.56C886.667,544.981 844.981,586.666 793.56,586.666L793.12,586.666C741.698,586.674 700.007,544.994 700,493.573L700,346.573C700,339.261 705.928,333.333 713.24,333.333Z" style="fill:rgb(80,89,201);fill-rule:nonzero;"/>
                    <circle cx="813.333" cy="246.667" r="60" style="fill:rgb(80,89,201);"/>
                    <circle cx="626.667" cy="220" r="86.667" style="fill:rgb(123,131,235);"/>
                    <path d="M742.227,333.333L497.773,333.333C483.949,333.675 473.013,345.148 473.333,358.973L473.333,512.827C471.403,595.79 537.039,664.636 620,666.667C702.961,664.636 768.597,595.79 766.667,512.827L766.667,358.973C766.987,345.148 756.051,333.675 742.227,333.333Z" style="fill:rgb(123,131,235);fill-rule:nonzero;"/>
                    <path d="M633.333,333.333L633.333,548.933C633.267,558.82 627.276,567.702 618.133,571.466C615.222,572.698 612.094,573.333 608.933,573.333L485.067,573.333C483.333,568.933 481.733,564.533 480.4,560C475.733,544.701 473.351,528.795 473.333,512.8L473.333,358.933C473.013,345.13 483.931,333.675 497.733,333.333L633.333,333.333Z" style="fill-opacity:0.1;fill-rule:nonzero;"/>
                    <path d="M620,333.333L620,562.266C620,565.427 619.365,568.556 618.133,571.466C614.369,580.609 605.487,586.6 595.6,586.666L491.333,586.666C489.067,582.266 486.933,577.866 485.067,573.333C483.2,568.8 481.733,564.533 480.4,560C475.733,544.701 473.351,528.795 473.333,512.8L473.333,358.933C473.013,345.13 483.931,333.675 497.733,333.333L620,333.333Z" style="fill-opacity:0.2;fill-rule:nonzero;"/>
                    <path d="M620,333.333L620,535.6C619.899,549.034 609.034,559.898 595.6,560L480.4,560C475.733,544.701 473.351,528.795 473.333,512.8L473.333,358.933C473.013,345.13 483.931,333.675 497.733,333.333L620,333.333Z" style="fill-opacity:0.2;fill-rule:nonzero;"/>
                    <path d="M606.667,333.333L606.667,535.6C606.565,549.034 595.7,559.898 582.267,560L480.4,560C475.733,544.701 473.351,528.795 473.333,512.8L473.333,358.933C473.013,345.13 483.931,333.675 497.733,333.333L606.667,333.333Z" style="fill-opacity:0.2;fill-rule:nonzero;"/>
                    <path d="M633.333,264.4L633.333,306.4C631.067,306.533 628.933,306.667 626.667,306.667C624.4,306.667 622.267,306.534 620,306.4C615.499,306.101 611.036,305.387 606.667,304.267C579.667,297.873 557.36,278.937 546.667,253.334C544.827,249.034 543.398,244.569 542.4,240L608.933,240C622.388,240.051 633.282,250.945 633.333,264.4Z" style="fill-opacity:0.1;fill-rule:nonzero;"/>
                    <path d="M620,277.733L620,306.4C615.499,306.101 611.036,305.387 606.667,304.267C579.667,297.873 557.36,278.937 546.667,253.334L595.6,253.334C609.055,253.384 619.949,264.279 620,277.733Z" style="fill-opacity:0.2;fill-rule:nonzero;"/>
                    <path d="M620,277.733L620,306.4C615.499,306.101 611.036,305.387 606.667,304.267C579.667,297.873 557.36,278.937 546.667,253.334L595.6,253.334C609.055,253.384 619.949,264.279 620,277.733Z" style="fill-opacity:0.2;fill-rule:nonzero;"/>
                    <path d="M606.667,277.733L606.667,304.267C579.667,297.872 557.36,278.937 546.667,253.333L582.267,253.333C595.721,253.384 606.615,264.279 606.667,277.733Z" style="fill-opacity:0.2;fill-rule:nonzero;"/>
                    <path d="M337.773,253.333L582.227,253.333C595.724,253.333 606.666,264.276 606.666,277.773L606.666,522.226C606.666,535.724 595.724,546.666 582.227,546.666L337.773,546.666C324.275,546.666 313.333,535.724 313.333,522.226L313.333,277.773C313.333,264.276 324.276,253.333 337.773,253.333Z" style="fill:url(#_Linear1);fill-rule:nonzero;"/>
                    <path d="M524.32,346.373L475.453,346.373L475.453,479.44L444.32,479.44L444.32,346.373L395.68,346.373L395.68,320.56L524.32,320.56L524.32,346.373Z" style="fill:white;fill-rule:nonzero;"/>
                </g>
            </g>
        </g>
        <g transform="matrix(2.54367,0,0,2.54367,-3462.49,-2.21975)">
            <g id="Outlook_on_the_web-Logo.wine.svg">
                <g>
                    <path d="M886.666,413.333C886.697,408.855 884.376,404.674 880.559,402.333L880.493,402.333L880.252,402.2L681.586,284.6C680.728,284.02 679.838,283.491 678.919,283.013C671.255,279.059 662.13,279.059 654.466,283.013C653.547,283.491 652.657,284.02 651.799,284.6L453.133,402.2L452.893,402.333C446.822,406.109 444.96,414.092 448.736,420.164C449.848,421.953 451.381,423.444 453.2,424.506L651.866,542.106C652.727,542.681 653.617,543.21 654.533,543.693C662.197,547.647 671.322,547.647 678.986,543.693C679.902,543.21 680.792,542.681 681.653,542.106L880.32,424.506C884.284,422.195 886.711,417.921 886.666,413.333Z" style="fill:rgb(10,39,103);fill-rule:nonzero;"/>
                    <path d="M476.293,334.813L606.666,334.813L606.666,454.319L476.293,454.319L476.293,334.813ZM859.999,213.333L859.999,158.667C860.313,144.999 849.494,133.661 835.826,133.333L497.507,133.333C483.839,133.661 473.02,144.999 473.333,158.667L473.333,213.333L673.333,266.666L859.999,213.333Z" style="fill:rgb(3,100,184);fill-rule:nonzero;"/>
                    <rect x="473.333" y="213.333" width="133.333" height="120" style="fill:rgb(0,120,212);"/>
                    <path d="M740,213.333L606.666,213.333L606.666,333.333L740,453.333L859.999,453.333L859.999,333.333L740,213.333Z" style="fill:rgb(40,168,234);fill-rule:nonzero;"/>
                    <rect x="606.666" y="333.333" width="133.333" height="120" style="fill:rgb(0,120,212);"/>
                    <rect x="606.666" y="453.333" width="133.333" height="120" style="fill:rgb(3,100,184);"/>
                    <rect x="476.293" y="454.319" width="130.373" height="108.64" style="fill:rgb(20,68,125);"/>
                    <rect x="740" y="453.333" width="120" height="120" style="fill:rgb(0,120,212);"/>
                    <path d="M880.559,423.773L880.306,423.906L681.639,535.639C680.773,536.173 679.893,536.679 678.973,537.133C675.598,538.739 671.934,539.647 668.2,539.799L657.346,533.453C656.429,532.992 655.539,532.48 654.679,531.919L453.346,417.013L453.253,417.013L446.667,413.333L446.667,639.519C446.769,654.61 459.082,666.762 474.173,666.666L859.586,666.666C859.813,666.666 860.013,666.559 860.252,666.559C863.44,666.355 866.582,665.7 869.586,664.613C870.884,664.063 872.136,663.412 873.332,662.666C874.226,662.159 875.759,661.053 875.759,661.053C882.584,656.003 886.632,648.01 886.666,639.52L886.666,413.333C886.661,417.654 884.323,421.651 880.559,423.773Z" style="fill:url(#_Linear2);fill-rule:nonzero;"/>
                    <path d="M875.999,412.44L875.999,426.306L668.267,569.333L453.2,417.106C453.2,417.033 453.14,416.973 453.067,416.973L433.333,405.106L433.333,395.106L441.467,394.973L458.667,404.839L459.066,404.973L460.533,405.906C460.533,405.906 662.666,521.239 663.199,521.506L670.933,526.039C671.599,525.772 672.266,525.506 673.066,525.239C673.466,524.972 873.732,412.306 873.732,412.306L875.999,412.44Z" style="fill:rgb(10,39,103);fill-opacity:0.5;fill-rule:nonzero;"/>
                    <path d="M880.559,423.773L880.306,423.919L681.639,535.653C680.773,536.186 679.893,536.692 678.973,537.146C671.263,540.912 662.229,540.912 654.519,537.146C653.606,536.693 652.716,536.195 651.853,535.653L453.187,423.919L452.947,423.773C449.116,421.696 446.707,417.69 446.667,413.333L446.667,639.519C446.762,654.608 459.071,666.761 474.159,666.666L859.173,666.666C874.261,666.762 886.57,654.608 886.666,639.521C886.666,639.52 886.666,639.521 886.666,639.521L886.666,413.333C886.661,417.654 884.323,421.651 880.559,423.773Z" style="fill:rgb(20,144,223);fill-rule:nonzero;"/>
                    <path d="M684.533,533.999L681.56,535.666C680.698,536.215 679.808,536.718 678.893,537.173C675.617,538.781 672.055,539.723 668.413,539.946L744,629.333L875.853,661.106C879.466,658.377 882.34,654.788 884.213,650.666L684.533,533.999Z" style="fill-opacity:0.1;fill-rule:nonzero;"/>
                    <path d="M698,526.426L681.56,535.666C680.698,536.215 679.808,536.718 678.893,537.173C675.617,538.781 672.055,539.723 668.413,539.946L703.826,637.586L875.893,661.066C882.666,655.98 886.662,647.989 886.666,639.519L886.666,636.599L698,526.426Z" style="fill-opacity:0.05;fill-rule:nonzero;"/>
                    <path d="M474.533,666.666L859.133,666.666C865.05,666.696 870.823,664.826 875.599,661.333L657.333,533.48C656.416,533.019 655.525,532.507 654.666,531.946L453.333,417.04L453.24,417.04L446.667,413.333L446.667,638.746C446.652,654.151 459.128,666.651 474.533,666.666Z" style="fill:rgb(40,168,234);fill-rule:nonzero;"/>
                    <path d="M633.333,264.44L633.333,548.84C633.309,558.811 627.246,567.774 618,571.506C615.135,572.737 612.05,573.372 608.933,573.373L446.667,573.373L446.667,253.333L473.333,253.333L473.333,240L608.933,240C622.403,240.051 633.304,250.97 633.333,264.44Z" style="fill-opacity:0.1;fill-rule:nonzero;"/>
                    <path d="M620,277.773L620,562.172C620.033,565.393 619.35,568.582 618,571.506C614.297,580.633 605.449,586.62 595.6,586.666L446.667,586.666L446.667,253.333L595.6,253.333C599.468,253.294 603.282,254.259 606.666,256.133C614.84,260.251 619.997,268.621 620,277.773Z" style="fill-opacity:0.2;fill-rule:nonzero;"/>
                    <path d="M620,277.773L620,535.506C619.935,548.97 609.063,559.883 595.6,559.999L446.667,559.999L446.667,253.333L595.6,253.333C599.468,253.294 603.282,254.259 606.666,256.133C614.84,260.251 619.997,268.621 620,277.773Z" style="fill-opacity:0.2;fill-rule:nonzero;"/>
                    <path d="M606.666,277.76L606.666,535.506C606.652,548.991 595.751,559.933 582.266,559.999L446.667,559.999L446.667,253.333L582.266,253.333C595.749,253.34 606.673,264.277 606.666,277.76Z" style="fill-opacity:0.2;fill-rule:nonzero;"/>
                    <path d="M337.773,253.333L582.226,253.333C595.724,253.333 606.666,264.275 606.666,277.773L606.666,522.226C606.666,535.724 595.724,546.666 582.226,546.666L337.773,546.666C324.276,546.666 313.334,535.724 313.334,522.226L313.334,277.773C313.334,264.275 324.276,253.333 337.773,253.333Z" style="fill:url(#_Linear3);fill-rule:nonzero;"/>
                    <path d="M389.72,355.84C395.743,343.007 405.468,332.265 417.64,325C431.121,317.282 446.473,313.434 462,313.88C476.391,313.568 490.595,317.217 503.053,324.426C514.767,331.412 524.204,341.65 530.213,353.893C536.758,367.384 540.021,382.234 539.733,397.226C540.051,412.894 536.694,428.421 529.933,442.559C523.781,455.24 514.044,465.843 501.933,473.053C488.995,480.483 474.264,484.228 459.347,483.879C444.649,484.234 430.131,480.544 417.387,473.213C405.572,466.218 396.017,455.968 389.867,443.692C383.283,430.396 379.982,415.714 380.24,400.879C379.966,385.344 383.207,369.946 389.72,355.84ZM419.48,428.239C422.691,436.352 428.139,443.39 435.187,448.533C442.365,453.55 450.965,456.139 459.72,455.919C469.044,456.288 478.239,453.61 485.907,448.293C492.865,443.166 498.17,436.109 501.16,427.999C504.503,418.942 506.153,409.347 506.026,399.693C506.13,389.947 504.579,380.253 501.44,371.026C498.667,362.696 493.534,355.348 486.666,349.88C479.191,344.311 470.02,341.484 460.706,341.88C451.762,341.648 442.969,344.258 435.6,349.333C428.433,354.498 422.882,361.598 419.6,369.799C412.321,388.596 412.283,409.443 419.493,428.266L419.48,428.239Z" style="fill:white;fill-rule:nonzero;"/>
                    <rect x="740" y="213.333" width="120" height="120" style="fill:rgb(80,217,255);"/>
                </g>
            </g>
        </g>
        <g id="Microsoft_365_-2022---1-.svg" serif:id="Microsoft_365_(2022) (1).svg" transform="matrix(34.1358,0,0,34.1358,731.274,1039.49)">
            <g transform="matrix(1,0,0,1,-20,-22)">
                <clipPath id="_clip4">
                    <rect x="0" y="0" width="40" height="44"/>
                </clipPath>
                <g clip-path="url(#_clip4)">
                    <g transform="matrix(1,0,0,1,-4,-2)">
                        <path d="M20.084,3.026L19.86,3.162C19.502,3.378 19.165,3.62 18.851,3.884L19.499,3.428L25,3.428L26,11L21,16L16,19.475L16,23.483C16,26.282 17.463,28.877 19.857,30.327L25.121,33.513L14,40L11.855,40L7.857,37.58C5.463,36.131 4,33.536 4,30.737L4,17.261C4,14.461 5.464,11.865 7.86,10.415L19.86,3.157C19.934,3.112 20.009,3.068 20.084,3.026Z" style="fill:url(#_Radial5);fill-rule:nonzero;"/>
                    </g>
                    <g transform="matrix(1,0,0,1,-4,-2)">
                        <path d="M20.084,3.026L19.86,3.162C19.502,3.378 19.165,3.62 18.851,3.884L19.499,3.428L25,3.428L26,11L21,16L16,19.475L16,23.483C16,26.282 17.463,28.877 19.857,30.327L25.121,33.513L14,40L11.855,40L7.857,37.58C5.463,36.131 4,33.536 4,30.737L4,17.261C4,14.461 5.464,11.865 7.86,10.415L19.86,3.157C19.934,3.112 20.009,3.068 20.084,3.026Z" style="fill:url(#_Linear6);fill-rule:nonzero;"/>
                    </g>
                    <g transform="matrix(1,0,0,1,-4,-2)">
                        <path d="M32,19L32,23.48C32,26.279 30.537,28.875 28.143,30.324L16.143,37.588C13.688,39.074 10.634,39.127 8.136,37.749L19.857,44.844C22.404,46.386 25.596,46.386 28.143,44.844L40.143,37.58C42.537,36.131 44,33.535 44,30.736L44,27.5L43,26L32,19Z" style="fill:url(#_Radial7);fill-rule:nonzero;"/>
                    </g>
                    <g transform="matrix(1,0,0,1,-4,-2)">
                        <path d="M32,19L32,23.48C32,26.279 30.537,28.875 28.143,30.324L16.143,37.588C13.688,39.074 10.634,39.127 8.136,37.749L19.857,44.844C22.404,46.386 25.596,46.386 28.143,44.844L40.143,37.58C42.537,36.131 44,33.535 44,30.736L44,27.5L43,26L32,19Z" style="fill:url(#_Linear8);fill-rule:nonzero;"/>
                    </g>
                    <g transform="matrix(1,0,0,1,-4,-2)">
                        <path d="M40.141,10.415L28.141,3.157C25.674,1.665 22.602,1.618 20.098,3.018L19.86,3.162C17.464,4.611 16,7.208 16,10.008L16,19.491L19.86,17.157C22.405,15.617 25.595,15.617 28.141,17.157L40.141,24.415C42.461,25.819 43.908,28.299 43.996,30.999C43.999,30.911 44,30.824 44,30.736L44,17.261C44,14.461 42.536,11.864 40.141,10.415Z" style="fill:url(#_Radial9);fill-rule:nonzero;"/>
                    </g>
                    <g transform="matrix(1,0,0,1,-4,-2)">
                        <path d="M40.141,10.415L28.141,3.157C25.674,1.665 22.602,1.618 20.098,3.018L19.86,3.162C17.464,4.611 16,7.208 16,10.008L16,19.491L19.86,17.157C22.405,15.617 25.595,15.617 28.141,17.157L40.141,24.415C42.461,25.819 43.908,28.299 43.996,30.999C43.999,30.911 44,30.824 44,30.736L44,17.261C44,14.461 42.536,11.864 40.141,10.415Z" style="fill:url(#_Linear10);fill-rule:nonzero;"/>
                    </g>
                    <g transform="matrix(1,0,0,1,-4,-2)">
                        <path d="M4.004,30.998L4.004,30.998Z" style="fill:url(#_Radial11);fill-rule:nonzero;"/>
                    </g>
                    <g transform="matrix(1,0,0,1,-4,-2)">
                        <path d="M4.004,30.998L4.004,30.998Z" style="fill:url(#_Linear12);fill-rule:nonzero;"/>
                    </g>
                </g>
            </g>
        </g>
    </g>
    <defs>
        <linearGradient id="_Linear1" x1="0" y1="0" x2="1" y2="0" gradientUnits="userSpaceOnUse" gradientTransform="matrix(191.417,331.527,-331.527,191.417,364.291,-32.4305)"><stop offset="0" style="stop-color:rgb(90,98,195);stop-opacity:1"/><stop offset="0.5" style="stop-color:rgb(77,85,189);stop-opacity:1"/><stop offset="1" style="stop-color:rgb(57,64,171);stop-opacity:1"/></linearGradient>
        <linearGradient id="_Linear2" x1="0" y1="0" x2="1" y2="0" gradientUnits="userSpaceOnUse" gradientTransform="matrix(1.55122e-14,253.333,-253.333,1.55122e-14,666.666,146.666)"><stop offset="0" style="stop-color:rgb(53,184,241);stop-opacity:1"/><stop offset="1" style="stop-color:rgb(40,168,234);stop-opacity:1"/></linearGradient>
        <linearGradient id="_Linear3" x1="0" y1="0" x2="1" y2="0" gradientUnits="userSpaceOnUse" gradientTransform="matrix(191.417,331.527,-331.527,191.417,364.291,-32.4305)"><stop offset="0" style="stop-color:rgb(23,132,217);stop-opacity:1"/><stop offset="0.5" style="stop-color:rgb(16,122,213);stop-opacity:1"/><stop offset="1" style="stop-color:rgb(10,99,201);stop-opacity:1"/></linearGradient>
        <radialGradient id="_Radial5" cx="0" cy="0" r="1" gradientUnits="userSpaceOnUse" gradientTransform="matrix(-11.7002,31.247,-54.5012,-20.4075,17.4186,10.6383)"><stop offset="0" style="stop-color:rgb(174,127,226);stop-opacity:1"/><stop offset="0.06" style="stop-color:rgb(174,127,226);stop-opacity:1"/><stop offset="1" style="stop-color:rgb(0,120,212);stop-opacity:1"/></radialGradient>
        <linearGradient id="_Linear6" x1="0" y1="0" x2="1" y2="0" gradientUnits="userSpaceOnUse" gradientTransform="matrix(-4.7606,-8.2338,8.2338,-4.7606,17.5119,37.8685)"><stop offset="0" style="stop-color:rgb(17,74,139);stop-opacity:1"/><stop offset="1" style="stop-color:rgb(0,120,212);stop-opacity:0"/></linearGradient>
        <radialGradient id="_Radial7" cx="0" cy="0" r="1" gradientUnits="userSpaceOnUse" gradientTransform="matrix(30.7198,-4.51832,2.98465,20.2925,10.4299,36.3511)"><stop offset="0" style="stop-color:rgb(213,157,255);stop-opacity:1"/><stop offset="0.13" style="stop-color:rgb(213,157,255);stop-opacity:1"/><stop offset="1" style="stop-color:rgb(94,67,143);stop-opacity:1"/></radialGradient>
        <linearGradient id="_Linear8" x1="0" y1="0" x2="1" y2="0" gradientUnits="userSpaceOnUse" gradientTransform="matrix(-5.1014,7.3148,-7.3148,-5.1014,40.3566,25.3768)"><stop offset="0" style="stop-color:rgb(73,52,116);stop-opacity:1"/><stop offset="1" style="stop-color:rgb(140,102,186);stop-opacity:0"/></linearGradient>
        <radialGradient id="_Radial9" cx="0" cy="0" r="1" gradientUnits="userSpaceOnUse" gradientTransform="matrix(-24.1583,-6.12555,10.3118,-40.6682,41.0552,26.504)"><stop offset="0" style="stop-color:rgb(80,230,255);stop-opacity:1"/><stop offset="0.06" style="stop-color:rgb(80,230,255);stop-opacity:1"/><stop offset="1" style="stop-color:rgb(67,109,205);stop-opacity:1"/></radialGradient>
        <linearGradient id="_Linear10" x1="0" y1="0" x2="1" y2="0" gradientUnits="userSpaceOnUse" gradientTransform="matrix(7.511,0,0,7.511,16.9758,3.05655)"><stop offset="0" style="stop-color:rgb(45,63,128);stop-opacity:1"/><stop offset="1" style="stop-color:rgb(67,109,205);stop-opacity:0"/></linearGradient>
        <radialGradient id="_Radial11" cx="0" cy="0" r="1" gradientUnits="userSpaceOnUse" gradientTransform="matrix(-24.1583,-6.12555,10.3118,-40.6682,41.0552,26.504)"><stop offset="0" style="stop-color:rgb(80,230,255);stop-opacity:1"/><stop offset="0.06" style="stop-color:rgb(80,230,255);stop-opacity:1"/><stop offset="1" style="stop-color:rgb(67,109,205);stop-opacity:1"/></radialGradient>
        <linearGradient id="_Linear12" x1="0" y1="0" x2="1" y2="0" gradientUnits="userSpaceOnUse" gradientTransform="matrix(7.511,0,0,7.511,16.9758,3.05655)"><stop offset="0" style="stop-color:rgb(45,63,128);stop-opacity:1"/><stop offset="1" style="stop-color:rgb(67,109,205);stop-opacity:0"/></linearGradient>
    </defs>
</svg>
