<?xml version="1.0" standalone="no"?>
<!DOCTYPE svg PUBLIC "-//W3C//DTD SVG 20010904//EN"
 "http://www.w3.org/TR/2001/REC-SVG-20010904/DTD/svg10.dtd">
<svg version="1.0" xmlns="http://www.w3.org/2000/svg"
 width="792.000000pt" height="270.000000pt" viewBox="0 0 792.000000 270.000000"
 preserveAspectRatio="xMidYMid meet">

<g transform="translate(0.000000,270.000000) scale(0.100000,-0.100000)"
fill="#000000" stroke="none">
<path d="M856 2574 c-287 -52 -512 -254 -583 -524 -23 -89 -23 -310 0 -400 53
-204 193 -346 433 -440 56 -22 189 -65 294 -95 388 -111 470 -165 470 -310 0
-147 -116 -225 -333 -225 -215 0 -416 83 -643 266 l-32 25 -146 -185 c-80
-102 -146 -190 -146 -195 0 -13 103 -100 184 -155 301 -205 731 -285 1071
-200 33 8 107 38 164 65 87 43 117 64 181 128 138 138 200 303 200 534 0 209
-44 321 -176 454 -73 73 -96 88 -205 142 -123 59 -213 91 -484 171 -243 71
-314 114 -341 207 -35 121 29 229 156 264 63 17 202 15 285 -5 80 -19 258
-103 360 -169 38 -25 72 -44 76 -41 3 2 64 92 134 200 l129 196 -25 20 c-125
99 -317 201 -449 238 -177 49 -412 63 -574 34z"/>
<path d="M3185 2579 c-114 -17 -221 -50 -331 -104 -328 -159 -549 -443 -645
-825 -21 -86 -24 -117 -24 -315 0 -198 3 -229 24 -315 62 -246 171 -443 335
-605 140 -137 321 -240 513 -292 92 -25 112 -27 308 -27 194 0 217 2 306 26
52 14 131 44 175 66 133 68 135 39 -16 269 l-131 202 -45 -20 c-129 -55 -329
-71 -449 -35 -247 73 -423 279 -481 563 -12 58 -15 112 -12 213 5 116 10 148
36 230 42 127 92 210 183 301 60 61 93 85 160 117 107 51 171 65 285 65 99 -1
189 -20 272 -58 l53 -24 106 162 c143 219 153 235 153 247 0 21 -120 88 -212
118 -51 17 -133 35 -183 41 -104 13 -293 12 -380 0z"/>
<path d="M4290 1340 l0 -1250 143 0 c165 0 228 14 283 63 102 89 131 208 92
381 -11 48 -10 49 26 82 42 38 46 69 14 109 -19 24 -20 28 -5 36 9 5 30 21 46
35 38 32 39 57 6 141 -22 55 -24 68 -15 103 11 42 22 52 110 103 68 40 100 85
100 143 0 47 -17 75 -174 289 -90 121 -136 203 -136 240 0 11 16 54 36 95 33
69 36 80 31 140 -4 42 -26 122 -61 223 -61 174 -73 200 -119 269 l-32 48 -172
0 -173 0 0 -1250z"/>
<path d="M5380 1340 l0 -1250 250 0 250 0 2 817 3 818 313 -503 c172 -276 318
-502 325 -502 7 0 154 228 327 507 l315 507 3 -822 2 -822 250 0 250 0 0 1250
0 1250 -274 0 -273 0 -287 -489 c-158 -269 -293 -497 -300 -506 -11 -15 -51
49 -308 486 l-297 504 -275 3 -276 2 0 -1250z"/>
</g>
</svg>
