<?xml version="1.0" encoding="utf-8"?>
<!-- Generator: Adobe Illustrator 19.2.1, SVG Export Plug-In . SVG Version: 6.00 Build 0)  -->
<svg version="1.1" xmlns="http://www.w3.org/2000/svg" xmlns:xlink="http://www.w3.org/1999/xlink" x="0px" y="0px"
	 viewBox="0 0 364 364" style="enable-background:new 0 0 364 364;" xml:space="preserve">
<style type="text/css">
	.st0{fill:#FFFFFF;}
	.st1{fill:#51ADE5;}
</style>
<g id="Layer_2">
	<path class="st0" d="M328.8,235.7c-10,20.5-31.5,25.5-52.8,26.1v-0.1h-60.3c-4.8,10.3-20.2,20.7-35.9,20.7s-30.1-10.4-34.9-20.7
		H88.7l0,0.2c-28.3-0.5-43.4-4.8-54-26.3c-12-24.4-2.3-53.7,21.5-65.3c23.8-11.6,52.8-1.3,64.8,23.1c1,2,1.8,4.1,2.4,6.3l0,0
		c0,0,0,0,0,0c3.2-3.3,6.8-6.3,10.6-8.9c0.3-0.2,0.6-0.4,0.9-0.6c0,0,0,0,0.1,0c3.8-2.6,7.9-4.8,12.1-6.6c-0.3-0.8-0.6-1.5-1-2.3
		c-2.6-5.3-5.7-10.3-9.4-14.8c-6.5-17.1-2.9-36.4,9.4-50c18.2-20.2,48.9-22.3,68.6-4.5c15.7,14.1,19.5,36.5,11.3,55.2
		c0.1,0.1-6.1,9.3-8.5,14.3c-0.7,1.3-0.9,2.1-0.9,2.1s15.4,10.2,22,16.3c0,0,0,0,0,0c0.4,0.3,0.8,0.5,1.2,0.8c0.7-2.4,1.6-4.8,2.7-7
		c11.9-24.4,40.9-34.8,64.8-23.1C331.1,182,340.7,211.2,328.8,235.7"/>
</g>
<g id="Layer_1">
	<g transform="translate(1054.324 575.761)">
		<path class="st1" d="M-725.5-340.1c-10,20.5-31.5,25.5-52.8,26.1v-0.1h-60.3c-4.8,10.3-20.2,20.7-35.9,20.7s-30.1-10.4-34.9-20.7
			h-56.2l0,0.2c-28.3-0.5-43.5-4.8-54-26.3c-12-24.4-2.3-53.7,21.5-65.3c23.8-11.6,52.8-1.3,64.8,23.1c1,2,1.8,4.1,2.4,6.3l0,0
			c0,0,0,0,0,0c3.2-3.3,6.8-6.3,10.6-8.9c0.3-0.2,0.6-0.4,0.9-0.6c0,0,0,0,0.1,0c3.8-2.6,7.9-4.8,12.1-6.6c-0.3-0.8-0.6-1.5-1-2.3
			c-2.6-5.3-5.7-10.3-9.4-14.8c-6.5-17.1-2.9-36.4,9.4-50c18.2-20.2,48.9-22.3,68.6-4.5c15.7,14.1,19.5,36.5,11.3,55.2
			c0.1,0.1-6.1,9.3-8.5,14.3c-0.7,1.3-0.9,2.1-0.9,2.1s15.4,10.2,22,16.3c0,0,0,0,0,0c0.4,0.3,0.8,0.5,1.2,0.8
			c0.7-2.4,1.6-4.8,2.7-7c11.9-24.4,40.9-34.8,64.8-23.1C-723.2-393.8-713.6-364.5-725.5-340.1 M-734.4-431.2
			c-19.3-9.4-41.6-10.1-61.4-1.9c-0.8-20.1-9.7-39-24.7-52.4c-31.2-28-79.8-24.8-108.5,7.2c-11.3,12.5-18.3,28.4-19.8,45.2
			c-19.9-8.4-42.5-7.7-61.9,1.7c-37.7,18.4-52.9,64.7-34,103.3c14.3,29.2,49.8,45.1,77.1,44.3v0l189.3-0.2v-0.1
			c25.4,1.4,63.7-14.8,77.9-43.9C-681.5-366.5-696.8-412.7-734.4-431.2"/>
	</g>
	<g transform="translate(912.073 514.682)">
		<path class="st1" d="M-726.5-344.1l-0.2,37.6c-1.7-0.3-3.5-0.5-5.2-0.5c-1.5,0-2.9,0.1-4.4,0.4l0.2-36.8
			C-736.1-343.4-727-344.1-726.5-344.1 M-654-302.3l-51.1,12.9c1.3,3,2.1,6.1,2.3,9.3l51.2-12.9c-0.5-1.2-1.1-2.4-1.7-3.6
			C-653.6-298.4-653.9-300.3-654-302.3 M-758.7-289.8c-1.4,2.9-2.2,6.1-2.5,9.3l-49.2-12.4c0.5-1.3,1.1-2.6,1.8-3.9
			c0.5-1.8,0.7-3.6,0.9-5.4L-758.7-289.8z M-748.2-349.4c-10.6-9.5-11.3-26-1.5-36.8c9.7-10.8,26.2-12,36.8-2.4s11.2,26,1.5,36.9
			c-3.8,4.2-9.6,7.7-15.1,7.8c-0.8,0-0.2,0.2-0.9,0.2c-2.7,0-5.3,0.2-8,0.5C-740.2-344.1-744.6-346.2-748.2-349.4L-748.2-349.4z
			 M-811.6-290c-2.5,4.1-6,7.3-10.3,9.5c-12.8,6.3-28.3,0.7-34.7-12.4c-6.4-13.1-1.2-28.8,11.5-35.1c12.8-6.3,28.3-0.7,34.7,12.4
			c2.8,5.8,3.5,12.4,1.8,18.6C-809.8-294.7-810.8-292.3-811.6-290 M-653.1-296.6c-1.7-6.2-1.1-12.8,1.8-18.6
			c6.4-13.1,22-18.7,34.7-12.4c12.8,6.3,17.9,22,11.5,35.1c-6.4,13.1-22,18.7-34.7,12.4c-4.3-2.1-7.8-5.4-10.3-9.5
			C-651-292-652-294.4-653.1-296.6 M-702.6-277.7c0,16.2-13.1,29.4-29.4,29.4c-16.2,0-29.4-13.1-29.4-29.4
			c0-16.2,13.1-29.4,29.4-29.4C-715.8-307-702.6-293.9-702.6-277.7"/>
	</g>
</g>
</svg>
